<svg xmlns="http://www.w3.org/2000/svg" width="400" height="310.525" viewBox="0 0 400 310.525">
  <g id="Grupo_60644" data-name="Grupo 60644" transform="translate(-97.152 -99.287)">
    <path id="Trazado_104624" data-name="Trazado 104624" d="M297.151,121.841c110.457,0,200,54.444,200,121.6s-89.544,121.6-200,121.6-200-54.438-200-121.6S186.7,121.841,297.151,121.841Z" transform="translate(0 44.77)" fill="#fd705c"/>
    <path id="Trazado_109478" data-name="Trazado 109478" d="M391.874,251.836c0-39.957-31.289-75.9-67.479-82.927l-35.48-6.889H225.663l-42.417,10.63c-30.686,7.692-58.882,45.7-64.417,80.577" transform="translate(43.029 124.526)" fill="#f44c5d" stroke="#1d1d1b" stroke-linejoin="bevel" stroke-width="0.5"/>
    <g id="Grupo_57832" data-name="Grupo 57832" transform="translate(158.21 107.216)">
      <path id="Trazado_109479" data-name="Trazado 109479" d="M254.122,285.286c53.39,0,101.887-12.722,137.752-33.45,0-39.957-31.289-75.9-67.479-82.927l-35.48-6.889H225.663l-42.417,10.63c-30.686,7.692-58.882,45.7-64.417,80.577C154.437,273.128,201.941,285.286,254.122,285.286Z" transform="translate(-115.181 17.31)" fill="#f44c5d"/>
      <g id="Grupo_57831" data-name="Grupo 57831" transform="translate(93.655)">
        <path id="Trazado_103146" data-name="Trazado 103146" d="M212.29,159.924a31.621,31.621,0,1,0-35.787-.564,43.2,43.2,0,1,0,35.787.564Z" transform="translate(-145.844 -101.943)" fill="#271c22"/>
        <g id="Grupo_57819" data-name="Grupo 57819" transform="translate(0 63.93)">
          <g id="Grupo_57814" data-name="Grupo 57814" transform="translate(0 40.059)">
            <path id="Trazado_103147" data-name="Trazado 103147" d="M162.145,136.92h-.484a12.543,12.543,0,0,0,0,25.086h.854a33.3,33.3,0,0,1-.37-4.934Z" transform="translate(-148.706 -136.502)" fill="#e6b7b1"/>
            <path id="Trazado_103148" data-name="Trazado 103148" d="M162.791,162.7h-.854a12.961,12.961,0,0,1,0-25.922h.484a.419.419,0,0,1,.418.418V157.35a33.275,33.275,0,0,0,.367,4.872.423.423,0,0,1-.355.478l-.06,0Zm-.854-25.083a12.123,12.123,0,0,0,0,24.244h.37a33.559,33.559,0,0,1-.3-4.513V137.619Z" transform="translate(-148.982 -136.78)" fill="#271c22"/>
          </g>
          <g id="Grupo_57815" data-name="Grupo 57815" transform="translate(81.634 40.059)">
            <path id="Trazado_103149" data-name="Trazado 103149" d="M177.32,136.92h-.481v20.152a33.3,33.3,0,0,1-.37,4.934h.851a12.543,12.543,0,1,0,0-25.086Z" transform="translate(-176.054 -136.502)" fill="#e6b7b1"/>
            <path id="Trazado_103150" data-name="Trazado 103150" d="M177.6,162.7h-.851a.419.419,0,0,1-.418-.418l0-.063a33.262,33.262,0,0,0,.367-4.872V137.2a.417.417,0,0,1,.418-.418h.484a12.961,12.961,0,0,1,0,25.922Zm-.37-.839h.37a12.123,12.123,0,0,0,0-24.244h-.066V157.35a34.136,34.136,0,0,1-.3,4.516Z" transform="translate(-176.33 -136.78)" fill="#271c22"/>
          </g>
          <g id="Grupo_57816" data-name="Grupo 57816" transform="translate(22.417 83.377)">
            <path id="Trazado_103151" data-name="Trazado 103151" d="M156.633,151.432v33.907h50.178V174.9c-9.991-1.051-24.331-9.206-31.122-13.382A34.6,34.6,0,0,1,156.633,151.432Z" transform="translate(-156.212 -151.014)" fill="#e6b7b1"/>
            <path id="Trazado_103152" data-name="Trazado 103152" d="M207.094,186.035H156.913a.418.418,0,0,1-.421-.418V151.71a.42.42,0,0,1,.421-.418.415.415,0,0,1,.3.128,33.993,33.993,0,0,0,18.826,9.964.417.417,0,0,1,.149.057c7.376,4.534,21.2,12.3,30.946,13.319a.418.418,0,0,1,.376.415v10.439a.419.419,0,0,1-.415.421Zm-49.76-.836h49.342v-9.645c-9.853-1.188-23.5-8.833-30.856-13.355a34.838,34.838,0,0,1-18.489-9.471Z" transform="translate(-156.492 -151.292)" fill="#271c22"/>
          </g>
          <path id="Trazado_103153" data-name="Trazado 103153" d="M169.05,162.045a35.259,35.259,0,0,1-6.033-.522c6.788,4.17,21.131,12.328,31.125,13.379V151.433A34.741,34.741,0,0,1,169.05,162.045Z" transform="translate(-121.122 -67.635)" fill="#271c22"/>
          <g id="Grupo_57818" data-name="Grupo 57818" transform="translate(13.018)">
            <g id="Grupo_57817" data-name="Grupo 57817" transform="translate(0 2.843)">
              <path id="Trazado_103154" data-name="Trazado 103154" d="M189.006,124.453c-2.09,14.573-16.292,26.662-35.5,29.826-.006.23-.018.46-.018.693v26.847a33.271,33.271,0,0,0,9.4,23.167,34.64,34.64,0,0,0,19.053,10.089,35.513,35.513,0,0,0,6.033.525,34.723,34.723,0,0,0,25.089-10.618,33.28,33.28,0,0,0,9.406-23.164V154.972c0-.355-.018-.7-.027-1.063C204.277,150.249,191.018,138.5,189.006,124.453Z" transform="translate(-153.063 -124.034)" fill="#e6b7b1"/>
              <path id="Trazado_103155" data-name="Trazado 103155" d="M188.253,216.3a35.8,35.8,0,0,1-6.1-.534,34.82,34.82,0,0,1-19.286-10.209,33.71,33.71,0,0,1-9.519-23.459V155.251c0-.143.006-.29.012-.433l.006-.269a.418.418,0,0,1,.352-.4c18.946-3.122,33.077-14.967,35.154-29.474a.419.419,0,0,1,.83,0c1.979,13.815,15.283,25.513,33.1,29.113a.411.411,0,0,1,.334.4l.009.272c.009.266.018.534.018.8V182.1a33.7,33.7,0,0,1-9.513,23.453A34.92,34.92,0,0,1,188.253,216.3Zm-34.062-61.387c0,.113-.009.224-.009.337V182.1a32.876,32.876,0,0,0,9.283,22.877,34,34,0,0,0,18.826,9.967,35.031,35.031,0,0,0,5.961.519,34.092,34.092,0,0,0,24.785-10.486,32.849,32.849,0,0,0,9.283-22.877V155.251c0-.239-.006-.478-.015-.713-17.047-3.546-29.984-14.424-33.023-27.525C186.127,140.776,172.363,151.815,154.191,154.913Z" transform="translate(-153.343 -124.313)" fill="#271c22"/>
            </g>
            <path id="Trazado_103156" data-name="Trazado 103156" d="M165.038,123.36" transform="translate(-130.128 -123.36)" fill="#e6b7b1"/>
          </g>
        </g>
        <g id="Grupo_57822" data-name="Grupo 57822" transform="translate(6.474 91.449)">
          <path id="Trazado_103157" data-name="Trazado 103157" d="M171.369,149.648a.418.418,0,0,1-.418-.412c0-.218-.182-5.325-8.6-5.737a.42.42,0,0,1-.4-.442.405.405,0,0,1,.418-.4h.021c9.239.451,9.4,6.507,9.4,6.567a.417.417,0,0,1-.412.421h-.006Z" transform="translate(-129.712 -112.569)" fill="#271c22"/>
          <path id="Trazado_103158" data-name="Trazado 103158" d="M164.41,139.474a2.658,2.658,0,1,1-2.657-2.66,2.655,2.655,0,0,1,2.657,2.66Z" transform="translate(-135.383 -124.173)" fill="#271c22"/>
          <path id="Trazado_103159" data-name="Trazado 103159" d="M175.06,139.474a2.66,2.66,0,1,1-2.66-2.66,2.657,2.657,0,0,1,2.66,2.66Z" transform="translate(-114.249 -124.173)" fill="#271c22"/>
          <path id="Trazado_103160" data-name="Trazado 103160" d="M151.919,145.861a.42.42,0,0,1-.421-.421.425.425,0,0,1,.152-.319l2.427-2.015-2.752-1.985a.419.419,0,0,1,.49-.681l2.752,1.97a.849.849,0,0,1,.194,1.182.824.824,0,0,1-.146.158l-2.427,2.012A.4.4,0,0,1,151.919,145.861Z" transform="translate(-151.151 -117.134)" fill="#271c22"/>
          <path id="Trazado_103161" data-name="Trazado 103161" d="M180.8,145.861a.426.426,0,0,1-.269-.1L178.1,143.75a.848.848,0,0,1-.11-1.194.9.9,0,0,1,.155-.146l2.752-1.97a.42.42,0,1,1,.493.681l-2.752,1.973,2.427,2.027a.423.423,0,0,1,.054.591.419.419,0,0,1-.322.149Z" transform="translate(-98.259 -117.134)" fill="#271c22"/>
          <g id="Grupo_57820" data-name="Grupo 57820" transform="translate(20.138)">
            <path id="Trazado_103162" data-name="Trazado 103162" d="M159.44,132.593a7.309,7.309,0,0,1,2.737,1.352c.9.606,1.827,1.191,2.645,1.672s1.782,1.006,2.749,1.5a7.316,7.316,0,0,1,2.51,1.734c.528.71.313,1.731-1.137,2.29-1.382.561-4.081.466-6.8-1.122s-4.069-3.9-4.221-5.358C157.739,133.143,158.551,132.471,159.44,132.593Z" transform="translate(-157.897 -132.579)" fill="#271c22"/>
          </g>
          <g id="Grupo_57821" data-name="Grupo 57821" transform="translate(52.231 0.109)">
            <path id="Trazado_103163" data-name="Trazado 103163" d="M180,132.619a7.36,7.36,0,0,0-2.824,1.161c-.943.543-1.9,1.063-2.752,1.49s-1.845.881-2.845,1.31a7.312,7.312,0,0,0-2.618,1.552c-.573.675-.43,1.707.976,2.364,1.343.654,4.045.743,6.863-.657s4.325-3.609,4.576-5.06C181.659,133.282,180.895,132.557,180,132.619Z" transform="translate(-168.648 -132.616)" fill="#271c22"/>
          </g>
          <path id="Trazado_103164" data-name="Trazado 103164" d="M164.565,154.247a.418.418,0,0,1-.018-.836l2.292-.1a5.908,5.908,0,0,0,5.654-6.134,1.541,1.541,0,0,0-1.6-1.472,4.324,4.324,0,0,1-4.5-4.146l-.23-5.651a.415.415,0,0,1,.4-.436h0a.408.408,0,0,1,.436.382v.018l.23,5.654a3.494,3.494,0,0,0,3.63,3.343,2.371,2.371,0,0,1,2.466,2.272,6.743,6.743,0,0,1-6.46,7.009l-2.289.093Z" transform="translate(-125.341 -126.828)" fill="#271c22"/>
        </g>
        <g id="Grupo_57823" data-name="Grupo 57823" transform="translate(20.047 173.078)">
          <path id="Trazado_103165" data-name="Trazado 103165" d="M209.368,160.168a58.784,58.784,0,0,1-52.136,0,.962.962,0,0,0-1.289.424.942.942,0,0,0-.1.43v6.466a.968.968,0,0,0,.522.863,58.778,58.778,0,0,0,53.879,0,.971.971,0,0,0,.525-.863v-6.466a.962.962,0,0,0-.964-.955A.991.991,0,0,0,209.368,160.168Z" transform="translate(-155.42 -159.647)" fill="#f44c5d"/>
          <path id="Trazado_103166" data-name="Trazado 103166" d="M183.578,175.572A59.2,59.2,0,0,1,156.447,169a1.383,1.383,0,0,1-.749-1.236V161.3a1.357,1.357,0,0,1,.645-1.164,1.388,1.388,0,0,1,1.355-.063,58.7,58.7,0,0,0,51.76,0,1.374,1.374,0,0,1,1.352.063,1.353,1.353,0,0,1,.648,1.164v6.466a1.383,1.383,0,0,1-.749,1.236A59.238,59.238,0,0,1,183.578,175.572Zm-26.5-14.809a.55.55,0,0,0-.29.081.529.529,0,0,0-.251.457v6.463a.565.565,0,0,0,.3.493,58.474,58.474,0,0,0,53.5,0,.556.556,0,0,0,.3-.493V161.3a.524.524,0,0,0-.251-.454.553.553,0,0,0-.54-.024h0a59.539,59.539,0,0,1-52.506,0,.586.586,0,0,0-.254-.06Zm52.572-.316" transform="translate(-155.698 -159.925)" fill="#271c22"/>
        </g>
        <g id="Grupo_57824" data-name="Grupo 57824" transform="translate(24.268 174.482)">
          <line id="Línea_162" data-name="Línea 162" y2="8.351" transform="translate(0.418 0.421)" fill="none"/>
          <path id="Trazado_103167" data-name="Trazado 103167" d="M157.53,169.587a.419.419,0,0,1-.418-.418v-8.352a.418.418,0,1,1,.836,0v8.349a.416.416,0,0,1-.418.421Z" transform="translate(-157.112 -160.396)" fill="#271c22"/>
        </g>
        <g id="Grupo_57825" data-name="Grupo 57825" transform="translate(31.641 177.038)">
          <line id="Línea_163" data-name="Línea 163" y2="8.351" transform="translate(0.417 0.419)" fill="none"/>
          <path id="Trazado_103168" data-name="Trazado 103168" d="M160,170.443a.418.418,0,0,1-.418-.421V161.67a.418.418,0,1,1,.836,0v8.352A.42.42,0,0,1,160,170.443Z" transform="translate(-159.582 -161.252)" fill="#271c22"/>
        </g>
        <g id="Grupo_57826" data-name="Grupo 57826" transform="translate(39.011 178.951)">
          <line id="Línea_164" data-name="Línea 164" y2="8.351" transform="translate(0.42 0.421)" fill="none"/>
          <path id="Trazado_103169" data-name="Trazado 103169" d="M162.472,171.084a.42.42,0,0,1-.421-.418v-8.352a.419.419,0,1,1,.839,0v8.352A.419.419,0,0,1,162.472,171.084Z" transform="translate(-162.051 -161.893)" fill="#271c22"/>
        </g>
        <g id="Grupo_57827" data-name="Grupo 57827" transform="translate(69.858 175.079)">
          <line id="Línea_165" data-name="Línea 165" y2="8.351" transform="translate(0.419 0.42)" fill="none"/>
          <path id="Trazado_103170" data-name="Trazado 103170" d="M172.8,169.787a.422.422,0,0,1-.418-.421v-8.349a.419.419,0,1,1,.839,0v8.349a.42.42,0,0,1-.421.421Z" transform="translate(-172.385 -160.596)" fill="#271c22"/>
        </g>
        <g id="Grupo_57828" data-name="Grupo 57828" transform="translate(62.485 177.632)">
          <line id="Línea_166" data-name="Línea 166" y2="8.351" transform="translate(0.419 0.421)" fill="none"/>
          <path id="Trazado_103171" data-name="Trazado 103171" d="M170.333,170.642a.419.419,0,0,1-.418-.418v-8.352a.419.419,0,1,1,.839,0v8.352a.419.419,0,0,1-.418.418Z" transform="translate(-169.915 -161.451)" fill="#271c22"/>
        </g>
        <g id="Grupo_57829" data-name="Grupo 57829" transform="translate(55.112 178.954)">
          <line id="Línea_167" data-name="Línea 167" y2="8.058" transform="translate(0.419 0.418)" fill="none"/>
          <path id="Trazado_103172" data-name="Trazado 103172" d="M167.863,170.789a.42.42,0,0,1-.418-.421v-8.057a.419.419,0,0,1,.839,0v8.057a.42.42,0,0,1-.418.421Z" transform="translate(-167.445 -161.894)" fill="#271c22"/>
        </g>
        <g id="Grupo_57830" data-name="Grupo 57830" transform="translate(47.509 179.548)">
          <line id="Línea_168" data-name="Línea 168" y2="8.351" transform="translate(0.419 0.419)" fill="none"/>
          <path id="Trazado_103173" data-name="Trazado 103173" d="M165.316,171.281a.417.417,0,0,1-.418-.418v-8.352a.419.419,0,0,1,.839,0v8.352a.419.419,0,0,1-.418.418Z" transform="translate(-164.898 -162.093)" fill="#271c22"/>
        </g>
      </g>
      <path id="Trazado_109480" data-name="Trazado 109480" d="M230.832,222.239l-22.408-46.674-6.185,61.276A209.728,209.728,0,0,0,230.832,222.239Z" transform="translate(50.388 44.197)" fill="#271c22"/>
      <path id="Trazado_109481" data-name="Trazado 109481" d="M150.365,239.853l-9.7-64.288-23.059,48.029.869,1.17A219.731,219.731,0,0,0,150.365,239.853Z" transform="translate(-117.607 44.197)" fill="#271c22"/>
    </g>
    <g id="Grupo_57842" data-name="Grupo 57842" transform="translate(329.239 99.287)">
      <g id="Grupo_57833" data-name="Grupo 57833" transform="translate(17.436 41.879)">
        <path id="Trazado_103176" data-name="Trazado 103176" d="M191.6,124.3c-7.707,7.767-12.28,15.734-10.209,17.788s10-2.579,17.707-10.349S211.372,116,209.3,113.949,199.3,116.531,191.6,124.3Z" transform="translate(-180.456 -113.028)" fill="#271c22"/>
        <path id="Trazado_103177" data-name="Trazado 103177" d="M183.126,143.3a2.384,2.384,0,0,1-1.746-.624c-2.627-2.609,3.3-11.415,10.209-18.382s15.671-12.961,18.3-10.355-3.3,11.418-10.2,18.382C193.9,138.15,186.825,143.3,183.126,143.3Zm25.056-29.128c-2.77,0-9.158,3.818-16,10.71-8.051,8.119-11.844,15.579-10.212,17.2s9.063-2.233,17.113-10.349,11.841-15.579,10.212-17.2A1.52,1.52,0,0,0,208.182,114.171Z" transform="translate(-180.744 -113.317)" fill="#271c22"/>
      </g>
      <g id="Grupo_57834" data-name="Grupo 57834" transform="translate(17.675 42.16)">
        <path id="Trazado_103178" data-name="Trazado 103178" d="M181.056,141.765l98.374,97.574,27.913-28.14-98.374-97.574-4.251,5.77a26.776,26.776,0,0,1-6.543,6.286h0a17.258,17.258,0,0,0-5.543,6.161h0a18.871,18.871,0,0,1-7.358,7.543Z" transform="translate(-180.364 -112.986)" fill="#f0eee1"/>
        <path id="Trazado_103179" data-name="Trazado 103179" d="M279.891,240.355l-.3-.293L180.824,142.1l4.692-2.651a18.438,18.438,0,0,0,7.2-7.376,17.732,17.732,0,0,1,5.674-6.31,26.286,26.286,0,0,0,6.445-6.188l4.543-6.161,99.016,98.207-.3.3Zm-97.684-98.073,97.678,96.887,27.325-27.546L209.48,114.689l-3.967,5.379a27.252,27.252,0,0,1-6.648,6.388,16.872,16.872,0,0,0-5.409,6.009,19.254,19.254,0,0,1-7.522,7.71Z" transform="translate(-180.824 -113.411)" fill="#271c22"/>
      </g>
      <g id="Grupo_57835" data-name="Grupo 57835" transform="translate(50.671 74.831)">
        <path id="Trazado_103180" data-name="Trazado 103180" d="M192.076,152.7l68.076,67.524a8.6,8.6,0,0,0,12.17-.048h0l15.788-15.919a8.609,8.609,0,0,0-.048-12.176l-68.076-67.524-14.334,14.453Z" transform="translate(-191.485 -123.963)" fill="#fe851b"/>
        <path id="Trazado_103181" data-name="Trazado 103181" d="M266.6,223.524a8.986,8.986,0,0,1-6.355-2.612l-68.372-67.819,28.5-28.737.3.293,68.076,67.524a9.042,9.042,0,0,1,.051,12.767l-15.791,15.919A8.988,8.988,0,0,1,266.6,223.524ZM193.06,153.087l67.778,67.228a8.2,8.2,0,0,0,11.582-.048l15.788-15.916a8.2,8.2,0,0,0-.045-11.582l-67.778-67.228Z" transform="translate(-191.878 -124.356)" fill="#271c22"/>
      </g>
      <g id="Grupo_57841" data-name="Grupo 57841">
        <g id="Grupo_57836" data-name="Grupo 57836" transform="translate(12.508 42.377)">
          <path id="Trazado_103182" data-name="Trazado 103182" d="M180.693,116.482c-.307,1.507-.836,2.672-1.182,2.6s-.373-1.349-.066-2.857.836-2.672,1.179-2.6S181,114.977,180.693,116.482Z" transform="translate(-178.815 -113.203)" fill="#161541"/>
          <path id="Trazado_103183" data-name="Trazado 103183" d="M179.827,119.789a.6.6,0,0,1-.122-.015c-.525-.1-.6-.785-.612-1.29a10.933,10.933,0,0,1,.824-4.042c.209-.457.543-1.057,1.069-.946.934.194.588,2.409.394,3.355a9.419,9.419,0,0,1-.606,1.979C180.582,119.249,180.284,119.789,179.827,119.789Zm.928-5.158a9.79,9.79,0,0,0-.818,4.006A9.685,9.685,0,0,0,180.756,114.631Z" transform="translate(-179.093 -113.484)" fill="#271c22"/>
        </g>
        <g id="Grupo_57837" data-name="Grupo 57837" transform="translate(16.242 14.769)">
          <path id="Trazado_103184" data-name="Trazado 103184" d="M181.946,107.234c-.307,1.507-.836,2.672-1.182,2.6s-.373-1.349-.066-2.857.836-2.672,1.182-2.6S182.254,105.729,181.946,107.234Z" transform="translate(-180.063 -103.953)" fill="#161541"/>
          <path id="Trazado_103185" data-name="Trazado 103185" d="M181.084,110.54a.541.541,0,0,1-.119-.012c-.934-.188-.588-2.406-.4-3.352a9.723,9.723,0,0,1,.606-1.979c.209-.457.537-1.057,1.072-.949s.6.788.612,1.29a9.761,9.761,0,0,1-.221,2.063h0a9.441,9.441,0,0,1-.606,1.982C181.842,110,181.541,110.54,181.084,110.54Zm.928-5.149a9.78,9.78,0,0,0-.818,4.006,8.05,8.05,0,0,0,.621-1.964h0a8.113,8.113,0,0,0,.2-2.045Z" transform="translate(-180.344 -104.235)" fill="#271c22"/>
        </g>
        <g id="Grupo_57838" data-name="Grupo 57838">
          <path id="Trazado_103186" data-name="Trazado 103186" d="M176.367,100.805c-.224.636-.672,1.057-1,.943s-.421-.725-.2-1.361.669-1.057,1-.943S176.588,100.17,176.367,100.805Z" transform="translate(-174.626 -99.011)" fill="#161541"/>
          <path id="Trazado_103187" data-name="Trazado 103187" d="M175.754,102.463a.8.8,0,0,1-.251-.042.956.956,0,0,1-.585-.818,2.347,2.347,0,0,1,.125-1.075c.307-.884.973-1.4,1.537-1.2s.764,1.012.46,1.892a2,2,0,0,1-.9,1.146A.922.922,0,0,1,175.754,102.463Zm.528-2.358a1.569,1.569,0,0,0-.445.7,1.085,1.085,0,0,0-.036.842,1.587,1.587,0,0,0,.445-.7h0a1.071,1.071,0,0,0,.036-.842Z" transform="translate(-174.903 -99.287)" fill="#271c22"/>
        </g>
        <g id="Grupo_57839" data-name="Grupo 57839" transform="translate(33.217 31.262)">
          <path id="Trazado_103188" data-name="Trazado 103188" d="M187.494,111.278c-.224.636-.672,1.057-1,.94s-.421-.722-.2-1.361.669-1.057,1-.94S187.714,110.639,187.494,111.278Z" transform="translate(-185.755 -109.487)" fill="#161541"/>
          <path id="Trazado_103189" data-name="Trazado 103189" d="M186.879,112.93a.822.822,0,0,1-.254-.042.958.958,0,0,1-.582-.818,2.5,2.5,0,0,1,.7-2,.949.949,0,0,1,.964-.278c.57.2.767,1.012.46,1.9h0a2.3,2.3,0,0,1-.567.919A1.067,1.067,0,0,1,186.879,112.93Zm.525-2.355a1.581,1.581,0,0,0-.442.7,1.065,1.065,0,0,0-.036.839,1.588,1.588,0,0,0,.445-.7A1.064,1.064,0,0,0,187.4,110.575Z" transform="translate(-186.031 -109.76)" fill="#271c22"/>
        </g>
        <g id="Grupo_57840" data-name="Grupo 57840" transform="translate(9.93 68.032)">
          <path id="Trazado_103190" data-name="Trazado 103190" d="M179.695,123.6c-.224.636-.672,1.057-1,.943s-.421-.725-.2-1.361.672-1.06,1-.943S179.915,122.966,179.695,123.6Z" transform="translate(-177.949 -121.8)" fill="#161541"/>
          <path id="Trazado_103191" data-name="Trazado 103191" d="M179.085,125.256a.807.807,0,0,1-.254-.042.836.836,0,0,1-.472-.442,1.987,1.987,0,0,1,.015-1.454c.307-.881.961-1.394,1.534-1.2a.956.956,0,0,1,.585.818,2.348,2.348,0,0,1-.125,1.075h0a2.34,2.34,0,0,1-.57.919A1.08,1.08,0,0,1,179.085,125.256Zm.528-2.358a1.536,1.536,0,0,0-.445.7,1.072,1.072,0,0,0-.039.842,1.629,1.629,0,0,0,.448-.7,1.085,1.085,0,0,0,.036-.842Z" transform="translate(-178.229 -122.078)" fill="#271c22"/>
        </g>
      </g>
    </g>
    <path id="Trazado_103192" data-name="Trazado 103192" d="M209.256,136.159" transform="translate(222.528 73.191)" fill="#e6b7b1" stroke="#271c22" stroke-linecap="round" stroke-linejoin="round" stroke-width="0.274"/>
    <path id="Trazado_103193" data-name="Trazado 103193" d="M204.231,137.489" transform="translate(212.553 75.831)" fill="#e6b7b1" stroke="#271c22" stroke-linecap="round" stroke-linejoin="round" stroke-width="0.274"/>
    <g id="Grupo_57846" data-name="Grupo 57846" transform="translate(375.038 164.446)">
      <path id="Trazado_109482" data-name="Trazado 109482" d="M213.823,206.843,240.2,337.965c28.695-14.573,50.563-33.943,62.282-56.085-10.683-35.366-25.083-72.18-29.531-82.2l2.642-23.423a95.669,95.669,0,0,0-.042-17.125c-.337-4.922-1.075-10.176-4.448-14.027-3.639-3.092-11.845-16.985-11.845-16.985a3.319,3.319,0,0,0-5.063-1.194,7.728,7.728,0,0,0-2.454,5.818l.027.2c-4.346-4.907-8.212-9.722-8.212-9.722-1.767-2.313-4.949-2.636-6.585-.666a9.89,9.89,0,0,0-1.746,8.8c-2.836-3.089-4.889-5.469-4.889-5.469-.1-.119-.206-.236-.316-.346a5.023,5.023,0,0,0-7.1.042,10.137,10.137,0,0,0-.015,13.991l4.669,5.089c7.54,7.06,9.639,15.868,7.164,24a12.8,12.8,0,0,1-13.955,8.594,26.576,26.576,0,0,1-14.477-7.367l-12.343-12.242-3.086,12.7a18.454,18.454,0,0,0,4.675,17.038Z" transform="translate(-189.969 -120.835)" fill="#e6b7b1"/>
      <path id="Trazado_103196" data-name="Trazado 103196" d="M205.467,124.536" transform="translate(-160.032 -114.327)" fill="#e6b7b1" stroke="#271c22" stroke-linecap="round" stroke-linejoin="round" stroke-width="0.274"/>
      <g id="Grupo_57844" data-name="Grupo 57844" transform="translate(61.263 11.552)">
        <path id="Trazado_103197" data-name="Trazado 103197" d="M210.914,125.131c3.642,4.116,7.642,8.322,10.006,9.833h0a20.35,20.35,0,0,1,7.083,14.2" transform="translate(-210.482 -124.697)" fill="#e6b7b1"/>
        <path id="Trazado_103198" data-name="Trazado 103198" d="M228.288,149.87a.42.42,0,0,1-.418-.4,19.829,19.829,0,0,0-6.937-13.9c-1.976-1.257-5.373-4.591-10.044-9.871a.419.419,0,1,1,.6-.585l.027.03c4.555,5.152,7.985,8.525,9.916,9.758a20.673,20.673,0,0,1,7.277,14.531.42.42,0,0,1-.4.439Z" transform="translate(-210.769 -124.986)" fill="#271c22"/>
      </g>
      <g id="Grupo_57845" data-name="Grupo 57845" transform="translate(44.92 10.073)">
        <path id="Trazado_103199" data-name="Trazado 103199" d="M205.432,124.626s8.63,10.331,14.25,13.4h0a17.6,17.6,0,0,1,7.069,14.113l-.11,9.5" transform="translate(-205.021 -124.221)" fill="#e6b7b1"/>
        <path id="Trazado_103200" data-name="Trazado 103200" d="M226.914,162.337h0a.42.42,0,0,1-.415-.424h0l.107-9.507a17.09,17.09,0,0,0-6.9-13.776c-5.57-3.036-13.961-13.039-14.316-13.465a.419.419,0,0,1,.642-.537c.084.1,8.645,10.3,14.131,13.3a17.937,17.937,0,0,1,7.286,14.483l-.107,9.507A.421.421,0,0,1,226.914,162.337Z" transform="translate(-205.294 -124.49)" fill="#271c22"/>
      </g>
      <path id="Trazado_103201" data-name="Trazado 103201" d="M217.426,129.245" transform="translate(-136.293 -104.979)" fill="#e6b7b1" stroke="#271c22" stroke-linecap="round" stroke-linejoin="round" stroke-width="0.274"/>
      <path id="Trazado_109483" data-name="Trazado 109483" d="M213.712,207.324l26.379,131.12c.26-.131.513-.263.773-.4L214.515,207.052a.375.375,0,0,0-.107-.2l-18.268-19.462a18.09,18.09,0,0,1-4.573-16.656l2.91-11.976,11.818,11.719A26.812,26.812,0,0,0,221,177.957a13.161,13.161,0,0,0,14.421-8.889c2.651-8.713,0-17.621-7.257-24.408l-4.669-5.086a9.772,9.772,0,0,1,.012-13.424,4.491,4.491,0,0,1,3.415-1.355,4.545,4.545,0,0,1,3.376,1.645c.021.024,2.089,2.421,4.9,5.477a.413.413,0,0,0,.412.125.42.42,0,0,0,.3-.51,9.4,9.4,0,0,1,1.663-8.427,3.164,3.164,0,0,1,2.579-1.143,4.423,4.423,0,0,1,3.352,1.8c.039.048,3.922,4.88,8.227,9.74a.419.419,0,0,0,.728-.334l-.024-.143a7.354,7.354,0,0,1,2.316-5.507,2.47,2.47,0,0,1,2.113-.6,3.324,3.324,0,0,1,2.3,1.7c.337.57,8.286,13.988,11.889,17.044,3.245,3.7,4.006,8.812,4.346,13.782a95.614,95.614,0,0,1,.042,17.05l-2.639,23.423a.42.42,0,0,0,.033.218c4.657,10.489,19.026,47.318,29.638,82.55.188-.352.373-.7.555-1.054-10.564-34.919-24.71-71.178-29.387-81.73l2.63-23.313a95.877,95.877,0,0,0-.042-17.2c-.349-5.116-1.14-10.388-4.594-14.319-3.54-3.012-11.671-16.74-11.749-16.868a4.107,4.107,0,0,0-2.9-2.1,3.294,3.294,0,0,0-2.812.8,8.021,8.021,0,0,0-2.543,5.242c-4-4.558-7.451-8.854-7.48-8.892a5.267,5.267,0,0,0-4-2.125,3.977,3.977,0,0,0-3.239,1.442,9.965,9.965,0,0,0-2.11,7.7c-2.281-2.51-3.872-4.352-3.88-4.364a5.377,5.377,0,0,0-3.988-1.946,5.306,5.306,0,0,0-4.057,1.618,10.6,10.6,0,0,0-.018,14.564l4.689,5.11c7.036,6.588,9.6,15.179,7.051,23.576a12.312,12.312,0,0,1-13.486,8.3,25.991,25.991,0,0,1-14.25-7.251l-12.34-12.242a.422.422,0,0,0-.409-.108.428.428,0,0,0-.3.3l-3.087,12.7a18.926,18.926,0,0,0,4.779,17.426Z" transform="translate(-190.246 -121.116)" fill="#271c22"/>
    </g>
    <g id="Grupo_57864" data-name="Grupo 57864" transform="translate(108.358 110.493)">
      <g id="Grupo_57857" data-name="Grupo 57857" transform="translate(14.233)">
        <g id="Grupo_57850" data-name="Grupo 57850" transform="translate(98.032 30.673)">
          <path id="Trazado_103202" data-name="Trazado 103202" d="M156.865,124.3c7.707,7.767,12.277,15.734,10.209,17.788s-10-2.579-17.707-10.349S137.089,116,139.158,113.949,149.155,116.528,156.865,124.3Z" transform="translate(-138.228 -113.029)" fill="#271c22"/>
          <path id="Trazado_103203" data-name="Trazado 103203" d="M165.94,143.287c-1.63,0-3.776-1.015-5.531-2.039a57.438,57.438,0,0,1-11.054-8.928c-6.907-6.964-12.833-15.776-10.2-18.382s11.388,3.391,18.3,10.355a57.282,57.282,0,0,1,8.839,11.122c1.436,2.5,2.842,5.794,1.367,7.257A2.354,2.354,0,0,1,165.94,143.287Zm-25.086-29.119a1.544,1.544,0,0,0-1.113.364c-1.636,1.621,2.161,9.077,10.212,17.2a56.53,56.53,0,0,0,10.88,8.794c3.075,1.8,5.4,2.379,6.233,1.552s.266-3.155-1.5-6.245a56.475,56.475,0,0,0-8.71-10.949h0c-6.836-6.9-13.227-10.716-16-10.716Z" transform="translate(-138.516 -113.317)" fill="#271c22"/>
        </g>
        <g id="Grupo_57851" data-name="Grupo 57851" transform="translate(0 30.952)">
          <path id="Trazado_103204" data-name="Trazado 103204" d="M232.156,141.765l-98.371,97.574L105.872,211.2l98.371-97.571,4.4,5.961a25.433,25.433,0,0,0,6.206,5.961l2.74,1.857a4.879,4.879,0,0,1,1.558,1.731l1.949,3.657a15.153,15.153,0,0,0,5.916,6.063Z" transform="translate(-105.281 -112.983)" fill="#f0eee1"/>
          <path id="Trazado_103205" data-name="Trazado 103205" d="M134.178,240.357l-28.5-28.737.3-.293,98.714-97.917,4.683,6.355a24.983,24.983,0,0,0,6.1,5.863l2.737,1.854a5.314,5.314,0,0,1,1.7,1.881l1.949,3.66a14.705,14.705,0,0,0,5.752,5.892l5.63,3.185-.394.391Zm-27.319-28.731,27.325,27.546,97.682-96.887-4.666-2.639a15.547,15.547,0,0,1-6.077-6.23l-1.955-3.657a4.485,4.485,0,0,0-1.424-1.585l-2.737-1.854a25.789,25.789,0,0,1-6.31-6.06l-4.107-5.57Z" transform="translate(-105.674 -113.41)" fill="#271c22"/>
        </g>
        <g id="Grupo_57856" data-name="Grupo 57856" transform="translate(102.557)">
          <g id="Grupo_57852" data-name="Grupo 57852" transform="translate(30.18)">
            <path id="Trazado_103206" data-name="Trazado 103206" d="M150.5,106.042c.307,1.507.836,2.672,1.182,2.6s.373-1.349.066-2.854-.836-2.672-1.179-2.6S150.189,104.534,150.5,106.042Z" transform="translate(-149.859 -102.761)" fill="#161541"/>
            <path id="Trazado_103207" data-name="Trazado 103207" d="M151.922,109.345c-.457,0-.755-.537-.946-.958a9.414,9.414,0,0,1-.606-1.979h0c-.194-.946-.543-3.161.391-3.355s1.484,1.985,1.675,2.928.54,3.161-.391,3.352A.585.585,0,0,1,151.922,109.345Zm-.928-5.152a8.114,8.114,0,0,0,.2,2.045h0a8.131,8.131,0,0,0,.621,1.964,9.7,9.7,0,0,0-.818-4.009Z" transform="translate(-150.142 -103.041)" fill="#271c22"/>
          </g>
          <g id="Grupo_57853" data-name="Grupo 57853" transform="translate(0 7.546)">
            <path id="Trazado_103208" data-name="Trazado 103208" d="M140.293,107.09c.221.636.672,1.057,1,.94s.421-.725.2-1.358-.672-1.06-1-.943S140.072,106.451,140.293,107.09Z" transform="translate(-139.753 -105.29)" fill="#161541"/>
            <path id="Trazado_103209" data-name="Trazado 103209" d="M141.46,108.748c-.5,0-1.021-.49-1.287-1.242h0c-.3-.881-.107-1.7.46-1.9s1.227.319,1.534,1.2.11,1.7-.457,1.893A.789.789,0,0,1,141.46,108.748Zm-.49-1.516c.158.46.415.669.49.678a1.6,1.6,0,0,0-.081-.821c-.164-.46-.415-.672-.5-.681a1.616,1.616,0,0,0,.081.824Z" transform="translate(-140.031 -105.569)" fill="#271c22"/>
          </g>
          <g id="Grupo_57854" data-name="Grupo 57854" transform="translate(21.059 22.8)">
            <path id="Trazado_103210" data-name="Trazado 103210" d="M147.348,112.2c.221.636.669,1.057,1,.943s.421-.725.2-1.361-.672-1.06-1-.943S147.127,111.569,147.348,112.2Z" transform="translate(-146.808 -110.396)" fill="#161541"/>
            <path id="Trazado_103211" data-name="Trazado 103211" d="M148.512,113.867a1.074,1.074,0,0,1-.716-.325,2.313,2.313,0,0,1-.567-.919h0a2.308,2.308,0,0,1-.125-1.075.871.871,0,0,1,1.552-.54,2.5,2.5,0,0,1,.693,2,.953.953,0,0,1-.582.818A.905.905,0,0,1,148.512,113.867Zm-.49-1.519a1.116,1.116,0,0,0,.49.681,1.612,1.612,0,0,0-.081-.824c-.164-.46-.415-.669-.5-.681a1.581,1.581,0,0,0,.081.824Z" transform="translate(-147.086 -110.679)" fill="#271c22"/>
          </g>
          <g id="Grupo_57855" data-name="Grupo 57855" transform="translate(33.78 50.522)">
            <path id="Trazado_103212" data-name="Trazado 103212" d="M151.609,121.488c.221.636.669,1.057,1,.943s.421-.725.2-1.361-.669-1.057-1-.943S151.385,120.853,151.609,121.488Z" transform="translate(-151.074 -119.683)" fill="#161541"/>
            <path id="Trazado_103213" data-name="Trazado 103213" d="M152.772,123.151a1.051,1.051,0,0,1-.716-.322,2.492,2.492,0,0,1-.7-1.994.871.871,0,0,1,1.552-.54,2.5,2.5,0,0,1,.7,1.994.952.952,0,0,1-.585.818A.729.729,0,0,1,152.772,123.151Zm-.579-2.34a1.614,1.614,0,0,0,.084.824c.161.46.412.669.49.681a1.583,1.583,0,0,0-.084-.824c-.155-.46-.409-.669-.49-.678Z" transform="translate(-151.348 -119.966)" fill="#271c22"/>
          </g>
        </g>
      </g>
      <path id="Trazado_109484" data-name="Trazado 109484" d="M131.552,199.676c-4.591,10.346-19.785,49.235-30.549,85.613,12.406,21.247,34.247,39.775,62.467,53.721l27.208-132.167,18.271-19.462a18.454,18.454,0,0,0,4.675-17.038l-3.089-12.7-12.34,12.242a26.555,26.555,0,0,1-14.477,7.367,12.8,12.8,0,0,1-13.955-8.6c-2.472-8.134-.376-16.943,7.164-24l4.669-5.089a10.137,10.137,0,0,0-.015-13.991,5.02,5.02,0,0,0-7.1-.039c-.11.107-.215.224-.316.343,0,0-2.051,2.379-4.889,5.469a9.881,9.881,0,0,0-1.746-8.8c-1.636-1.97-4.818-1.648-6.585.666,0,0-3.866,4.815-8.212,9.722l.027-.2a7.728,7.728,0,0,0-2.454-5.818,3.316,3.316,0,0,0-5.06,1.194S137.038,142.008,133.4,145.1c-3.373,3.851-4.11,9.1-4.445,14.027a95.119,95.119,0,0,0-.042,17.125Z" transform="translate(-100.713 -66.881)" fill="#e6b7b1"/>
      <path id="Trazado_103214" data-name="Trazado 103214" d="M120.026,136.159" transform="translate(-62.953 -37.301)" fill="#e6b7b1" stroke="#271c22" stroke-linecap="round" stroke-linejoin="round" stroke-width="0.274"/>
      <path id="Trazado_103215" data-name="Trazado 103215" d="M125.052,137.489" transform="translate(-52.976 -34.661)" fill="#e6b7b1" stroke="#271c22" stroke-linecap="round" stroke-linejoin="round" stroke-width="0.274"/>
      <path id="Trazado_103218" data-name="Trazado 103218" d="M123.816,124.536" transform="translate(-55.429 -60.373)" fill="#e6b7b1" stroke="#271c22" stroke-linecap="round" stroke-linejoin="round" stroke-width="0.274"/>
      <g id="Grupo_57859" data-name="Grupo 57859" transform="translate(34.62 65.527)">
        <path id="Trazado_103219" data-name="Trazado 103219" d="M129.732,125.131c-3.642,4.116-7.642,8.322-10.006,9.833h0a20.35,20.35,0,0,0-7.083,14.2" transform="translate(-112.228 -124.719)" fill="#e6b7b1"/>
        <path id="Trazado_103220" data-name="Trazado 103220" d="M112.919,149.855H112.9a.422.422,0,0,1-.4-.439v0a20.664,20.664,0,0,1,7.227-14.492c1.979-1.272,5.412-4.645,9.967-9.794a.423.423,0,0,1,.594-.024.418.418,0,0,1,.033.576c-4.672,5.283-8.068,8.618-10.092,9.91a19.8,19.8,0,0,0-6.889,13.865A.423.423,0,0,1,112.919,149.855Z" transform="translate(-112.504 -124.993)" fill="#271c22"/>
      </g>
      <g id="Grupo_57860" data-name="Grupo 57860" transform="translate(46.751 64.026)">
        <path id="Trazado_103221" data-name="Trazado 103221" d="M138.028,124.626s-8.63,10.331-14.25,13.4h0a17.6,17.6,0,0,0-7.069,14.113l.107,9.507" transform="translate(-116.288 -124.22)" fill="#e6b7b1"/>
        <path id="Trazado_103222" data-name="Trazado 103222" d="M117.1,162.337a.423.423,0,0,1-.421-.415l-.107-9.507a17.919,17.919,0,0,1,7.233-14.447c5.54-3.033,14.1-13.236,14.185-13.34a.42.42,0,0,1,.645.537c-.355.427-8.749,10.427-14.373,13.5a17.088,17.088,0,0,0-6.851,13.737l.107,9.51a.419.419,0,0,1-.412.424H117.1Z" transform="translate(-116.568 -124.49)" fill="#271c22"/>
      </g>
      <path id="Trazado_103223" data-name="Trazado 103223" d="M111.855,129.245" transform="translate(-79.172 -51.026)" fill="#e6b7b1" stroke="#271c22" stroke-linecap="round" stroke-linejoin="round" stroke-width="0.274"/>
      <path id="Trazado_109485" data-name="Trazado 109485" d="M131.317,199.894c-4.827,10.9-19.755,49.226-30.411,85.174.191.331.376.666.573,1,10.686-36.226,25.841-75.112,30.647-85.941a.419.419,0,0,0,.033-.218l-2.639-23.423a95.336,95.336,0,0,1,.042-17.05c.34-4.967,1.1-10.077,4.3-13.737,3.648-3.1,11.6-16.519,11.94-17.1a3.316,3.316,0,0,1,2.3-1.687,2.478,2.478,0,0,1,2.11.6,7.326,7.326,0,0,1,2.319,5.454l-.027.2a.42.42,0,0,0,.728.334c4.307-4.86,8.188-9.689,8.233-9.746a4.425,4.425,0,0,1,3.352-1.794A3.158,3.158,0,0,1,167.4,123.1a9.409,9.409,0,0,1,1.663,8.427.418.418,0,0,0,.713.385c2.809-3.057,4.881-5.454,4.907-5.489a4.546,4.546,0,0,1,3.37-1.633,4.5,4.5,0,0,1,3.415,1.355,9.768,9.768,0,0,1,.012,13.421l-4.648,5.066c-7.277,6.812-9.928,15.716-7.277,24.432a13.159,13.159,0,0,0,14.424,8.886,26.828,26.828,0,0,0,14.7-7.48L210.5,158.745l2.913,11.979a18.089,18.089,0,0,1-4.573,16.653l-18.271,19.459a.415.415,0,0,0-.1.2L163.272,339.1c.257.125.519.254.779.379l27.214-132.155,18.191-19.373a18.923,18.923,0,0,0,4.776-17.426l-3.086-12.7a.421.421,0,0,0-.7-.2L198.1,169.873a26.008,26.008,0,0,1-14.247,7.248,12.314,12.314,0,0,1-13.492-8.3c-2.555-8.4.015-16.988,7.072-23.6l4.669-5.089a10.6,10.6,0,0,0-.021-14.564,5.274,5.274,0,0,0-4.054-1.618,5.381,5.381,0,0,0-3.982,1.937c-.018.021-1.609,1.863-3.889,4.373a9.965,9.965,0,0,0-2.11-7.7,3.994,3.994,0,0,0-3.239-1.442,5.251,5.251,0,0,0-3.991,2.113c-.039.045-3.487,4.34-7.483,8.892a8.04,8.04,0,0,0-2.549-5.233,3.322,3.322,0,0,0-2.812-.8,4.108,4.108,0,0,0-2.889,2.1c-.081.14-8.212,13.865-11.8,16.922-3.4,3.889-4.2,9.158-4.549,14.274a95.337,95.337,0,0,0-.039,17.2Z" transform="translate(-100.906 -67.162)" fill="#271c22"/>
    </g>
  </g>
</svg>
