<svg xmlns="http://www.w3.org/2000/svg" width="94" height="94" viewBox="0 0 94 94">
  <g id="Grupo_58456" data-name="Grupo 58456" transform="translate(0 0)">
    <rect id="Rectángulo_5247" data-name="Rectángulo 5247" width="94" height="94" transform="translate(0 0)" fill="none"/>
    <g id="cigarette-butt" transform="translate(28.001 7.001)">
      <path id="Trazado_104703" data-name="Trazado 104703" d="M73.824,68.987a1.651,1.651,0,0,1,0-1.51l2.634-5.117a3.7,3.7,0,0,0,0-3.466l-2.634-5.117a1.65,1.65,0,0,1,0-1.51l2.254-4.379a3.426,3.426,0,0,0,.38-1.567V7.91a.411.411,0,0,0-.411-.411H63.629a.411.411,0,0,0-.411.411V46.32a3.423,3.423,0,0,1-.38,1.567l-1.751,3.4a3.785,3.785,0,0,0,0,3.466l2.634,5.117a1.65,1.65,0,0,1,0,1.51L61.088,66.5a3.786,3.786,0,0,0,0,3.466l2.634,5.118a1.649,1.649,0,0,1,0,1.51l-1.967,3.822a.89.89,0,0,0,.791,1.3H73.785a.889.889,0,0,0,.79-.482l1.883-3.658a3.7,3.7,0,0,0,0-3.466Zm0,0" transform="translate(-51.131 -6.32)" fill="#cfd8dc"/>
      <path id="Trazado_104704" data-name="Trazado 104704" d="M79.116,68.987a1.651,1.651,0,0,1,0-1.51L81.75,62.36a3.7,3.7,0,0,0,0-3.466l-2.634-5.117a1.65,1.65,0,0,1,0-1.51l2.254-4.379a3.426,3.426,0,0,0,.38-1.567V7.91a.411.411,0,0,0-.411-.411H75.461V43.176a3.426,3.426,0,0,1-.38,1.567l-2.254,4.379a1.65,1.65,0,0,0,0,1.51l2.634,5.117a3.7,3.7,0,0,1,0,3.466l-2.634,5.117a1.651,1.651,0,0,0,0,1.51l2.634,5.118a3.7,3.7,0,0,1,0,3.466l-.313.608a6.511,6.511,0,0,1-5.79,3.532H68l-.951,1.848a.889.889,0,0,0,.79,1.3H79.077a.89.89,0,0,0,.791-.482L81.75,77.57a3.7,3.7,0,0,0,0-3.466Zm0,0" transform="translate(-56.423 -6.32)" fill="#90a4ae"/>
      <path id="Trazado_104705" data-name="Trazado 104705" d="M89.715,7.5H77.3a.411.411,0,0,0-.411.411V37.429h13.24V7.911a.411.411,0,0,0-.411-.411Zm0,0" transform="translate(-64.799 -6.321)" fill="#ffa726"/>
      <path id="Trazado_104706" data-name="Trazado 104706" d="M126.971,7.5h-5.878V37.429h6.289V7.911a.411.411,0,0,0-.411-.411Zm0,0" transform="translate(-102.055 -6.321)" fill="#f57c00"/>
      <path id="Trazado_104707" data-name="Trazado 104707" d="M76.887,158.43h13.24v6.2H76.887Zm0,0" transform="translate(-64.799 -133.521)" fill="#78909c"/>
      <path id="Trazado_104708" data-name="Trazado 104708" d="M121.094,158.43h6.289v6.2h-6.289Zm0,0" transform="translate(-102.056 -133.521)" fill="#455a64"/>
      <path id="Trazado_104709" data-name="Trazado 104709" d="M36.429,440.859a5.86,5.86,0,0,0-1.787.278,1.235,1.235,0,0,1-1.3-.378c-.557-.639-1.154-1.281-1.769-1.9l-1.778,3.453a.888.888,0,0,1-.79.483H17.763a.89.89,0,0,1-.791-1.3l1.967-3.822a1.649,1.649,0,0,0,0-1.51l-.114-.221a40.451,40.451,0,0,0-6.418,6.589,1.606,1.606,0,0,1-1.3.62H11.1a3.571,3.571,0,0,0-3.571,3.571H42.29a5.861,5.861,0,0,0-5.861-5.862Zm0,0" transform="translate(-6.348 -367.4)" fill="#8d6e63"/>
      <path id="Trazado_104710" data-name="Trazado 104710" d="M183.538,434.179A1.179,1.179,0,1,1,182.359,433,1.18,1.18,0,0,1,183.538,434.179Zm0,0" transform="translate(-152.695 -364.921)"/>
      <path id="Trazado_104711" data-name="Trazado 104711" d="M39.21,424.534a1.179,1.179,0,1,1-1.179-1.179A1.179,1.179,0,0,1,39.21,424.534Zm0,0" transform="translate(-31.059 -356.792)"/>
      <path id="Trazado_104712" data-name="Trazado 104712" d="M15.394,438.249a1.179,1.179,0,1,1-1.179-1.179A1.179,1.179,0,0,1,15.394,438.249Zm0,0" transform="translate(-10.987 -368.351)"/>
      <path id="Trazado_104713" data-name="Trazado 104713" d="M1.183,80.5H35.942a1.18,1.18,0,0,0,1.179-1.179,7.049,7.049,0,0,0-9.187-6.707c-.059.007-.157-.2-1.3-1.4a4.83,4.83,0,0,0-.254-3.969l-2.634-5.118c-.157-.3-.193-.055,2.634-5.548a4.845,4.845,0,0,0,0-4.545l-2.634-5.117c-.156-.3-.154-.131,2.254-4.81.729-1.416.51,1.27.51-40.517A1.591,1.591,0,0,0,24.916,0H12.5a1.592,1.592,0,0,0-1.59,1.59V16.144a1.179,1.179,0,0,0,2.358,0V2.358H24.148V23.73H13.267V21.647a1.179,1.179,0,1,0-2.358,0V40c0,.725-.123.784-2,4.428a4.976,4.976,0,0,0,0,4.546c2.828,5.493,2.79,5.244,2.634,5.547L8.909,59.639a4.973,4.973,0,0,0,0,4.545L11,68.24A42,42,0,0,0,5.12,74.419a.441.441,0,0,1-.364.152C.228,74.571-1.3,80.5,1.183,80.5Zm3.576-3.571A2.768,2.768,0,0,0,7,75.843a37.553,37.553,0,0,1,3.353-3.8l-.777,1.51a2.069,2.069,0,0,0,1.839,3.016h3.6a1.179,1.179,0,1,0,0-2.358H11.89l1.749-3.4a2.834,2.834,0,0,0,0-2.59L11.005,63.1a2.612,2.612,0,0,1,0-2.387L13.639,55.6a2.836,2.836,0,0,0,0-2.589l-2.634-5.117a2.613,2.613,0,0,1,0-2.387c1.9-3.687,2.261-4.1,2.261-5.508V32.287h3.9a1.179,1.179,0,0,0,0-2.358h-3.9v-3.84H24.148v3.84H22.673a1.179,1.179,0,1,0,0,2.358h1.475c0,8.379.09,8.082-.249,8.74l-2.254,4.379a2.834,2.834,0,0,0,0,2.59l2.634,5.117a2.514,2.514,0,0,1,0,2.387l-2.634,5.117a2.837,2.837,0,0,0,0,2.59l2.634,5.118c.768,1.493.073,2.244-1.8,5.887h-1.96a1.179,1.179,0,0,0,0,2.358h2.137a2.06,2.06,0,0,0,1.839-1.122l1.017-1.976c.2.221.4.442.593.662a2.413,2.413,0,0,0,2.551.727,4.689,4.689,0,0,1,5.959,3.281H2.674a2.4,2.4,0,0,1,2.085-1.213Zm0,0"/>
    </g>
  </g>
</svg>
