<svg xmlns="http://www.w3.org/2000/svg" width="94" height="94" viewBox="0 0 94 94">
  <g id="Grupo_58382" data-name="Grupo 58382" transform="translate(0 0)">
    <rect id="Rectángulo_5249" data-name="Rectángulo 5249" width="94" height="94" transform="translate(0 0)" fill="none"/>
    <g id="tabaco" transform="translate(9.75 9.805)">
      <path id="Trazado_104574" data-name="Trazado 104574" d="M216.888,203.021l18.956-18.956-6.173-6.173L209.061,198.5Z" transform="translate(-178.641 -152.062)" fill="#e0e0e0"/>
      <path id="Trazado_104575" data-name="Trazado 104575" d="M37.942,240.143v.468a5.511,5.511,0,0,0,5.362,5.542,5.452,5.452,0,0,0,5.433-4.378l-37.248-21.5-4.365,7.561,18.591,10.734H36.364A1.578,1.578,0,0,1,37.942,240.143Z" transform="translate(-6.087 -188.275)" fill="#e0e0e0"/>
      <path id="Trazado_104576" data-name="Trazado 104576" d="M267.317,267.7a5.5,5.5,0,0,0,.047-.715v-.561a1.578,1.578,0,0,1,1.578-1.578h9.028l20.1-5.386-2.26-8.433-25.228,6.76-7.728,7.728,4,2.309Z" transform="translate(-224.609 -214.555)" fill="#e0e0e0"/>
      <path id="Trazado_104577" data-name="Trazado 104577" d="M93.008,463.526H25.95v3.852a2.11,2.11,0,0,0,2.11,2.11H90.9a2.11,2.11,0,0,0,2.11-2.11Z" transform="translate(-22.174 -396.135)" fill="#e25642"/>
      <path id="Trazado_104578" data-name="Trazado 104578" d="M49.487,347.577v.453a5.536,5.536,0,0,1-5.556,5.557,5.45,5.45,0,0,1-5.344-5.449v-.561A1.578,1.578,0,0,0,37.008,346H9.647a1.769,1.769,0,0,0-1.769,1.769v13.564A1.769,1.769,0,0,0,9.647,363.1h68.78a1.769,1.769,0,0,0,1.769-1.769V347.768A1.769,1.769,0,0,0,78.426,346H51.065A1.578,1.578,0,0,0,49.487,347.577Z" transform="translate(-6.732 -295.709)" fill="#f98473"/>
      <path id="Trazado_104579" data-name="Trazado 104579" d="M78.427,346H74.946a.571.571,0,0,0-.571.571v3.592A10.028,10.028,0,0,1,64.348,360.19H8.45a.571.571,0,0,0-.571.571v.577A1.762,1.762,0,0,0,9.641,363.1H78.427a1.768,1.768,0,0,0,1.768-1.768V347.767A1.769,1.769,0,0,0,78.427,346Z" transform="translate(-6.733 -295.709)" fill="#e25642"/>
      <rect id="Rectángulo_5528" data-name="Rectángulo 5528" width="19.886" height="8.73" transform="matrix(0.866, 0.5, -0.5, 0.866, 5.402, 31.995)" fill="#feba1b"/>
      <path id="Trazado_104580" data-name="Trazado 104580" d="M28.579,220.271l-1.455,2.52,9.957,5.749a3.348,3.348,0,0,1,1.225,4.573l-1.236,2.141,4.365,2.52,4.365-7.561Z" transform="translate(-23.177 -188.275)" fill="#fe851b"/>
      <rect id="Rectángulo_5529" data-name="Rectángulo 5529" width="19.886" height="8.73" transform="translate(57.204 32.003) rotate(135)" fill="#feba1b"/>
      <path id="Trazado_104581" data-name="Trazado 104581" d="M287.294,177.891l-2.91,2.91,1.05,1.05a3.13,3.13,0,0,1,0,4.426l-8.938,8.938,2.91,2.91,14.062-14.062Z" transform="translate(-236.263 -152.062)" fill="#fe851b"/>
      <rect id="Rectángulo_5530" data-name="Rectángulo 5530" width="19.886" height="8.73" transform="matrix(-0.966, 0.259, -0.259, -0.966, 73.465, 44.904)" fill="#feba1b"/>
      <path id="Trazado_104582" data-name="Trazado 104582" d="M383.253,251.025l-4.7,1.26.589,2.2a2.139,2.139,0,0,1-1.512,2.619l-12.44,3.333,1.117,4.17,19.209-5.147Z" transform="translate(-312.05 -214.554)" fill="#fe851b"/>
      <path id="Trazado_104583" data-name="Trazado 104583" d="M43.392,29.163A6.766,6.766,0,0,0,36.626,22.4H31.17a4.469,4.469,0,1,0,0-8.938H50.362a3.024,3.024,0,0,0,3.047-2.869A2.978,2.978,0,0,0,50.434,7.5H18.826a3.025,3.025,0,0,0-3.047,2.869,2.978,2.978,0,0,0,2.976,3.086H11.686A4.53,4.53,0,0,0,7.126,17.8,4.469,4.469,0,0,0,11.593,22.4H25.368a3.823,3.823,0,0,0-3.821,3.93,3.875,3.875,0,0,0,3.9,3.715H36.365a1.644,1.644,0,0,1,1.644,1.644V51.4l5.384-5.384V29.163Z" transform="translate(-6.088 -6.466)" fill="#afafaf"/>
      <path id="Trazado_104584" data-name="Trazado 104584" d="M71.642,49.558H61.626l12.065-3.233a1.092,1.092,0,0,0,.772-1.337l-2.256-8.42A1.092,1.092,0,0,0,70.87,35.8L60.731,38.513a1.091,1.091,0,0,0,.565,2.108l9.085-2.434L72.072,44.5,55,49.074l-1.691-6.312,3.075-.824a1.091,1.091,0,0,0-.565-2.108l-6.2,1.663,8.331-8.331a1.091,1.091,0,0,0,0-1.543l-6.164-6.164a1.092,1.092,0,0,0-1.543,0L38.4,37.3V23.1a7.856,7.856,0,0,0-7.847-7.847H29.512a5.541,5.541,0,0,0,0-6.742H44.264A4.135,4.135,0,0,0,48.4,4.591,4.062,4.062,0,0,0,44.336.379H12.776A4.075,4.075,0,0,0,9.1,6.325H5.647A5.639,5.639,0,0,0,0,11.724a5.55,5.55,0,0,0,5.552,5.709h9.67A4.87,4.87,0,0,0,14.4,20.3a4.982,4.982,0,0,0,4.986,4.771h10.9a.551.551,0,0,1,.55.55v5.44a1.091,1.091,0,1,0,2.183,0v-5.44a2.736,2.736,0,0,0-2.733-2.733h-10.9a2.785,2.785,0,0,1-2.8-2.648,2.724,2.724,0,0,1,2.725-2.8,1.091,1.091,0,0,0,0-2.183H5.554a3.369,3.369,0,0,1-3.37-3.467A3.442,3.442,0,0,1,5.647,8.508H12.7a1.091,1.091,0,0,0,0-2.183,1.881,1.881,0,0,1-1.881-1.952,1.935,1.935,0,0,1,1.952-1.812h31.56a1.881,1.881,0,0,1,1.881,1.952,1.935,1.935,0,0,1-1.952,1.812H25.1a1.091,1.091,0,0,0,0,2.183,3.371,3.371,0,0,1,0,6.742,1.091,1.091,0,0,0,0,2.183h5.448A5.671,5.671,0,0,1,36.213,23.1V39.478l-.016.016h0L33.02,42.671V36.142a1.091,1.091,0,0,0-2.183,0v8.712l-.587.587L6,31.438a1.091,1.091,0,0,0-1.491.4L.146,39.386a1.091,1.091,0,0,0,.4,1.491l15.036,8.681H2.967A2.86,2.86,0,0,0,.11,52.415V65.958A2.86,2.86,0,0,0,2.735,68.8v2.767a3.2,3.2,0,0,0,3.2,3.2H68.676a3.2,3.2,0,0,0,3.2-3.2V68.8A2.859,2.859,0,0,0,74.5,65.958V52.415A2.86,2.86,0,0,0,71.642,49.558ZM51.2,43.327l1.67,6.231H44.322a2.668,2.668,0,0,0-2.657,2.473l-1.642-.948,6.5-6.5Zm-.192-15.558L55.63,32.39l-12.5,12.5-4.621-4.621Zm-14.04,14.04L41.59,46.43l-3.524,3.524-5.859-3.383Zm4.356,12.546a4.329,4.329,0,0,1-8.371-1.57v-.56a2.67,2.67,0,0,0-2.667-2.667H19.947l-.169-.1L23.045,43.8ZM2.582,39.533l3.267-5.659L21.155,42.71l-3.267,5.659ZM72.317,65.958a.675.675,0,0,1-.675.675H63.505a1.091,1.091,0,0,0,0,2.183h6.186v2.755a1.017,1.017,0,0,1-1.015,1.015H5.933a1.016,1.016,0,0,1-1.015-1.015V68.816h53.5a1.091,1.091,0,1,0,0-2.183H2.967a.675.675,0,0,1-.675-.675V52.415a.675.675,0,0,1,.675-.675h27.32a.485.485,0,0,1,.484.484v.56a6.519,6.519,0,0,0,12.859,1.53,1.083,1.083,0,0,0,.1-.474,8.23,8.23,0,0,0,.107-1.616.485.485,0,0,1,.484-.484h27.32a.675.675,0,0,1,.675.675V65.958Z" transform="translate(0 -0.379)"/>
    </g>
  </g>
</svg>
