<svg id="Grupo_58489" data-name="Grupo 58489" xmlns="http://www.w3.org/2000/svg" width="94" height="94" viewBox="0 0 94 94">
  <rect id="Rectángulo_5248" data-name="Rectángulo 5248" width="94" height="94" fill="none"/>
  <g id="virus" transform="translate(2.497 -4.152)">
    <g id="Grupo_58493" data-name="Grupo 58493" transform="translate(1.3 9.348)">
      <path id="Trazado_104785" data-name="Trazado 104785" d="M76.98,72c.011.326.017.653.017.981q0,.655-.029,1.3a1.135,1.135,0,0,0,.814,1.142l4.292,1.254a2.816,2.816,0,0,1,3.218-2.3,2.363,2.363,0,0,1,2.4,2.817l-.747,4.691a2.816,2.816,0,0,1-5.568-.85L76.81,80.89a1.134,1.134,0,0,0-1.119.8,29.407,29.407,0,0,1-3.146,6.894,1.134,1.134,0,0,0,.163,1.407l2.64,2.614a2.764,2.764,0,0,1,3.672,4.058L77.8,98.13a2.814,2.814,0,0,1-3.862.477A2.764,2.764,0,0,1,73,95.57l-3.257-1.9a1.135,1.135,0,0,0-1.376.181,29.558,29.558,0,0,1-11.475,7.139,1.135,1.135,0,0,0-.771,1.172l.38,4.449a2.816,2.816,0,0,1,3.338,2.314,2.869,2.869,0,0,1-2.267,3.217l-4.692,1.008a2.236,2.236,0,0,1-2.817-2.276,2.816,2.816,0,0,1,2.128-3.337l-1.519-4.321a1.133,1.133,0,0,0-1.149-.754q-1.03.072-2.079.073a29.435,29.435,0,0,1-18.994-6.913,1.132,1.132,0,0,0-1.3-.109l-3.931,2.3.55.593a4.084,4.084,0,0,1-.046,5.652,4.021,4.021,0,0,1-5.788-.116l-4.141-4.471a4.084,4.084,0,0,1,.046-5.652,4.021,4.021,0,0,1,5.788.116l.615.664L22.9,90.758a1.132,1.132,0,0,0,.009-1.278,29.419,29.419,0,0,1-5.03-16.5,29.757,29.757,0,0,1,.206-3.495,1.135,1.135,0,0,0-.727-1.2l-4.185-1.569A2.816,2.816,0,0,1,9.8,68.776a2.191,2.191,0,0,1-2.229-2.817l1.115-4.717a2.869,2.869,0,0,1,3.263-2.2,2.816,2.816,0,0,1,2.245,3.385l4.548.483a1.135,1.135,0,0,0,1.176-.716,29.486,29.486,0,0,1,3.277-6.118,1.133,1.133,0,0,0-.078-1.4L20.16,51.322a2.816,2.816,0,0,1-4.059.124,2.869,2.869,0,0,1-.09-3.934l2.816-3.195a2.816,2.816,0,0,1,4.249,3.7l3.79,2.571a1.133,1.133,0,0,0,1.373-.077,29.43,29.43,0,0,1,15.848-6.9,1.133,1.133,0,0,0,1-.983l.564-4.435a2.816,2.816,0,0,1-2.777-2.963,2.869,2.869,0,0,1,2.892-2.669h4.18a2.869,2.869,0,0,1,2.892,2.669,2.816,2.816,0,0,1-2.777,2.963l.577,4.542a1.135,1.135,0,0,0,.969.98c.822.116,1.633.27,2.432.452L58.36,45.4a26.319,26.319,0,0,1,15.13,11.429A24.065,24.065,0,0,1,76.98,72Z" transform="translate(-7.492 -29.606)" fill="#f98473"/>
      <g id="Grupo_58491" data-name="Grupo 58491" transform="translate(0 2.955)">
        <path id="Trazado_104786" data-name="Trazado 104786" d="M28.927,72.724a33.708,33.708,0,0,1,21.526-31.43l-.395-3.1a2.816,2.816,0,0,0,2.777-2.963,2.869,2.869,0,0,0-2.892-2.669h-4.18a2.869,2.869,0,0,0-2.892,2.669,2.816,2.816,0,0,0,2.777,2.963l-.564,4.435a1.133,1.133,0,0,1-1,.983,29.43,29.43,0,0,0-15.848,6.9,1.133,1.133,0,0,1-1.373.077l-3.79-2.571a2.816,2.816,0,0,0-4.249-3.7l-2.816,3.195a2.869,2.869,0,0,0,.09,3.934,2.816,2.816,0,0,0,4.059-.124l2.953,3.355a1.134,1.134,0,0,1,.078,1.4,29.486,29.486,0,0,0-3.277,6.118,1.135,1.135,0,0,1-1.176.716l-4.548-.483a2.816,2.816,0,0,0-2.245-3.385,2.869,2.869,0,0,0-3.263,2.2L7.568,65.956A2.191,2.191,0,0,0,9.8,68.773a2.816,2.816,0,0,0,3.38-2.058l4.185,1.569a1.135,1.135,0,0,1,.727,1.2,29.8,29.8,0,0,0-.206,3.495,29.419,29.419,0,0,0,5.031,16.5,1.132,1.132,0,0,1-.009,1.278L20.238,94.6l-.615-.664a4.021,4.021,0,0,0-5.788-.116,4.084,4.084,0,0,0-.046,5.652l4.141,4.471a4.021,4.021,0,0,0,5.788.116,4.084,4.084,0,0,0,.046-5.652l-.55-.593,3.931-2.3a1.132,1.132,0,0,1,1.3.109,29.439,29.439,0,0,0,18.448,6.908,33.693,33.693,0,0,1-17.967-29.8Z" transform="translate(-7.492 -32.559)" fill="#ec5d49"/>
      </g>
      <g id="Grupo_58492" data-name="Grupo 58492" transform="translate(28.8 46.894)">
        <circle id="Elipse_5306" data-name="Elipse 5306" cx="6.576" cy="6.576" r="6.576" transform="translate(0 5.405)" fill="#ec5d49"/>
        <circle id="Elipse_5307" data-name="Elipse 5307" cx="3.301" cy="3.301" r="3.301" transform="translate(21.645)" fill="#ec5d49"/>
      </g>
      <path id="Trazado_104787" data-name="Trazado 104787" d="M260.041,114.393a26.318,26.318,0,0,0-15.13-11.429l-2.587-.74-7.753,12.5a8.579,8.579,0,0,0,7.29,13.1h21.786A24.071,24.071,0,0,0,260.041,114.393Z" transform="translate(-194.042 -87.166)" fill="#ec5d49"/>
      <path id="Trazado_104788" data-name="Trazado 104788" d="M291.9,52.728h-33.47a5.1,5.1,0,0,1-4.337-7.795L270.826,17.96a5.1,5.1,0,0,1,8.674,0l16.735,26.973A5.1,5.1,0,0,1,291.9,52.728Z" transform="translate(-210.61 -15.547)" fill="#e8e8e8"/>
      <path id="Trazado_104789" data-name="Trazado 104789" d="M287.5,74.872l15.158-24.432a.77.77,0,0,1,1.308,0l15.159,24.432a.769.769,0,0,1-.654,1.175H288.155A.77.77,0,0,1,287.5,74.872Z" transform="translate(-238.76 -44.078)" fill="#feba1b"/>
      <circle id="Elipse_5308" data-name="Elipse 5308" cx="10.992" cy="10.992" r="10.992" transform="translate(20.596 25.164)" fill="#e6b7b1"/>
    </g>
    <g id="Grupo_58495" data-name="Grupo 58495" transform="translate(-0.002 8.045)">
      <g id="Grupo_58494" data-name="Grupo 58494" transform="translate(0)">
        <path id="Trazado_104790" data-name="Trazado 104790" d="M216.76,238.905a1.3,1.3,0,0,0-1.69.735,9.48,9.48,0,0,1-4.229,4.809,1.3,1.3,0,1,0,1.26,2.281,12.091,12.091,0,0,0,5.394-6.135A1.3,1.3,0,0,0,216.76,238.905Z" transform="translate(-173.656 -198.724)"/>
        <path id="Trazado_104791" data-name="Trazado 104791" d="M130.587,156.967a9.432,9.432,0,0,1,6.152,2.285,1.3,1.3,0,1,0,1.7-1.975,12.039,12.039,0,1,0-8.27,21.155h.046a1.3,1.3,0,0,0,.044-2.6,9.433,9.433,0,0,1,.329-18.861Z" transform="translate(-97.951 -128.942)"/>
        <path id="Trazado_104792" data-name="Trazado 104792" d="M173.652,324.85a7.879,7.879,0,1,0-7.879-7.879A7.888,7.888,0,0,0,173.652,324.85Zm0-13.152a5.273,5.273,0,1,1-5.273,5.273A5.279,5.279,0,0,1,173.652,311.7Z" transform="translate(-136.974 -256.793)"/>
        <path id="Trazado_104793" data-name="Trazado 104793" d="M299.573,282.585a4.6,4.6,0,1,0-4.6,4.6A4.609,4.609,0,0,0,299.573,282.585Zm-6.6,0a2,2,0,1,1,2,2A2,2,0,0,1,292.972,282.585Z" transform="translate(-239.922 -231.087)"/>
        <path id="Trazado_104794" data-name="Trazado 104794" d="M291.123,38.047,274.388,11.074a6.407,6.407,0,0,0-10.889,0L259.39,17.7a1.3,1.3,0,0,0,2.214,1.374l4.11-6.624a3.8,3.8,0,0,1,6.46,0l16.735,26.973a3.8,3.8,0,0,1-3.23,5.8h-33.47a3.8,3.8,0,0,1-3.23-5.8l9.619-15.5a1.3,1.3,0,1,0-2.214-1.374l-9.619,15.5a6.407,6.407,0,0,0,5.444,9.785h33.47a6.407,6.407,0,0,0,5.444-9.785Z" transform="translate(-203.089 -8.045)"/>
        <path id="Trazado_104795" data-name="Trazado 104795" d="M304.255,66.568a1.3,1.3,0,0,0,1.3,1.3h5.186a1.3,1.3,0,0,0,1.107-1.99L295.31,39.22a1.3,1.3,0,0,0-2.214,0L276.555,65.881a1.3,1.3,0,0,0,1.107,1.99h22.343a1.3,1.3,0,0,0,0-2.606H280l14.2-22.886,14.2,22.886h-2.845A1.3,1.3,0,0,0,304.255,66.568Z" transform="translate(-228.349 -33.295)"/>
        <path id="Trazado_104796" data-name="Trazado 104796" d="M372.878,156.3a1.3,1.3,0,0,0-1.3,1.3v1.409a1.3,1.3,0,1,0,2.606,0V157.6A1.3,1.3,0,0,0,372.878,156.3Z" transform="translate(-307.023 -130.545)"/>
        <path id="Trazado_104797" data-name="Trazado 104797" d="M374.181,89.706a1.3,1.3,0,1,0-2.606,0v6.973a1.3,1.3,0,1,0,2.606,0Z" transform="translate(-307.023 -74.443)"/>
        <path id="Trazado_104798" data-name="Trazado 104798" d="M79.2,66.876A4.139,4.139,0,0,0,75.1,68.894l-3.013-.88c.017-.412.025-.826.025-1.232,0-.314-.006-.648-.018-1.023a1.3,1.3,0,1,0-2.6.084c.011.346.017.654.017.939,0,.411-.009.83-.028,1.246a2.434,2.434,0,0,0,1.751,2.45l4.292,1.254a1.3,1.3,0,0,0,1.65-1.029A1.518,1.518,0,0,1,78.9,69.464a1.3,1.3,0,0,0,.2.016,1.065,1.065,0,0,1,1.118,1.31l-.747,4.691a1.514,1.514,0,0,1-1.733,1.257,1.519,1.519,0,0,1-1.259-1.714,1.3,1.3,0,0,0-1.248-1.491l-4.572-.144a2.436,2.436,0,0,0-2.405,1.719A28.123,28.123,0,0,1,65.248,81.7a2.426,2.426,0,0,0,.352,3.022l2.64,2.614a1.3,1.3,0,0,0,1.647.153,1.461,1.461,0,0,1,1.941,2.145l-1.27,1.525a1.461,1.461,0,0,1-2.513-1.384,1.3,1.3,0,0,0-.584-1.525l-3.257-1.9a2.439,2.439,0,0,0-2.954.387A28.4,28.4,0,0,1,50.281,93.56a2.433,2.433,0,0,0-1.653,2.517l.38,4.449a1.3,1.3,0,0,0,1.556,1.166,1.5,1.5,0,0,1,1.774,1.142,1.462,1.462,0,0,1-.206,1.118,1.629,1.629,0,0,1-1.023.718l-4.7,1.01a.942.942,0,0,1-1.241-1,1.308,1.308,0,0,0-.029-.274,1.519,1.519,0,0,1,1.143-1.793,1.3,1.3,0,0,0,.939-1.7l-1.519-4.321a2.44,2.44,0,0,0-2.469-1.622c-.661.046-1.33.069-1.988.069a28.276,28.276,0,0,1-18.157-6.608,2.44,2.44,0,0,0-2.8-.236l-3.931,2.3a1.3,1.3,0,0,0-.3,2.01l.615.664a2.718,2.718,0,1,1-3.989,3.694L8.486,92.321a2.718,2.718,0,1,1,3.988-3.694l.615.664a1.3,1.3,0,0,0,2.027-.143L17.783,85.3a2.421,2.421,0,0,0,.019-2.749A28.139,28.139,0,0,1,14.9,77c-.005-.014-.01-.029-.016-.043a28.2,28.2,0,0,1-1.889-10.179,28.6,28.6,0,0,1,.2-3.342,2.434,2.434,0,0,0-1.564-2.571L7.441,59.3a1.3,1.3,0,0,0-1.721.9A1.518,1.518,0,0,1,3.9,61.31a1.3,1.3,0,0,0-.3-.035,1.021,1.021,0,0,1-.827-.333,1.021,1.021,0,0,1-.134-.881L3.76,55.339A1.629,1.629,0,0,1,4.5,54.33a1.461,1.461,0,0,1,1.122-.183,1.5,1.5,0,0,1,1.106,1.8,1.3,1.3,0,0,0,1.134,1.579l4.548.483a2.442,2.442,0,0,0,2.526-1.536,28.214,28.214,0,0,1,3.13-5.845,2.433,2.433,0,0,0-.166-3.008l-2.954-3.355a1.3,1.3,0,0,0-.969-.442h-.009a1.3,1.3,0,0,0-.966.429,1.505,1.505,0,0,1-2.106.136,1.462,1.462,0,0,1-.5-1.021,1.63,1.63,0,0,1,.4-1.186l2.819-3.2A1.514,1.514,0,0,1,15.9,40.968a1.3,1.3,0,0,0,.257,1.927l3.79,2.571a2.443,2.443,0,0,0,2.951-.165A28.069,28.069,0,0,1,38.039,38.71,2.433,2.433,0,0,0,40.185,36.6l.564-4.435a1.3,1.3,0,0,0-1.276-1.467,1.514,1.514,0,0,1,.019-3.027H43.83a1.514,1.514,0,0,1,.019,3.027,1.3,1.3,0,0,0-1.276,1.467l.577,4.542a2.444,2.444,0,0,0,2.08,2.106c.746.105,1.528.25,2.324.432a1.3,1.3,0,0,0,.58-2.541c-.823-.188-1.635-.34-2.415-.454l-.41-3.223a4.118,4.118,0,0,0-1.48-7.962H39.493a4.118,4.118,0,0,0-1.48,7.962l-.4,3.113a30.675,30.675,0,0,0-8.846,2.412L26.817,34.91a1.3,1.3,0,0,0-2.3,1.234L26.434,39.7A30.926,30.926,0,0,0,21.3,43.237l-2.69-1.825a4.118,4.118,0,0,0-6.952-4.154l-2.819,3.2A4.251,4.251,0,0,0,7.8,43.548a4.048,4.048,0,0,0,1.4,2.818,4.094,4.094,0,0,0,4.587.526l2.068,2.349a30.827,30.827,0,0,0-3.3,6.162L9.337,55.06a4.094,4.094,0,0,0-3.08-3.44,4.048,4.048,0,0,0-3.111.483,4.25,4.25,0,0,0-1.922,2.636L.107,59.461a3.612,3.612,0,0,0,.626,3.1,3.591,3.591,0,0,0,2.719,1.319,4.14,4.14,0,0,0,4.2-1.717l2.937,1.1a31.194,31.194,0,0,0-.2,3.52q0,.889.051,1.772l-3.361.457a1.3,1.3,0,1,0,.351,2.582l3.266-.445a30.668,30.668,0,0,0,1.366,5.685l-1.855.977a1.3,1.3,0,1,0,1.214,2.306l1.6-.843a30.814,30.814,0,0,0,2.554,4.639l-1.7,2.456a5.325,5.325,0,0,0-7.3,7.723l4.207,4.542a5.324,5.324,0,0,0,8.258-6.686L21.508,90.5A30.731,30.731,0,0,0,28,94.646L26.77,97.557a1.3,1.3,0,1,0,2.4,1.011l1.222-2.9a30.988,30.988,0,0,0,4.979,1.407v.991a1.3,1.3,0,1,0,2.606,0v-.6a30.836,30.836,0,0,0,5.311.111l1.078,3.066a4.14,4.14,0,0,0-1.8,4.175,3.631,3.631,0,0,0,1.309,2.733,3.542,3.542,0,0,0,2.24.77,4.016,4.016,0,0,0,.843-.091l4.7-1.01a4.252,4.252,0,0,0,2.674-1.867,4.047,4.047,0,0,0,.547-3.1A4.094,4.094,0,0,0,51.5,99.1l-.266-3.114a30.724,30.724,0,0,0,5.8-2.695l1.609,2.194a1.3,1.3,0,0,0,2.1-1.54l-1.528-2.084A30.911,30.911,0,0,0,63,88.666l2.365,1.379a4.068,4.068,0,0,0,7.19,2.78L73.83,91.3a4.065,4.065,0,0,0-4.406-6.461l-1.894-1.876A30.73,30.73,0,0,0,70.706,76l3.243.1a4.139,4.139,0,0,0,3.379,3.211,4.12,4.12,0,0,0,4.716-3.421l.747-4.691A3.662,3.662,0,0,0,79.2,66.876Z" transform="translate(0.002 -22.105)"/>
      </g>
    </g>
  </g>
</svg>
