<svg id="Grupo_58469" data-name="Grupo 58469" xmlns="http://www.w3.org/2000/svg" width="94" height="94" viewBox="0 0 94 94">
  <rect id="Rectángulo_5248" data-name="Rectángulo 5248" width="94" height="94" fill="none"/>
  <g id="lapida-sepulcral" transform="translate(4.129 3.81)">
    <g id="Grupo_58527" data-name="Grupo 58527" transform="translate(2.351 2.351)">
      <g id="Grupo_58513" data-name="Grupo 58513" transform="translate(13.507)">
        <path id="Trazado_104854" data-name="Trazado 104854" d="M66.026,29.013V52.7a5.367,5.367,0,0,0-5.4,0V29.013a21.61,21.61,0,1,0-43.221,0V66.831H12V29.013a27.013,27.013,0,1,1,54.026,0Z" transform="translate(-12 -2)" fill="#aab2bd"/>
      </g>
      <g id="Grupo_58514" data-name="Grupo 58514" transform="translate(18.909 5.403)">
        <path id="Trazado_104855" data-name="Trazado 104855" d="M48.416,53.273A56.061,56.061,0,0,0,25.455,66.779a2.479,2.479,0,0,0-.635.081l-2.067-4.133A6.783,6.783,0,0,0,17.972,64.7a6.336,6.336,0,0,0-.621.729H16V27.61a21.61,21.61,0,0,1,43.221,0V51.3a5.463,5.463,0,0,0-2.337,2.742,6.652,6.652,0,0,0-8.225,1.634Z" transform="translate(-16 -6)" fill="#ccd1d9"/>
      </g>
      <g id="Grupo_58515" data-name="Grupo 58515" transform="translate(29.714 16.208)">
        <path id="Trazado_104856" data-name="Trazado 104856" d="M42.626,35.043a8.774,8.774,0,0,0-7.82-4.835,5.4,5.4,0,1,0-5.4-5.4,5.4,5.4,0,0,0,5.4,5.4,8.761,8.761,0,0,0-7.82,4.835l-.284.567H24V14H45.61V35.61h-2.7Z" transform="translate(-24 -14)" fill="#ffeaa7"/>
      </g>
      <g id="Grupo_58516" data-name="Grupo 58516" transform="translate(32.416 32.416)">
        <path id="Trazado_104857" data-name="Trazado 104857" d="M41.924,30.835l.284.567H26l.284-.567a8.748,8.748,0,0,1,15.641,0Z" transform="translate(-26 -26)" fill="#75b1f2"/>
      </g>
      <g id="Grupo_58517" data-name="Grupo 58517" transform="translate(35.117 21.61)">
        <circle id="Elipse_5333" data-name="Elipse 5333" cx="5.403" cy="5.403" r="5.403" fill="#f0d0b4"/>
      </g>
      <g id="Grupo_58518" data-name="Grupo 58518" transform="translate(71.949 64.831)">
        <path id="Trazado_104858" data-name="Trazado 104858" d="M64.36,51.351v5.4A1.355,1.355,0,0,1,63.009,58.1H56.121a6.365,6.365,0,0,0,.135-1.351,6.75,6.75,0,0,0-.986-3.471A6.732,6.732,0,0,0,58.377,50h4.633A1.355,1.355,0,0,1,64.36,51.351Z" transform="translate(-55.27 -50)" fill="#838f9b"/>
      </g>
      <g id="Grupo_58519" data-name="Grupo 58519" transform="translate(0 64.831)">
        <path id="Trazado_104859" data-name="Trazado 104859" d="M22.26,50a6.674,6.674,0,0,0-1.351,4.052h-2.7a2.709,2.709,0,0,0-2.7,2.7V58.1H3.351A1.355,1.355,0,0,1,2,56.753v-5.4A1.355,1.355,0,0,1,3.351,50H22.26Z" transform="translate(-2 -50)" fill="#838f9b"/>
      </g>
      <g id="Grupo_58520" data-name="Grupo 58520" transform="translate(28.364 52.676)">
        <path id="Trazado_104860" data-name="Trazado 104860" d="M47.3,54.344A52.551,52.551,0,0,1,63.141,66.257c.135.135.257.27.378.405l-2.094.594a54.363,54.363,0,0,1-15.019,2.107,54.782,54.782,0,0,1-9.752-.878,53.641,53.641,0,0,1-9.428-2.607l-.351-.122v-.014a8.716,8.716,0,0,0,3.944-3.917l.284-.567-5.511-3.309a2.669,2.669,0,0,0,.108-.743,2.709,2.709,0,0,0-2.7-2.7A56.061,56.061,0,0,1,45.961,41l.243,2.4Z" transform="translate(-23 -41)" fill="#ffeaa7"/>
      </g>
      <g id="Grupo_58521" data-name="Grupo 58521" transform="translate(51.568 49.974)">
        <path id="Trazado_104861" data-name="Trazado 104861" d="M61.412,61.961a6.748,6.748,0,0,1-4.282,4.984l-.014.014A52.551,52.551,0,0,0,41.274,55.046L40.18,44.105a6.652,6.652,0,0,1,8.225-1.634,5.463,5.463,0,0,1,2.337-2.742,5.4,5.4,0,0,1,8.1,4.673c0,.041-.014.095-.014.135a6.752,6.752,0,0,1,5.416,6.618,6.42,6.42,0,0,1-.581,2.7,6.732,6.732,0,0,1-3.107,3.282,6.75,6.75,0,0,1,.986,3.471,6.364,6.364,0,0,1-.135,1.351Z" transform="translate(-40.18 -39)" fill="#f98473"/>
      </g>
      <g id="Grupo_58522" data-name="Grupo 58522" transform="translate(16.559 73.016)">
        <path id="Trazado_104862" data-name="Trazado 104862" d="M25.173,56.06l.473,2.85L16.61,64.083l-2.35-7.037Z" transform="translate(-14.26 -56.06)" fill="#feba1b"/>
      </g>
      <g id="Grupo_58523" data-name="Grupo 58523" transform="translate(13.507 68.883)">
        <path id="Trazado_104863" data-name="Trazado 104863" d="M24.426,54.175a2.825,2.825,0,0,0,1.256,1.256l.284,1.7-10.913.986L12,58.4V55.7A2.709,2.709,0,0,1,14.7,53h2.7Z" transform="translate(-12 -53)" fill="#fcd770"/>
      </g>
      <g id="Grupo_58524" data-name="Grupo 58524" transform="translate(27.189 69.626)">
        <path id="Trazado_104864" data-name="Trazado 104864" d="M22.13,55.238a2.636,2.636,0,0,0,1.175.27A2.7,2.7,0,0,0,25.9,53.55l5.511,3.309-.284.567a8.805,8.805,0,0,1-7.82,4.835l-.419-2.472-.473-2.85Z" transform="translate(-22.13 -53.55)" fill="#fcd770"/>
      </g>
      <g id="Grupo_58525" data-name="Grupo 58525" transform="translate(18.909 62.13)">
        <path id="Trazado_104865" data-name="Trazado 104865" d="M22.753,54.753a2.636,2.636,0,0,0,.27,1.175L16,54.753A6.674,6.674,0,0,1,17.351,50.7a6.337,6.337,0,0,1,.621-.729A6.783,6.783,0,0,1,22.753,48l2.067,4.133A2.694,2.694,0,0,0,22.753,54.753Z" transform="translate(-16 -48)" fill="#fcd770"/>
      </g>
      <g id="Grupo_58526" data-name="Grupo 58526" transform="translate(25.662 66.182)">
        <path id="Trazado_104866" data-name="Trazado 104866" d="M26.4,53.7a2.669,2.669,0,0,1-.108.743A2.7,2.7,0,0,1,23.7,56.4a2.636,2.636,0,0,1-1.175-.27,2.825,2.825,0,0,1-1.256-1.256A2.636,2.636,0,0,1,21,53.7a2.694,2.694,0,0,1,2.067-2.62A2.479,2.479,0,0,1,23.7,51,2.709,2.709,0,0,1,26.4,53.7Z" transform="translate(-21 -51)" fill="#ffc729"/>
      </g>
    </g>
    <g id="Grupo_58528" data-name="Grupo 58528" transform="translate(1 1)">
      <path id="Trazado_104867" data-name="Trazado 104867" d="M23,33H47.312v2.7H23Z" transform="translate(6.714 10.221)"/>
      <path id="Trazado_104868" data-name="Trazado 104868" d="M39,37h2.7v2.7H39Z" transform="translate(12.325 11.624)"/>
      <path id="Trazado_104869" data-name="Trazado 104869" d="M27,37H40.507v2.7H27Z" transform="translate(8.117 11.624)"/>
      <path id="Trazado_104870" data-name="Trazado 104870" d="M23,37h2.7v2.7H23Z" transform="translate(6.714 11.624)"/>
      <path id="Trazado_104871" data-name="Trazado 104871" d="M23,37.312H47.312V13H23Zm8.1-12.156a4.052,4.052,0,1,1,4.052,4.052A4.057,4.057,0,0,1,31.1,25.156ZM29.462,34.61a7.353,7.353,0,0,1,11.389,0ZM25.7,15.7H44.61V34.61h-.532a10.03,10.03,0,0,0-4.517-4.379,6.753,6.753,0,1,0-8.813,0,10.027,10.027,0,0,0-4.515,4.379H25.7Z" transform="translate(6.714 3.208)"/>
      <circle id="Elipse_5334" data-name="Elipse 5334" cx="1.351" cy="1.351" r="1.351" transform="translate(56.728 58.078)"/>
      <circle id="Elipse_5335" data-name="Elipse 5335" cx="1.351" cy="1.351" r="1.351" transform="translate(62.13 66.182)"/>
      <circle id="Elipse_5336" data-name="Elipse 5336" cx="1.351" cy="1.351" r="1.351" transform="translate(66.182 60.779)"/>
      <path id="Trazado_104872" data-name="Trazado 104872" d="M82.039,65.831H79.211a8,8,0,0,0-5.336-9.012,6.733,6.733,0,0,0-2.641-4.46v-23a28.364,28.364,0,0,0-56.728,0V65.831H3.7a2.7,2.7,0,0,0-2.7,2.7v5.4a2.7,2.7,0,0,0,2.7,2.7H14.507v1.479l3.466-.315,2.527,7.58,8.79-5.023.281,1.682h1.144a10.109,10.109,0,0,0,3.934-.8,55.946,55.946,0,0,0,34.859,1.348l4.164-1.19-.656-.739a8.14,8.14,0,0,0,3.139-4.022h5.885a2.7,2.7,0,0,0,2.7-2.7v-5.4a2.7,2.7,0,0,0-2.7-2.7ZM17.208,29.364a25.662,25.662,0,0,1,51.325,0V51.119a6.326,6.326,0,0,0-2.7,0V29.364a22.961,22.961,0,1,0-45.922,0V65.831h-2.7Zm37.65,23.9-1.569.471A57.5,57.5,0,0,0,30.662,66.757L28.848,63.13h-.835a8.062,8.062,0,0,0-5.4,2.08V29.364a20.26,20.26,0,0,1,40.52,0V52.332a6.722,6.722,0,0,0-1.614,1.738,7.993,7.993,0,0,0-6.5.728ZM22.728,70.109a5.42,5.42,0,0,1,4.48-4.218l1.064,2.13a4.034,4.034,0,0,0-1.564,2.751Zm7.986,2.476a1.351,1.351,0,1,1,1.351-1.351A1.352,1.352,0,0,1,30.714,72.585ZM3.7,73.935v-5.4H20.382a8.062,8.062,0,0,0-.351,1.351H18.559a4.057,4.057,0,0,0-4.052,4.052Zm13.507,0a1.352,1.352,0,0,1,1.351-1.351H21.15l6.32,1.054a3.976,3.976,0,0,0,.479.542l-10.742.978ZM22.02,81.4l-1.283-3.851,7.965-.724.115.692Zm9.155-6.159a4.025,4.025,0,0,0,2.614-1.4l3.242,1.945a7.333,7.333,0,0,1-5.185,3.463Zm22.953,6.8a53.068,53.068,0,0,1-16.61-2.658,10.106,10.106,0,0,0,2.223-2.921l.844-1.688-5.824-3.494c0-.015.005-.028.005-.043a4.028,4.028,0,0,0-1.549-3.162A54.832,54.832,0,0,1,52.5,56.817l.936,9.356a54.179,54.179,0,0,0-8.456-2.9l-.43-.107L43.9,65.792l.428.105a51.109,51.109,0,0,1,24.425,14.1,53.239,53.239,0,0,1-14.621,2.046ZM73.683,69.265l-1.286.66.746,1.237a5.313,5.313,0,0,1,.793,2.773,5.431,5.431,0,0,1-2.777,4.723A53.779,53.779,0,0,0,56.28,67.485l-.956-9.564A5.328,5.328,0,0,1,61.532,57l1.339.689.54-1.406a4.044,4.044,0,0,1,7.823,1.38l-.045,1.3,1.116.224a5.38,5.38,0,0,1,1.378,10.079Zm8.357,4.671h-5.4a7.964,7.964,0,0,0-.583-2.971,8.1,8.1,0,0,0,2.173-2.431h3.813Z" transform="translate(-1 -1)"/>
    </g>
  </g>
</svg>
