<svg xmlns="http://www.w3.org/2000/svg" width="94" height="94" viewBox="0 0 94 94">
  <g id="Grupo_58383" data-name="Grupo 58383" transform="translate(0 0)">
    <rect id="Rectángulo_5247" data-name="Rectángulo 5247" width="94" height="94" transform="translate(0 0)" fill="none"/>
    <g id="muerte" transform="translate(-34.143 4.771)">
      <path id="Trazado_104805" data-name="Trazado 104805" d="M120.708,81.8V66.429a2.562,2.562,0,0,0-2.562-2.562,2.562,2.562,0,0,1-2.562-2.562V45.933a2.562,2.562,0,0,0-2.562-2.562,2.561,2.561,0,0,1-2.562-2.561V30.438a2.561,2.561,0,0,0-2.562-2.561,2.562,2.562,0,0,1-2.562-2.562A17.812,17.812,0,0,0,87.524,7.5H71.908A17.812,17.812,0,0,0,54.1,25.315v20.74A17.812,17.812,0,0,0,71.908,63.867h5.246a2.562,2.562,0,0,1,2.562,2.562,2.562,2.562,0,0,0,2.562,2.562H92.526a2.562,2.562,0,0,1,2.562,2.562,2.562,2.562,0,0,0,2.562,2.562h15.372a2.562,2.562,0,0,1,2.562,2.562V81.8h5.124Z" transform="translate(-6.259 -6.265)" fill="#938493"/>
      <path id="Trazado_104806" data-name="Trazado 104806" d="M133.711,87.087a5,5,0,0,0-3.416,4.739,3.231,3.231,0,0,1-3.231,3.231H110.753a3.231,3.231,0,0,1-3.231-3.231,5,5,0,0,0-3.416-4.739,5,5,0,0,1-3.416-4.739V72.285a18.219,18.219,0,1,1,36.437,0V82.348A5,5,0,0,1,133.711,87.087Z" transform="translate(-45.167 -45.147)" fill="#f2fbff"/>
      <path id="Trazado_104807" data-name="Trazado 104807" d="M110.821,91.827a5,5,0,0,0-3.416-4.739,5,5,0,0,1-3.416-4.739V72.285a18.22,18.22,0,0,1,16.569-18.144c-.544-.049-1.093-.075-1.65-.075A18.219,18.219,0,0,0,100.69,72.285V82.348a5,5,0,0,0,3.416,4.739,5,5,0,0,1,3.416,4.739,3.231,3.231,0,0,0,3.231,3.231h3.3A3.231,3.231,0,0,1,110.821,91.827Z" transform="translate(-45.167 -45.147)" fill="#dff6fd"/>
      <g id="Grupo_58499" data-name="Grupo 58499" transform="translate(62.301 24.301)">
        <circle id="Elipse_5318" data-name="Elipse 5318" cx="3.754" cy="3.754" r="3.754" fill="#7b6c79"/>
        <circle id="Elipse_5319" data-name="Elipse 5319" cx="3.754" cy="3.754" r="3.754" transform="translate(15.372)" fill="#7b6c79"/>
        <path id="Trazado_104808" data-name="Trazado 104808" d="M187.836,205.558l3.843-3.887,3.843,3.887-3.843,3.8Z" transform="translate(-180.238 -192.704)" fill="#7b6c79"/>
      </g>
      <path id="Trazado_104809" data-name="Trazado 104809" d="M85.158,457.905h61.488v7.686H85.158Z" transform="translate(-32.197 -382.369)" fill="#f2fbff"/>
      <path id="Trazado_104810" data-name="Trazado 104810" d="M85.158,484.5h61.488v3.3H85.158Z" transform="translate(-32.197 -404.575)" fill="#dff6fd"/>
      <path id="Trazado_104811" data-name="Trazado 104811" d="M426.842,457.905h5.124v7.686h-5.124Z" transform="translate(-317.517 -382.369)" fill="#f98473"/>
      <path id="Trazado_104812" data-name="Trazado 104812" d="M426.842,484.5h5.124v3.3h-5.124Z" transform="translate(-317.517 -404.575)" fill="#fc6650"/>
      <path id="Trazado_104813" data-name="Trazado 104813" d="M85.158,457.905H100.53v7.686H85.158Z" transform="translate(-32.197 -382.369)" fill="#feba1b"/>
      <path id="Trazado_104814" data-name="Trazado 104814" d="M85.158,484.5H100.53v3.3H85.158Z" transform="translate(-32.197 -404.575)" fill="#fe851b"/>
      <g id="Grupo_58500" data-name="Grupo 58500" transform="translate(46.6 0)">
        <path id="Trazado_104815" data-name="Trazado 104815" d="M112.645,46.565A19.478,19.478,0,0,0,93.189,66.021V76.084A6.225,6.225,0,0,0,97.451,82a3.754,3.754,0,0,1,2.57,3.566,4.473,4.473,0,0,0,4.468,4.468H120.8a4.473,4.473,0,0,0,4.468-4.468A3.754,3.754,0,0,1,127.839,82a6.225,6.225,0,0,0,4.262-5.913V66.021A19.478,19.478,0,0,0,112.645,46.565Zm16.982,29.519a3.754,3.754,0,0,1-2.57,3.566,6.225,6.225,0,0,0-4.262,5.913,2,2,0,0,1-1.994,1.994h-1.794V83.68a1.237,1.237,0,1,0-2.474,0v3.877h-2.65V83.68a1.237,1.237,0,1,0-2.474,0v3.877h-2.65V83.68a1.237,1.237,0,0,0-2.474,0v3.877h-1.794a2,2,0,0,1-1.994-1.994,6.225,6.225,0,0,0-4.262-5.913,3.754,3.754,0,0,1-2.57-3.566V66.021a16.981,16.981,0,1,1,33.963,0V76.084Z" transform="translate(-85.504 -38.884)"/>
        <path id="Trazado_104816" data-name="Trazado 104816" d="M144.262,144.8a4.992,4.992,0,1,0-4.992,4.992A5,5,0,0,0,144.262,144.8Zm-4.992,2.517a2.517,2.517,0,1,1,2.517-2.517A2.52,2.52,0,0,1,139.271,147.322Z" transform="translate(-119.816 -116.75)"/>
        <path id="Trazado_104817" data-name="Trazado 104817" d="M232.458,139.813a4.992,4.992,0,1,0,4.992,4.992A5,5,0,0,0,232.458,139.813Zm0,7.509a2.517,2.517,0,1,1,2.517-2.517A2.52,2.52,0,0,1,232.458,147.322Z" transform="translate(-197.63 -116.75)"/>
        <path id="Trazado_104818" data-name="Trazado 104818" d="M111.886,205.77a1.342,1.342,0,0,1-1.325-1.325v-4.985a1.237,1.237,0,0,0-2.474,0v4.985a3.8,3.8,0,0,0,3.8,3.8,1.325,1.325,0,0,1,1.325,1.325V223.7h-2.649v-3.886a3.8,3.8,0,0,0-3.8-3.8H91.39a1.326,1.326,0,0,1-1.325-1.325,3.8,3.8,0,0,0-3.8-3.8H76.019a1.326,1.326,0,0,1-1.325-1.325,3.8,3.8,0,0,0-3.8-3.8H65.648A16.593,16.593,0,0,1,49.074,189.2v-9.038a1.237,1.237,0,1,0-2.474,0V189.2a19.07,19.07,0,0,0,19.048,19.05H70.9a1.325,1.325,0,0,1,1.325,1.325,3.8,3.8,0,0,0,3.8,3.8H86.266a1.325,1.325,0,0,1,1.325,1.325,3.8,3.8,0,0,0,3.8,3.8h15.373a1.326,1.326,0,0,1,1.325,1.325V223.7H92.279a1.237,1.237,0,1,0,0,2.474h15.809v5.213H69.57v-5.213H86.888a1.237,1.237,0,1,0,0-2.474H52.961a1.237,1.237,0,0,0-1.237,1.237v7.687a1.237,1.237,0,0,0,1.237,1.237h61.487a1.237,1.237,0,0,0,1.237-1.237V209.569A3.613,3.613,0,0,0,111.886,205.77ZM54.2,226.178H67.1v5.213H54.2Zm59.013,5.213h-2.649v-5.213h2.649Z" transform="translate(-46.6 -149.405)"/>
        <path id="Trazado_104819" data-name="Trazado 104819" d="M47.837,26.6a1.237,1.237,0,0,0,1.237-1.237V19.05A16.593,16.593,0,0,1,65.648,2.474H81.265A16.594,16.594,0,0,1,97.84,19.05a3.8,3.8,0,0,0,3.8,3.8,1.325,1.325,0,0,1,1.325,1.323V34.544a3.8,3.8,0,0,0,3.8,3.8,1.325,1.325,0,0,1,1.325,1.325v4.995a1.237,1.237,0,0,0,2.474,0V39.668a3.8,3.8,0,0,0-3.8-3.8,1.326,1.326,0,0,1-1.325-1.325V24.172a3.8,3.8,0,0,0-3.8-3.8,1.325,1.325,0,0,1-1.325-1.325A19.071,19.071,0,0,0,81.265,0H65.648A19.07,19.07,0,0,0,46.6,19.05v6.31A1.237,1.237,0,0,0,47.837,26.6Z" transform="translate(-46.6 0)"/>
        <path id="Trazado_104820" data-name="Trazado 104820" d="M186.3,194.539a1.237,1.237,0,0,0-1.76,0l-3.843,3.887a1.237,1.237,0,0,0,.01,1.75l3.843,3.8a1.237,1.237,0,0,0,1.74,0l3.843-3.8a1.237,1.237,0,0,0,.01-1.75Zm-.88,6.816-2.093-2.069,2.093-2.117,2.093,2.117Z" transform="translate(-158.274 -162.141)"/>
      </g>
    </g>
  </g>
</svg>
