<svg id="Grupo_58490" data-name="Grupo 58490" xmlns="http://www.w3.org/2000/svg" width="94" height="94" viewBox="0 0 94 94">
  <rect id="Rectángulo_5248" data-name="Rectángulo 5248" width="94" height="94" fill="none"/>
  <g id="lungs" transform="translate(4 4)">
    <g id="Grupo_58496" data-name="Grupo 58496" transform="translate(1.68 1.68)">
      <path id="Trazado_104799" data-name="Trazado 104799" d="M305.48,395.456a11.579,11.579,0,0,0,4.507,2.111c4.663,1.171,13.11,3.055,17.219,3.919,3.66.769,7.036,1.382,9.576-1.345,2.971-3.191,1.461-7.952,0-11.375-.838-1.964-1.816-4.265-2.884-6.786C329.476,386.172,320.586,392.562,305.48,395.456Z" transform="translate(-255.849 -319.499)" fill="#ffc4bb"/>
      <path id="Trazado_104800" data-name="Trazado 104800" d="M43.01,395.456a11.578,11.578,0,0,1-4.507,2.111c-4.663,1.171-13.11,3.055-17.219,3.919-3.66.769-7.036,1.382-9.576-1.345-2.971-3.191-1.461-7.952,0-11.375.838-1.964,1.816-4.265,2.884-6.786C19.013,386.172,27.9,392.562,43.01,395.456Z" transform="translate(-10 -319.499)" fill="#ffc4bb"/>
      <path id="Trazado_104801" data-name="Trazado 104801" d="M79.574,33.867c1.445-3.43,3.877-6.734,7.617-6.734a6.768,6.768,0,0,1,6.49,4.816L96.65,28.98V10h6.719V28.98l2.968,2.968a6.768,6.768,0,0,1,6.49-4.816c3.741,0,6.173,3.3,7.617,6.734,2.777,6.589,7.021,16.671,11.056,26.23-4.06,1.791-11.733,2.422-25.444-4.354v-14.5L100.009,35.2l-6.047,6.047v14.5C80.251,62.519,72.578,61.887,68.518,60.1,72.553,50.538,76.8,40.456,79.574,33.867Z" transform="translate(-58.689 -10)" fill="#ffc4bb"/>
    </g>
    <path id="Trazado_104802" data-name="Trazado 104802" d="M292,282.33v25.592a5.784,5.784,0,0,0,2.264,4.622c15.106-2.894,24-9.284,28.417-13.476-1.6-3.764-3.395-8.019-5.237-12.384C313.384,288.474,305.711,289.106,292,282.33Z" transform="translate(-242.953 -234.907)" fill="#f98473"/>
    <path id="Trazado_104803" data-name="Trazado 104803" d="M68.02,282.33v25.592a5.784,5.784,0,0,1-2.264,4.622c-15.106-2.894-24-9.284-28.417-13.476,1.6-3.764,3.395-8.019,5.237-12.384C46.636,288.474,54.309,289.106,68.02,282.33Z" transform="translate(-31.067 -234.907)" fill="#f98473"/>
    <g id="Grupo_58497" data-name="Grupo 58497" transform="translate(0.001 0)">
      <path id="Trazado_104804" data-name="Trazado 104804" d="M84.151,70.288c-.683-1.6-12.8-30.281-13.149-31.1a1.676,1.676,0,0,0-1.549-1.028,1.652,1.652,0,0,0-.652.133,1.68,1.68,0,0,0-.9,2.2c1.186,2.815,2.751,6.527,4.341,10.3a15.672,15.672,0,0,1-4.11.5h-.012c-4.731,0-10.585-1.656-17.4-4.92v-9.4a1.679,1.679,0,0,0,2.363-2.387l-8.9-8.9a1.678,1.678,0,0,0-2.375,0l-8.9,8.9a1.679,1.679,0,0,0,2.363,2.387v9.4c-6.815,3.265-12.669,4.922-17.4,4.922h-.012a15.672,15.672,0,0,1-4.11-.5c2.952-7,9.767-23.177,10.362-24.591A13.159,13.159,0,0,1,26.7,22.081a4.789,4.789,0,0,1,3.483-1.589h.007a5.121,5.121,0,0,1,4.51,2.733l-6.66,6.661a1.68,1.68,0,1,0,2.375,2.376L40.829,21.848a1.692,1.692,0,0,0,.492-1.187V3.359H44.68v17.3a1.692,1.692,0,0,0,.492,1.187L55.584,32.262a1.68,1.68,0,1,0,2.375-2.376L51.3,23.226a5.121,5.121,0,0,1,4.51-2.733h.007A4.789,4.789,0,0,1,59.3,22.081a20.663,20.663,0,0,1,2.737,4.476,1.68,1.68,0,0,0,3.1-1.305q-.078-.181-.151-.358a16.052,16.052,0,0,0-3.308-5.19A8.985,8.985,0,0,0,59.1,17.867a7.618,7.618,0,0,0-3.258-.734h-.027a8.466,8.466,0,0,0-6.961,3.647l-.816-.815V1.68A1.68,1.68,0,0,0,46.36,0H39.642a1.68,1.68,0,0,0-1.679,1.68V19.965l-.816.815a8.466,8.466,0,0,0-6.961-3.647h-.029a7.611,7.611,0,0,0-3.256.734A8.982,8.982,0,0,0,24.329,19.7a16.04,16.04,0,0,0-3.308,5.19c-.579,1.376-18.333,43.431-19.17,45.393-1.613,3.779-3.335,9.257.315,13.179A7.959,7.959,0,0,0,8.324,86a24.508,24.508,0,0,0,4.991-.688c4.051-.851,12.535-2.742,17.279-3.934a15.089,15.089,0,0,0,5.5-2.609,8.371,8.371,0,0,0,2.543-5.754v-39.4L43,29.251l4.367,4.367v39.4a8.369,8.369,0,0,0,2.542,5.753,15.091,15.091,0,0,0,5.5,2.61c4.744,1.191,13.228,3.082,17.279,3.933A24.521,24.521,0,0,0,77.677,86a7.96,7.96,0,0,0,6.158-2.533c3.651-3.922,1.929-9.4.316-13.179ZM12.624,82.024c-3.753.789-6.164,1.126-8-.846-1.763-1.894-1.663-4.935.315-9.571.592-1.388,1.254-2.944,1.968-4.628,4.614,3.908,11.854,8.413,22.591,11.21C24.749,79.373,16.571,81.195,12.624,82.024Zm-4.337-18.3c1.293-3.052,2.7-6.387,4.152-9.82a18.583,18.583,0,0,0,5.414.747h.01a32.509,32.509,0,0,0,8.469-1.262,60.024,60.024,0,0,0,8.943-3.313V73.015a3.973,3.973,0,0,1-1.1,2.806c-13-2.641-21.153-7.863-25.891-12.1Zm43.536,12.1a3.973,3.973,0,0,1-1.1-2.806V50.079a60.017,60.017,0,0,0,8.943,3.313,32.508,32.508,0,0,0,8.469,1.262h.012a18.588,18.588,0,0,0,5.412-.746c1.449,3.433,2.859,6.768,4.152,9.82-4.738,4.232-12.891,9.453-25.891,12.1Zm29.554,5.356c-1.836,1.972-4.247,1.636-8,.846-3.947-.83-12.125-2.651-16.875-3.835,10.737-2.8,17.977-7.3,22.591-11.21.714,1.684,1.376,3.24,1.968,4.628C83.04,76.243,83.14,79.284,81.377,81.178Z" transform="translate(-0.001 0)"/>
      <ellipse id="Elipse_5309" data-name="Elipse 5309" cx="1.5" cy="2" rx="1.5" ry="2" transform="translate(60 40)"/>
      <ellipse id="Elipse_5310" data-name="Elipse 5310" cx="2" cy="1.5" rx="2" ry="1.5" transform="translate(54 56)"/>
      <circle id="Elipse_5311" data-name="Elipse 5311" cx="1.5" cy="1.5" r="1.5" transform="translate(56 66)"/>
      <ellipse id="Elipse_5312" data-name="Elipse 5312" cx="1" cy="2" rx="1" ry="2" transform="translate(69 59)"/>
      <ellipse id="Elipse_5313" data-name="Elipse 5313" cx="1.5" cy="2" rx="1.5" ry="2" transform="translate(23 40)"/>
      <ellipse id="Elipse_5314" data-name="Elipse 5314" cx="2" cy="1.5" rx="2" ry="1.5" transform="translate(28 56)"/>
      <circle id="Elipse_5315" data-name="Elipse 5315" cx="1.5" cy="1.5" r="1.5" transform="translate(27 66)"/>
      <ellipse id="Elipse_5316" data-name="Elipse 5316" cx="1" cy="2" rx="1" ry="2" transform="translate(15 59)"/>
      <circle id="Elipse_5317" data-name="Elipse 5317" cx="1.68" cy="1.68" r="1.68" transform="translate(64.841 31.194)"/>
    </g>
  </g>
</svg>
