<svg xmlns="http://www.w3.org/2000/svg" width="94" height="94" viewBox="0 0 94 94">
  <g id="Grupo_58382" data-name="Grupo 58382" transform="translate(0 0)">
    <rect id="Rectángulo_5249" data-name="Rectángulo 5249" width="94" height="94" transform="translate(0 0)" fill="none"/>
    <g id="arrhythmia" transform="translate(-15.666 5.035)">
      <g id="Grupo_58511" data-name="Grupo 58511" transform="translate(25.99 1.229)">
        <g id="Grupo_58509" data-name="Grupo 58509" transform="translate(0)">
          <path id="Trazado_104821" data-name="Trazado 104821" d="M309.665,155.344H301.1a13.543,13.543,0,0,0-13.527,13.527v11.18a2.453,2.453,0,0,0,2.453,2.453H296.6a2.453,2.453,0,0,0,2.453-2.453v-11.18a2.055,2.055,0,0,1,2.053-2.053h8.564" transform="translate(-245.723 -131.108)" fill="#f98473"/>
          <path id="Trazado_104822" data-name="Trazado 104822" d="M291.572,168.872v11.18a2.453,2.453,0,0,0,2.454,2.454h-4a2.453,2.453,0,0,1-2.452-2.454v-11.18A13.543,13.543,0,0,1,301.1,155.345h4A13.543,13.543,0,0,0,291.572,168.872Z" transform="translate(-245.723 -131.109)" fill="#d06161"/>
          <path id="Trazado_104823" data-name="Trazado 104823" d="M409.825,155.344a2.453,2.453,0,0,1,2.453,2.453v6.569a2.453,2.453,0,1,1-4.906,0V157.8A2.453,2.453,0,0,1,409.825,155.344Z" transform="translate(-345.883 -131.108)" fill="#e45642"/>
          <g id="Grupo_58502" data-name="Grupo 58502" transform="translate(0 9.286)">
            <path id="Trazado_104824" data-name="Trazado 104824" d="M32.267,80.606V107.1H44.041V80.606" transform="translate(-32.267 -77.908)" fill="#f98473"/>
            <g id="Grupo_58501" data-name="Grupo 58501">
              <path id="Trazado_104825" data-name="Trazado 104825" d="M32.267,80.606V107.1h3.925V80.606" transform="translate(-32.267 -77.908)" fill="#e45642"/>
              <path id="Trazado_104826" data-name="Trazado 104826" d="M41.342,69.542H34.964a2.7,2.7,0,0,1,0-5.4h6.378a2.7,2.7,0,0,1,0,5.4Z" transform="translate(-32.266 -64.145)" fill="#e45642"/>
            </g>
          </g>
          <g id="Grupo_58504" data-name="Grupo 58504" transform="translate(11.775)">
            <path id="Trazado_104827" data-name="Trazado 104827" d="M104.1,23.961V50.454H115.87V23.961" transform="translate(-104.095 -21.262)" fill="#f98473"/>
            <g id="Grupo_58503" data-name="Grupo 58503">
              <path id="Trazado_104828" data-name="Trazado 104828" d="M104.1,23.961V50.454h3.925V23.961" transform="translate(-104.095 -21.262)" fill="#e45642"/>
              <path id="Trazado_104829" data-name="Trazado 104829" d="M113.171,12.9h-6.378a2.7,2.7,0,1,1,0-5.4h6.378a2.7,2.7,0,0,1,0,5.4Z" transform="translate(-104.095 -7.499)" fill="#e45642"/>
            </g>
          </g>
          <g id="Grupo_58506" data-name="Grupo 58506" transform="translate(19.134 9.112)">
            <path id="Trazado_104830" data-name="Trazado 104830" d="M148.988,79.548v26.493h11.775V79.548" transform="translate(-148.988 -76.849)" fill="#f98473"/>
            <g id="Grupo_58505" data-name="Grupo 58505">
              <path id="Trazado_104831" data-name="Trazado 104831" d="M148.988,79.548v26.493h3.925V79.548" transform="translate(-148.988 -76.849)" fill="#e45642"/>
              <path id="Trazado_104832" data-name="Trazado 104832" d="M158.064,68.483h-6.378a2.7,2.7,0,0,1,0-5.4h6.378a2.7,2.7,0,0,1,0,5.4Z" transform="translate(-148.988 -63.086)" fill="#e45642"/>
            </g>
          </g>
          <path id="Trazado_104833" data-name="Trazado 104833" d="M70.671,132.482H49.136a16.87,16.87,0,0,0-16.87,16.87v16.476a27.637,27.637,0,0,0,55.275,0V149.352A16.869,16.869,0,0,0,70.671,132.482Z" transform="translate(-32.266 -111.994)" fill="#f98473"/>
          <path id="Trazado_104834" data-name="Trazado 104834" d="M65.793,192.835a27.658,27.658,0,0,1-33.526-27.008V149.351a16.871,16.871,0,0,1,16.871-16.87H60.911a16.871,16.871,0,0,0-16.87,16.87v16.476A27.645,27.645,0,0,0,65.793,192.835Z" transform="translate(-32.267 -111.993)" fill="#e45642"/>
          <g id="Grupo_58508" data-name="Grupo 58508" transform="translate(34.596 6.737)">
            <path id="Trazado_104835" data-name="Trazado 104835" d="M265.4,48.6h-8.564a13.543,13.543,0,0,0-13.527,13.527V83.446a2.453,2.453,0,0,0,2.453,2.453h6.569a2.453,2.453,0,0,0,2.453-2.453V62.126a2.055,2.055,0,0,1,2.053-2.053H265.4" transform="translate(-243.314 -48.599)" fill="#f98473"/>
            <g id="Grupo_58507" data-name="Grupo 58507" transform="translate(0)">
              <path id="Trazado_104836" data-name="Trazado 104836" d="M247.312,62.127V83.446a2.453,2.453,0,0,0,2.454,2.454h-4a2.453,2.453,0,0,1-2.452-2.454V62.127A13.543,13.543,0,0,1,256.841,48.6h4A13.543,13.543,0,0,0,247.312,62.127Z" transform="translate(-243.314 -48.6)" fill="#e45642"/>
              <path id="Trazado_104837" data-name="Trazado 104837" d="M365.565,48.6a2.453,2.453,0,0,1,2.453,2.453v6.569a2.453,2.453,0,0,1-4.906,0V51.052A2.453,2.453,0,0,1,365.565,48.6Z" transform="translate(-343.474 -48.599)" fill="#e45642"/>
            </g>
          </g>
        </g>
        <g id="Grupo_58510" data-name="Grupo 58510" transform="translate(45.663 45.64)">
          <circle id="Elipse_5320" data-name="Elipse 5320" cx="13.844" cy="13.844" r="13.844" fill="#bed8fb"/>
        </g>
      </g>
      <g id="Grupo_58512" data-name="Grupo 58512" transform="translate(24.76 0)">
        <path id="Trazado_104838" data-name="Trazado 104838" d="M91.034,174.331a10.325,10.325,0,0,1,6.994,2.7v3.572a1.229,1.229,0,0,0,2.459,0V168.992a1.229,1.229,0,0,0-2.459,0v4.947a12.769,12.769,0,0,0-6.994-2.066c-.293,0-.584.013-.874.033a8.442,8.442,0,0,0-8.322-7.1,1.229,1.229,0,1,0,0,2.459,5.979,5.979,0,0,1,5.9,5.032,12.734,12.734,0,0,0-4.946,2.566,8.44,8.44,0,0,0-11.029.773,1.229,1.229,0,0,0,1.739,1.739,5.98,5.98,0,0,1,7.543-.739,12.734,12.734,0,0,0-2.4,4.642,8.44,8.44,0,0,0-7.631,8.39,1.229,1.229,0,0,0,2.459,0,5.98,5.98,0,0,1,4.737-5.841c-.021.3-.035.6-.035.9a12.775,12.775,0,0,0,3.767,9.093,1.229,1.229,0,1,0,1.739-1.739,10.4,10.4,0,0,1,0-14.709,10.5,10.5,0,0,1,1.635-1.335l.017.018a5.977,5.977,0,0,1,0,8.443,1.229,1.229,0,1,0,1.739,1.739A8.44,8.44,0,0,0,87.6,174.91a10.41,10.41,0,0,1,3.432-.578Z" transform="translate(-63.431 -137.794)"/>
        <path id="Trazado_104839" data-name="Trazado 104839" d="M85.5,45.64a15.085,15.085,0,0,0-3,.3V38.586c0-.14,0-.279-.007-.418h7.445a3.687,3.687,0,0,0,3.682-3.682V27.918a3.687,3.687,0,0,0-3.682-3.682H81.369a14.631,14.631,0,0,0-4.919.845,18.222,18.222,0,0,0-3.16-2.257v-1.33a.824.824,0,0,1,.823-.823h8.564a3.687,3.687,0,0,0,3.682-3.682V10.42a3.687,3.687,0,0,0-3.682-3.682H74.115a14.776,14.776,0,0,0-14.723,13.75H58.128V13.059c0-.006,0-.013,0-.019A3.932,3.932,0,0,0,54.2,9.112H50.769V3.928A3.932,3.932,0,0,0,46.841,0H40.463a3.932,3.932,0,0,0-3.928,3.928h0V9.572a3.905,3.905,0,0,0-1.469-.286H28.689a3.932,3.932,0,0,0-3.928,3.928h0V38.53c0,.019,0,.038,0,.057V55.062A28.867,28.867,0,0,0,76.439,72.753a15.066,15.066,0,0,0,13.708,2.3,1.229,1.229,0,0,0-.761-2.338A12.621,12.621,0,0,1,72.944,61.943h3.415a1.23,1.23,0,0,0,1.135-.757l.913-2.2,1.478,10a1.229,1.229,0,0,0,2.391.183l1.518-4.913,1.516,5.684a1.229,1.229,0,0,0,1.188.913h.026A1.229,1.229,0,0,0,87.7,69.9l2.536-11.407.776,4.8a1.229,1.229,0,0,0,2.013.738l2.435-2.083h2.595A12.551,12.551,0,0,1,93.336,70.6a1.229,1.229,0,1,0,1.529,1.926A15.074,15.074,0,0,0,85.5,45.64Zm5.659-17.722v6.569a1.225,1.225,0,0,1-1.223,1.224h-.015a1.224,1.224,0,0,1-1.209-1.223V27.918a1.224,1.224,0,0,1,2.447,0Zm-4.7-1.225a3.665,3.665,0,0,0-.21,1.224v6.569a3.663,3.663,0,0,0,.21,1.223H82.265a17.99,17.99,0,0,0-3.9-8.645,12.249,12.249,0,0,1,3-.37H86.46Zm-5.007-9.705V10.42A1.225,1.225,0,0,1,82.674,9.2h.005A1.225,1.225,0,0,1,83.9,10.42v6.569a1.224,1.224,0,0,1-2.447,0Zm-35.1,3.5V16.681a3.9,3.9,0,0,0,1.47.286H54.2a3.905,3.905,0,0,0,1.468-.286v3.806Zm9.316-7.447h0v.009A1.47,1.47,0,0,1,54.2,14.509H47.822a1.469,1.469,0,1,1,0-2.938H54.2A1.47,1.47,0,0,1,55.669,13.04ZM47.822,9.112a3.932,3.932,0,0,0-3.928,3.928h0v7.447H42.859a18.1,18.1,0,0,0-3.865.417V7.569a3.9,3.9,0,0,0,1.469.286h6.378a3.906,3.906,0,0,0,1.469-.286V9.112h-.488ZM40.463,2.459h6.378A1.471,1.471,0,0,1,48.31,3.928v0A1.471,1.471,0,0,1,46.841,5.4H40.464a1.469,1.469,0,0,1,0-2.938ZM28.689,11.744h6.378a1.47,1.47,0,0,1,1.469,1.464v.01a1.47,1.47,0,0,1-1.469,1.464H28.689a1.469,1.469,0,0,1,0-2.938ZM27.22,16.855a3.906,3.906,0,0,0,1.469.286h6.378a3.9,3.9,0,0,0,1.469-.286v4.773a18.2,18.2,0,0,0-9.316,7.858V16.855Zm0,38.208V38.53A15.657,15.657,0,0,1,42.859,22.946h16.5V26.3a1.229,1.229,0,0,0,2.459,0V21.494a12.312,12.312,0,0,1,12.3-12.3H79.2a3.663,3.663,0,0,0-.21,1.223v6.569a3.664,3.664,0,0,0,.21,1.224H74.114a3.286,3.286,0,0,0-3.282,3.282V42.813a1.229,1.229,0,0,0,2.459,0V25.72a15.571,15.571,0,0,1,6.745,12.866v8.078A15.077,15.077,0,0,0,70.765,63.9,5.981,5.981,0,0,1,66.1,69.424,12.734,12.734,0,0,0,64.4,64.487a8.44,8.44,0,0,0-.808-11.313,1.229,1.229,0,1,0-1.7,1.78,5.98,5.98,0,0,1,.96,7.459c-.2-.221-.41-.439-.63-.648a12.779,12.779,0,0,0-9.181-3.548,1.229,1.229,0,1,0,.059,2.458A10.4,10.4,0,0,1,63.747,70.824a10.508,10.508,0,0,1-.162,2.1h-.025A5.97,5.97,0,0,1,57.45,67.1a1.229,1.229,0,0,0-2.458.059,8.426,8.426,0,0,0,7.836,8.205,10.42,10.42,0,0,1-9.223,6.1A26.438,26.438,0,0,1,27.219,55.062ZM72.3,73.736a26.321,26.321,0,0,1-9.57,6.129,12.757,12.757,0,0,0,3.449-7.952,8.445,8.445,0,0,0,5.974-4.2,15.157,15.157,0,0,0,2.443,3.4A26.564,26.564,0,0,1,72.3,73.736ZM95,59.484a1.229,1.229,0,0,0-.8.3l-1.117.955-1.449-8.96a1.229,1.229,0,0,0-2.414-.07L86.39,64.456,85.07,59.5a1.229,1.229,0,0,0-2.362-.046l-1.181,3.82-1.335-9.033a1.229,1.229,0,0,0-2.351-.292l-2.3,5.532H72.944a12.614,12.614,0,0,1,25.108,0H95Z" transform="translate(-24.76 0)"/>
      </g>
    </g>
  </g>
</svg>
