<svg id="Grupo_58475" data-name="Grupo 58475" xmlns="http://www.w3.org/2000/svg" width="94" height="94" viewBox="0 0 94 94">
  <rect id="Rectángulo_5248" data-name="Rectángulo 5248" width="94" height="94" fill="none"/>
  <g id="bad-review" transform="translate(-28.947 61.324)">
    <g id="Grupo_58481" data-name="Grupo 58481" transform="translate(37.578 -59.656)">
      <path id="Trazado_104762" data-name="Trazado 104762" d="M53.253,256.15l-6.831,19.424-2.535,2.535L55,289.218l14.9-14.9,10.929-19.531-18.454-3.795a7.965,7.965,0,0,0-9.118,5.158Z" transform="translate(-43.887 -201.585)" fill="#e6b7b1"/>
      <path id="Trazado_104763" data-name="Trazado 104763" d="M161.054,294.2l.447.447,11.423-11.423-3.763-3.763-8.107,8.107A4.689,4.689,0,0,0,161.054,294.2Z" transform="translate(-141.316 -225.676)" fill="#dca39b"/>
      <ellipse id="Elipse_5305" data-name="Elipse 5305" cx="25.013" cy="26.503" rx="25.013" ry="26.503" transform="translate(5.081 35.369) rotate(-45)" fill="#f98473"/>
      <path id="Trazado_104764" data-name="Trazado 104764" d="M173.454,58.855a27,27,0,0,1-22.226-7.9c-10.35-10.35-10.821-26.659-1.053-36.427a24.427,24.427,0,0,1,20.315-6.847,23.987,23.987,0,0,0-14.2,6.847c-9.77,9.768-9.3,26.077,1.053,36.427A27.357,27.357,0,0,0,173.454,58.855Z" transform="translate(-127.404 3.151)" fill="#f96b56"/>
      <path id="Trazado_104765" data-name="Trazado 104765" d="M229.7,89.824,239.7,79.816a2.988,2.988,0,0,0-4.226-4.226L225.471,85.6,215.463,75.59a2.988,2.988,0,0,0-4.226,4.226l10.008,10.008L211.237,99.832a2.988,2.988,0,1,0,4.226,4.226L225.471,94.05l10.008,10.008a2.988,2.988,0,0,0,4.226-4.226Z" transform="translate(-183.959 -53.404)" fill="#f9f6f9"/>
      <path id="Trazado_104766" data-name="Trazado 104766" d="M109.2,249.34,77.777,280.765l7.576,7.576,4.149-4.149,3.772.07a14.054,14.054,0,0,0,14.249-12.724l.384-4.059,9.717-9.716a5.955,5.955,0,0,0-8.422-8.422Z" transform="translate(-73.318 -198.248)" fill="#e6b7b1"/>
      <path id="Trazado_104767" data-name="Trazado 104767" d="M131.127,268.375a18.125,18.125,0,0,1-18.377,16.413l-4.149,4.149,2.687,2.687,4.149-4.149,3.772.07a14.054,14.054,0,0,0,14.249-12.724l.384-4.059,9.717-9.717A5.961,5.961,0,0,0,142,251.5a5.97,5.97,0,0,1-1.126,6.859l-9.717,9.716Z" transform="translate(-98.337 -202.15)" fill="#dca39b"/>
    </g>
    <g id="Grupo_58482" data-name="Grupo 58482" transform="translate(36.389 -50.194)">
      <path id="Trazado_104768" data-name="Trazado 104768" d="M228.6,76.625a1.189,1.189,0,0,0,1.682,1.682l3.952-3.952a4.178,4.178,0,0,0-5.909-5.909l-9.166,9.168-9.166-9.168a4.178,4.178,0,0,0-5.909,5.909l9.167,9.167-9.166,9.167a4.178,4.178,0,1,0,5.908,5.908l9.166-9.166,9.167,9.167a4.178,4.178,0,1,0,5.909-5.907l-9.166-9.168,1.849-1.849a1.189,1.189,0,0,0-1.682-1.682l-2.69,2.69a1.189,1.189,0,0,0,0,1.682l10.008,10.01a1.8,1.8,0,0,1-2.545,2.542L220,86.906a1.189,1.189,0,0,0-1.682,0L208.309,96.914a1.8,1.8,0,1,1-2.544-2.543l10.008-10.009a1.189,1.189,0,0,0,0-1.682L205.765,72.672a1.8,1.8,0,1,1,2.544-2.544l10.008,10.009a1.19,1.19,0,0,0,1.682,0l10.007-10.009a1.8,1.8,0,1,1,2.544,2.544Z" transform="translate(-176.456 -56.562)"/>
      <path id="Trazado_104769" data-name="Trazado 104769" d="M106.037,27.67A28.823,28.823,0,0,0,78.379.012,25.177,25.177,0,0,0,52.2,23.555a27.939,27.939,0,0,0,3.279,15.1,9.193,9.193,0,0,0-9.655,6.06l-1.388,3.944a1.189,1.189,0,1,0,2.244.789L48.068,45.5a6.8,6.8,0,0,1,7.755-4.389l1.321.272a29.374,29.374,0,0,0,7.6,7.578L59.91,53.8a1.189,1.189,0,1,0,1.682,1.682L75.219,41.853a4.765,4.765,0,1,1,6.739,6.739L72.243,58.31a1.19,1.19,0,0,0-.343.729L71.514,63.1A12.863,12.863,0,0,1,58.472,74.744l-3.771-.07a1.188,1.188,0,0,0-.863.348L50.53,78.331,39.261,67.062l1.693-1.693a1.19,1.19,0,0,0,.281-.446l3.87-11a1.189,1.189,0,1,0-2.244-.79l-3.78,10.745-2.343,2.343a1.189,1.189,0,0,0,0,1.682L49.689,80.854a1.189,1.189,0,0,0,1.682,0l3.791-3.791,3.266.06a15.242,15.242,0,0,0,15.454-13.8l.345-3.633,5.778-5.779q.3.007.609.007A25.206,25.206,0,0,0,106.037,27.67Zm-9.048,17.19a22.762,22.762,0,0,1-14.542,6.609l1.193-1.194a7.144,7.144,0,1,0-10.1-10.1l-7.076,7.075a27.06,27.06,0,0,1-7.615-7.59,25.685,25.685,0,0,1-4.275-15.932A22.8,22.8,0,0,1,78.311,2.39a26.444,26.444,0,0,1,25.349,25.349A22.985,22.985,0,0,1,96.989,44.859Z" transform="translate(-36.389 0)"/>
    </g>
  </g>
</svg>
