<svg id="Grupo_58476" data-name="Grupo 58476" xmlns="http://www.w3.org/2000/svg" width="94" height="94" viewBox="0 0 94 94">
  <rect id="Rectángulo_5248" data-name="Rectángulo 5248" width="94" height="94" fill="none"/>
  <g id="no-smoking" transform="translate(6.583 6.583)">
    <g id="Grupo_58487" data-name="Grupo 58487" transform="translate(1.243 1.19)">
      <path id="Trazado_104770" data-name="Trazado 104770" d="M19.2,153.077l-1.247-2.343h-4.6l-2.88,2.343a39.375,39.375,0,0,0-1.035,25.288l2.119,2.63,5.18-.634,1.084-2A31.223,31.223,0,0,1,19.2,153.077Z" transform="translate(-7.839 -128.014)" fill="#f37c7c"/>
      <path id="Trazado_104771" data-name="Trazado 104771" d="M442.247,201.713s-1.644-3.747-1.755-3.747-5.1.3-5.1.3l-1.177,3.451a31.433,31.433,0,0,1,.441,5.022,31,31,0,0,1-3.333,14.252l.612,1.8h6.484l1.608-1.8a39.13,39.13,0,0,0,2.577-14.006A39.61,39.61,0,0,0,442.247,201.713Z" transform="translate(-364.146 -167.754)" fill="#f37c7c"/>
      <path id="Trazado_104772" data-name="Trazado 104772" d="M407.231,248.62H402.1l-2.82,2.468.444,4.369,2.376,1.484h5.127a2.544,2.544,0,0,0,2.544-2.544v-3.231A2.545,2.545,0,0,0,407.231,248.62Z" transform="translate(-337.194 -210.373)" fill="#f98473"/>
      <path id="Trazado_104773" data-name="Trazado 104773" d="M407.232,265.175h-5.127l-2.375-1.484-.128-1.256-.316.277.444,4.369,2.376,1.484h5.127a2.544,2.544,0,0,0,2.544-2.544V262.79c0-.027,0-.053,0-.079A2.542,2.542,0,0,1,407.232,265.175Z" transform="translate(-337.194 -221.997)" fill="#f96b56"/>
      <g id="XMLID_138_" transform="translate(5.606 38.247)">
        <g id="Grupo_58483" data-name="Grupo 58483">
          <path id="Trazado_104774" data-name="Trazado 104774" d="M62.663,248.62H45.724a2.545,2.545,0,0,0-2.544,2.546V254.4a2.544,2.544,0,0,0,2.544,2.544H62.663l2.609-1.329V250.53Z" transform="translate(-43.18 -248.62)" fill="#feba1b"/>
          <path id="Trazado_104775" data-name="Trazado 104775" d="M45.724,266.634a2.542,2.542,0,0,1-2.54-2.465c0,.027,0,.052,0,.079v3.231a2.544,2.544,0,0,0,2.544,2.544H62.663l2.609-1.329V265.3l-2.609,1.329Z" transform="translate(-43.18 -261.703)" fill="#fe851b"/>
        </g>
      </g>
      <path id="Trazado_104776" data-name="Trazado 104776" d="M166.01,248.62h39.822v8.321H166.01Z" transform="translate(-140.921 -210.373)" fill="#f9f7f8"/>
      <g id="XMLID_137_" transform="translate(25.089 43.178)">
        <g id="Grupo_58484" data-name="Grupo 58484">
          <path id="Trazado_104777" data-name="Trazado 104777" d="M166.01,279.709h39.822v3.39H166.01Z" transform="translate(-166.01 -279.709)" fill="#efedef"/>
        </g>
      </g>
      <g id="Grupo_58485" data-name="Grupo 58485" transform="translate(1.603)">
        <path id="Trazado_104778" data-name="Trazado 104778" d="M55.321,78.005a31.126,31.126,0,0,1-18.387-6.154.246.246,0,0,1-.027-.373L80.318,28.067a.246.246,0,0,1,.373.027A31.119,31.119,0,0,1,86.4,41.461h0v0h8.036a39.232,39.232,0,0,0-75.455-8.911l8.715.015A31.256,31.256,0,0,1,74.2,21.6a.246.246,0,0,1,.027.373L30.816,65.387a.246.246,0,0,1-.373-.027,31.215,31.215,0,0,1-4.118-7.511H17.943a39.237,39.237,0,0,0,74.272,2.882h-8.7A31.368,31.368,0,0,1,55.321,78.005Z" transform="translate(-17.943 -7.5)" fill="#f98473"/>
      </g>
      <g id="Grupo_58486" data-name="Grupo 58486" transform="translate(26.08 15.449)">
        <path id="Trazado_104779" data-name="Trazado 104779" d="M190.835,109.569h-2.009a2.255,2.255,0,1,0,0,4.51H200.1a8.618,8.618,0,0,1,8.618,8.618.711.711,0,0,1-.711.711H204.36a.711.711,0,0,1-.711-.711v-.427a2.181,2.181,0,0,0-2.181-2.181H179.853a7.6,7.6,0,0,1,0-15.19h10.827a1.188,1.188,0,0,1,1.186,1.108l.155,2.294A1.189,1.189,0,0,1,190.835,109.569Z" transform="translate(-172.258 -104.899)" fill="#efedef"/>
      </g>
    </g>
    <g id="Grupo_58488" data-name="Grupo 58488">
      <path id="Trazado_104780" data-name="Trazado 104780" d="M69,11.838A40.417,40.417,0,0,0,11.838,69,40.417,40.417,0,0,0,69,11.838ZM67.313,67.313A38.037,38.037,0,0,1,13.52,13.52,38.037,38.037,0,1,1,67.313,67.313Z"/>
      <path id="Trazado_104781" data-name="Trazado 104781" d="M54.436,78a1.2,1.2,0,0,0,.221.021,1.19,1.19,0,0,0,1.168-.971,30.208,30.208,0,0,1,29.814-24.57,29.84,29.84,0,0,1,16.8,5.283l-9.02,9.02H88.876a1.065,1.065,0,0,1,0-2.131h3.281a1.19,1.19,0,0,0,0-2.379H88.876a3.445,3.445,0,0,0,0,6.889h11.269a7.437,7.437,0,0,1,7.428,7.428V77.3a1.19,1.19,0,0,0,2.379,0v-.711a9.786,9.786,0,0,0-3.391-7.408l3.646-3.646a30.141,30.141,0,0,1,4.779,11.512,1.19,1.19,0,0,0,1.168.973,1.208,1.208,0,0,0,.218-.02,1.19,1.19,0,0,0,.953-1.387,32.528,32.528,0,0,0-5.844-13.387,1.438,1.438,0,0,0-2.17-.159l-4.762,4.762a9.743,9.743,0,0,0-4.4-1.048H96.78l8.123-8.123a1.438,1.438,0,0,0-.158-2.17,32.386,32.386,0,0,0-40.089,1.151A32.619,32.619,0,0,0,53.486,76.613,1.19,1.19,0,0,0,54.436,78Z" transform="translate(-44.985 -42.154)"/>
      <path id="Trazado_104782" data-name="Trazado 104782" d="M178.418,323.674a1.19,1.19,0,0,0-1.559.632,30.269,30.269,0,0,1-11.017,13.346,30.008,30.008,0,0,1-33.752-.175l4.933-4.932a1.19,1.19,0,1,0-1.683-1.682l-5.718,5.717a1.438,1.438,0,0,0,.158,2.17,32.218,32.218,0,0,0,19.088,6.389h.253a32.208,32.208,0,0,0,18.049-5.513,32.644,32.644,0,0,0,11.88-14.393A1.19,1.19,0,0,0,178.418,323.674Z" transform="translate(-108.708 -272.253)"/>
      <path id="Trazado_104783" data-name="Trazado 104783" d="M101.3,146.378H80.38l5.228-5.228h.946a.993.993,0,0,1,.991.991v1.139a1.19,1.19,0,0,0,2.379,0v-1.139a3.374,3.374,0,0,0-3.371-3.371H64.94a6.408,6.408,0,0,1-6-8.648,1.19,1.19,0,1,0-2.228-.833,8.787,8.787,0,0,0,8.23,11.861h5.122l-5.228,5.228H39.415a3.738,3.738,0,0,0-3.734,3.734v3.232a3.738,3.738,0,0,0,3.734,3.734H54.134l-8.5,8.5a30.079,30.079,0,0,1-2.948-5.394,1.19,1.19,0,0,0-2.194.921,32.463,32.463,0,0,0,3.868,6.782,1.435,1.435,0,0,0,1.048.576c.035,0,.071,0,.106,0a1.437,1.437,0,0,0,1.017-.421l26.9-26.9h8.817l-22,22a1.19,1.19,0,0,0,1.683,1.682l7.759-7.759H81.24a1.19,1.19,0,0,0,0-2.379H72.06L78,148.757H94.985V154.7H86.31a1.19,1.19,0,0,0,0,2.379H101.3a3.738,3.738,0,0,0,3.734-3.734v-3.232a3.738,3.738,0,0,0-3.734-3.734Zm-43.757,7.29v-4.91h4.91Zm-19.484-.324v-3.232a1.356,1.356,0,0,1,1.355-1.355h15.75V154.7H39.415A1.356,1.356,0,0,1,38.06,153.344Zm64.6,0A1.356,1.356,0,0,1,101.3,154.7H97.365v-5.941H101.3a1.356,1.356,0,0,1,1.355,1.355Z" transform="translate(-30.021 -108.131)"/>
      <path id="Trazado_104784" data-name="Trazado 104784" d="M206.591,98.587a1.19,1.19,0,0,0-1.19-1.19H193.464a8.778,8.778,0,0,0-4.442,1.206,1.19,1.19,0,1,0,1.2,2.052,6.4,6.4,0,0,1,3.237-.879H205.4a1.189,1.189,0,0,0,1.19-1.189Z" transform="translate(-158.545 -81.948)"/>
    </g>
  </g>
</svg>
