<svg id="Grupo_58474" data-name="Grupo 58474" xmlns="http://www.w3.org/2000/svg" width="94" height="94" viewBox="0 0 94 94">
  <rect id="Rectángulo_5248" data-name="Rectángulo 5248" width="94" height="94" fill="none"/>
  <g id="salesman" transform="translate(7 7.258)">
    <path id="Trazado_104738" data-name="Trazado 104738" d="M23.387,49,9.76,52.207A10.064,10.064,0,0,0,2,62V64.1H59.871V62a10.064,10.064,0,0,0-7.76-9.8L38.484,49Z" transform="translate(0.258 12.129)" fill="#00357b"/>
    <path id="Trazado_104739" data-name="Trazado 104739" d="M19,49l3.774,15.1h7.548L34.1,49Z" transform="translate(4.645 12.129)" fill="#eae8e5"/>
    <path id="Trazado_104740" data-name="Trazado 104740" d="M34.1,42v8.806l-7.548,3.774L19,50.806V42Z" transform="translate(4.645 10.323)" fill="#e6b7b1"/>
    <path id="Trazado_104741" data-name="Trazado 104741" d="M28.613,54.548A17.613,17.613,0,0,1,11,36.935V25.613a17.613,17.613,0,1,1,35.226,0V36.935A17.613,17.613,0,0,1,28.613,54.548Z" transform="translate(2.581 1.548)" fill="#e6b7b1"/>
    <circle id="Elipse_5301" data-name="Elipse 5301" cx="2.5" cy="2.5" r="2.5" transform="translate(21 32)" fill="#304b68"/>
    <circle id="Elipse_5302" data-name="Elipse 5302" cx="2.5" cy="2.5" r="2.5" transform="translate(36 32)" fill="#304b68"/>
    <path id="Trazado_104742" data-name="Trazado 104742" d="M12.032,33.065a5.032,5.032,0,1,1,0-10.065Z" transform="translate(1.548 5.419)" fill="#e6b7b1"/>
    <path id="Trazado_104743" data-name="Trazado 104743" d="M39,33.065A5.032,5.032,0,1,0,39,23Z" transform="translate(9.806 5.419)" fill="#e6b7b1"/>
    <path id="Trazado_104744" data-name="Trazado 104744" d="M12.805,29.421A6.292,6.292,0,0,0,19.1,23.128v-.1a2.4,2.4,0,0,1,2.4-2.419h8.926c3.774,0,3.774-5.032,3.774-5.032A2.515,2.515,0,0,1,36.71,18.1,11.322,11.322,0,0,0,48.032,29.419h5.032V21.871A16.354,16.354,0,0,0,36.71,5.516,2.515,2.515,0,0,0,34.194,3H20.355A16.354,16.354,0,0,0,4,19.355v1.259a8.806,8.806,0,0,0,8.805,8.806Z" transform="translate(0.774 0.258)" fill="#fe851b"/>
    <path id="Trazado_104745" data-name="Trazado 104745" d="M24.516,55,22,62.548h7.548L27.032,55Z" transform="translate(5.419 13.677)" fill="#f4c14a"/>
    <path id="Trazado_104746" data-name="Trazado 104746" d="M22,55.774l3.774,2.516,3.774-2.516L25.774,52Z" transform="translate(5.419 12.903)" fill="#f4c14a"/>
    <path id="Trazado_104747" data-name="Trazado 104747" d="M19.774,49,16,52.774l5.032,6.29,6.29-6.29Z" transform="translate(3.871 12.129)" fill="#f7f4f0"/>
    <path id="Trazado_104748" data-name="Trazado 104748" d="M32.548,49l3.774,3.774-5.032,6.29L25,52.774Z" transform="translate(6.194 12.129)" fill="#f7f4f0"/>
    <path id="Trazado_104749" data-name="Trazado 104749" d="M10.91,51.4,14.8,55.29l-1.258,3.774L24.862,64.1,21.088,49Z" transform="translate(2.557 12.129)" fill="#0049aa"/>
    <path id="Trazado_104750" data-name="Trazado 104750" d="M38.065,55.29l1.258,3.774L28,64.1,31.774,49l10.178,2.4Z" transform="translate(6.968 12.129)" fill="#0049aa"/>
    <path id="Trazado_104751" data-name="Trazado 104751" d="M64.645,38.581A2.515,2.515,0,0,0,62.129,41.1a2.516,2.516,0,1,0-5.032,0,2.516,2.516,0,0,0-5.032,0V28.516a2.516,2.516,0,0,0-5.032,0V46.129H44.516A2.515,2.515,0,0,0,42,48.645v3.774l5.032,8.806v8.806H67.161V41.1A2.515,2.515,0,0,0,64.645,38.581Z" transform="translate(10.581 6.194)" fill="#e6b7b1"/>
    <path id="Trazado_104752" data-name="Trazado 104752" d="M65.871,24.387H62.1l-7.548,5.032V24.387H47V3H65.871Z" transform="translate(11.871 0.258)" fill="#feba1b"/>
    <path id="Trazado_104753" data-name="Trazado 104753" d="M54.581,52.065a5.032,5.032,0,0,0-5.032-5.032H47.032A5.032,5.032,0,0,0,52.065,42H44.516A2.515,2.515,0,0,0,42,44.516V48.29L47.032,57.1h2.516A5.032,5.032,0,0,0,54.581,52.065Z" transform="translate(10.581 10.323)" fill="#e6b7b1"/>
    <path id="Trazado_104754" data-name="Trazado 104754" d="M52.516,46.065A2.515,2.515,0,0,1,50,43.548V38.516a2.516,2.516,0,0,1,5.032,0v5.032A2.515,2.515,0,0,1,52.516,46.065Z" transform="translate(12.645 8.774)" fill="#e6b7b1"/>
    <path id="Trazado_104755" data-name="Trazado 104755" d="M56.516,46.065A2.515,2.515,0,0,1,54,43.548V38.516a2.516,2.516,0,1,1,5.032,0v5.032A2.515,2.515,0,0,1,56.516,46.065Z" transform="translate(13.677 8.774)" fill="#e6b7b1"/>
    <path id="Trazado_104756" data-name="Trazado 104756" d="M60.516,46.065A2.515,2.515,0,0,1,58,43.548V38.516a2.516,2.516,0,1,1,5.032,0v5.032A2.515,2.515,0,0,1,60.516,46.065Z" transform="translate(14.71 8.774)" fill="#e6b7b1"/>
    <g id="Grupo_58480" data-name="Grupo 58480" transform="translate(1 2)">
      <path id="Trazado_104757" data-name="Trazado 104757" d="M75.226,43.516a3.754,3.754,0,0,0-2.516.969,3.752,3.752,0,0,0-5.032,0,3.754,3.754,0,0,0-2.516-.969,3.487,3.487,0,0,0-1.258.226V34.71a3.774,3.774,0,1,0-7.548,0V51.065H55.1a3.785,3.785,0,0,0-3.774,3.774v3.774a1.419,1.419,0,0,0,.164.629l2.441,4.265a8.734,8.734,0,0,0-1.271-.39L40,60.135V55.166A18.875,18.875,0,0,0,50.027,39.629a6.3,6.3,0,0,0,5.07-6.177,6.206,6.206,0,0,0-.616-2.692,1.285,1.285,0,0,0,.616-1.082V22.129A17.643,17.643,0,0,0,38.541,4.541,3.8,3.8,0,0,0,34.968,2H21.129A17.632,17.632,0,0,0,3.516,19.613v1.258a10.065,10.065,0,0,0,5.1,8.744A6.221,6.221,0,0,0,7.29,33.452a6.3,6.3,0,0,0,5.07,6.177A18.875,18.875,0,0,0,22.387,55.166v4.969L9.731,63.117A11.269,11.269,0,0,0,1,74.137v2.088a1.262,1.262,0,0,0,1.258,1.258H77.742A1.262,1.262,0,0,0,79,76.226V47.29a3.785,3.785,0,0,0-3.774-3.774Zm-6.29,3.774a1.258,1.258,0,0,1,2.516,0v5.032a1.258,1.258,0,0,1-2.516,0Zm-5.032,0a1.258,1.258,0,0,1,2.516,0v5.032a1.258,1.258,0,1,1-2.516,0ZM58.871,34.71a1.258,1.258,0,0,1,2.516,0V51.065H58.871ZM50.065,37V30.935h1.547A3.757,3.757,0,0,1,50.065,37ZM12.323,37a3.762,3.762,0,0,1-1.409-6.215,1.086,1.086,0,0,1,.176-.164,10.16,10.16,0,0,0,1.233.239ZM6.032,20.871V19.613a15.109,15.109,0,0,1,15.1-15.1H34.968a1.262,1.262,0,0,1,1.258,1.258,1.262,1.262,0,0,0,1.258,1.258,15.109,15.109,0,0,1,15.1,15.1v6.29H48.806A10.078,10.078,0,0,1,38.742,18.355a3.785,3.785,0,0,0-3.774-3.774,1.262,1.262,0,0,0-1.258,1.258c0,.151-.05,3.774-2.516,3.774H22.261a3.688,3.688,0,0,0-3.648,3.774,5.031,5.031,0,0,1-5.032,5.032A7.554,7.554,0,0,1,6.032,20.871Zm8.806,17.613V30.822a7.573,7.573,0,0,0,6.29-7.536,1.141,1.141,0,0,1,1.132-1.157h8.932c3.019,0,4.353-2.378,4.818-4.466a1.216,1.216,0,0,1,.214.692A12.607,12.607,0,0,0,47.548,30.873v7.611a16.355,16.355,0,1,1-32.71,0ZM31.194,66.69l1.359,1.359L31.194,69.42l-1.359-1.371Zm0-3.2L24.9,60.349V56.273a18.827,18.827,0,0,0,12.581,0v4.076ZM3.516,74.968v-.83a8.778,8.778,0,0,1,6.794-8.58l2.755-.642,2.856,2.843L14.9,70.791a1.255,1.255,0,0,0,.679,1.547l5.913,2.629Zm14.141-4.454.893-2.692a1.266,1.266,0,0,0-.3-1.3l-2.3-2.3,6.781-1.585L25.57,74.024ZM27.6,71.722l-.289-1.145.742-.742.126.126Zm-1.006-4-1.057-4.252,3.535,1.774Zm2.579,7.246,1.006-3.007.126.126a1.276,1.276,0,0,0,1.786,0l.126-.126,1.006,3.007Zm5.624-3.246-.579-1.761.126-.126.742.742ZM33.32,65.243l3.535-1.774L35.8,67.721Zm6.341-2.6,6.781,1.585-2.3,2.3a1.266,1.266,0,0,0-.3,1.3l.893,2.692-7.913,3.51ZM56.355,74.968H40.893l5.913-2.629a1.255,1.255,0,0,0,.679-1.547l-1.019-3.032,2.856-2.843,2.755.642A8.74,8.74,0,0,1,56.355,68Zm20.129,0H58.871V67.419a1.419,1.419,0,0,0-.164-.629l-4.869-8.517V54.839A1.262,1.262,0,0,1,55.1,53.581h6.076a3.791,3.791,0,0,1-3.56,2.516H56.355v2.516h1.258a6.281,6.281,0,0,0,5.447-3.145,3.89,3.89,0,0,0,2.1.629,3.754,3.754,0,0,0,2.516-.969,3.752,3.752,0,0,0,5.032,0,3.754,3.754,0,0,0,2.516.969,3.487,3.487,0,0,0,1.258-.226Zm0-22.645a1.258,1.258,0,1,1-2.516,0V47.29a1.258,1.258,0,0,1,2.516,0Z" transform="translate(-1 -2)"/>
      <circle id="Elipse_5303" data-name="Elipse 5303" cx="2.5" cy="2.5" r="2.5" transform="translate(20 30)"/>
      <circle id="Elipse_5304" data-name="Elipse 5304" cx="2.5" cy="2.5" r="2.5" transform="translate(35 30)"/>
      <path id="Trazado_104758" data-name="Trazado 104758" d="M32.232,34.969l-1.937-1.607a5.036,5.036,0,0,1-8.127,0L20.23,34.968a7.546,7.546,0,0,0,12,0Z" transform="translate(3.963 6.093)"/>
      <path id="Trazado_104759" data-name="Trazado 104759" d="M52.516,8.516h6.29V10.05l-4.08,1.022a1.256,1.256,0,0,0-.952,1.219v2.516H56.29V13.273l4.08-1.022a1.257,1.257,0,0,0,.952-1.219V7.258A1.258,1.258,0,0,0,60.065,6H51.258A1.258,1.258,0,0,0,50,7.258V9.774h2.516Z" transform="translate(11.645 -0.968)"/>
      <path id="Trazado_104760" data-name="Trazado 104760" d="M53,15h2.516v2.516H53Z" transform="translate(12.419 1.355)"/>
      <path id="Trazado_104761" data-name="Trazado 104761" d="M66.129,2H47.258A1.258,1.258,0,0,0,46,3.258V24.645A1.258,1.258,0,0,0,47.258,25.9h6.29v3.774A1.258,1.258,0,0,0,55.5,30.724L62.736,25.9h3.393a1.258,1.258,0,0,0,1.258-1.258V3.258A1.258,1.258,0,0,0,66.129,2ZM64.871,23.387H62.355a1.265,1.265,0,0,0-.7.211l-5.592,3.729V24.645a1.258,1.258,0,0,0-1.258-1.258h-6.29V4.516H64.871Z" transform="translate(10.613 -2)"/>
    </g>
  </g>
</svg>
