<svg id="Grupo_58578" data-name="Grupo 58578" xmlns="http://www.w3.org/2000/svg" width="94" height="94" viewBox="0 0 94 94">
  <rect id="Rect치ngulo_5248" data-name="Rect치ngulo 5248" width="94" height="94" fill="none"/>
  <g id="doctor" transform="translate(-41.113 6.017)">
    <path id="Trazado_104925" data-name="Trazado 104925" d="M119.685,343.211l-13.525-3.978H82.667l-13.525,3.978a7.7,7.7,0,0,0-5.527,7.387v15.092h61.6V350.6A7.7,7.7,0,0,0,119.685,343.211Z" transform="translate(-6.3 -284.925)" fill="#edebed"/>
    <path id="Trazado_104926" data-name="Trazado 104926" d="M215.288,369.843H202.455l-2.567-25.666h17.966Z" transform="translate(-120.758 -289.078)" fill="#a5cdff"/>
    <path id="Trazado_104927" data-name="Trazado 104927" d="M200.472,350.015a12.788,12.788,0,0,0,16.8,0l.584-5.838H199.888Z" transform="translate(-120.758 -289.078)" fill="#8cb4eb"/>
    <path id="Trazado_104928" data-name="Trazado 104928" d="M208.871,281.982h0A8.983,8.983,0,0,1,199.888,273v-8.983h17.966V273A8.983,8.983,0,0,1,208.871,281.982Z" transform="translate(-120.758 -221.75)" fill="#e2bfbb"/>
    <path id="Trazado_104929" data-name="Trazado 104929" d="M199.888,270.729a18.908,18.908,0,0,0,17.966,0v-6.713H199.888Z" transform="translate(-120.758 -221.75)" fill="#deafaa"/>
    <path id="Trazado_104930" data-name="Trazado 104930" d="M160.152,92.478h-1.925V79.645H124.861V92.478h-1.925a3.208,3.208,0,0,0,0,6.416h1.99a16.666,16.666,0,0,0,33.236,0h1.99a3.208,3.208,0,1,0,0-6.416Z" transform="translate(-53.431 -66.895)" fill="#e6b7b1"/>
    <path id="Trazado_104931" data-name="Trazado 104931" d="M124.949,79.645V92.478h-1.8a3.282,3.282,0,0,0-3.2,2.337,3.219,3.219,0,0,0,3.092,4.079h1.973a16.565,16.565,0,0,0,19.193,15.184,16.672,16.672,0,0,1-14.124-16.467V89.547a3.842,3.842,0,0,1,4.348-3.783,32.508,32.508,0,0,0,3.849.221,50.6,50.6,0,0,0,12.675-1.807,9.9,9.9,0,0,0,5.969-4.533Z" transform="translate(-53.519 -66.895)" fill="#deafaa"/>
    <path id="Trazado_104932" data-name="Trazado 104932" d="M144.582,47.534l.16,5.133s-3.85,3.85-3.85,8.983v1.584a2.567,2.567,0,0,1-2.248,2.547l-2.885.361V55.234C135.759,50.981,139.769,47.32,144.582,47.534Z" transform="translate(-66.895 -39.917)" fill="#fe851b"/>
    <path id="Trazado_104933" data-name="Trazado 104933" d="M271.376,323.637l-2.542-2.542,2.72-3.627A1.571,1.571,0,0,0,271,315.12l-6.016-3.008L256,342.911h7.7l8.156-16.312A2.567,2.567,0,0,0,271.376,323.637Z" transform="translate(-167.888 -262.146)" fill="#dbd9dc"/>
    <path id="Trazado_104934" data-name="Trazado 104934" d="M320.29,23.485l-.16,8.983s3.85,3.85,3.85,8.983v1.584a2.567,2.567,0,0,0,2.248,2.547l2.885.361V31.185C329.113,26.933,325.1,23.271,320.29,23.485Z" transform="translate(-221.751 -19.718)" fill="#fe851b"/>
    <path id="Trazado_104935" data-name="Trazado 104935" d="M156.018,323.637l2.542-2.542-2.72-3.627a1.571,1.571,0,0,1,.554-2.348l6.016-3.008,8.983,30.8h-7.7L155.537,326.6A2.567,2.567,0,0,1,156.018,323.637Z" transform="translate(-83.28 -262.146)" fill="#dbd9dc"/>
    <path id="Trazado_104936" data-name="Trazado 104936" d="M157.975,7.5c-10.707,0-12.758,3.255-21,5.881a.9.9,0,0,0-.5,1.338c1.789,2.8,8.448,10.093,27.365,5.14a6,6,0,0,0,4.368-4.612h0a6,6,0,0,0-3.438-6.356A15.8,15.8,0,0,0,157.975,7.5Z" transform="translate(-67.376 -6.299)" fill="#fe851b"/>
    <rect id="Rect치ngulo_5589" data-name="Rect치ngulo 5589" width="12.833" height="7.7" transform="translate(63.73 73.065)" fill="#a5cdff"/>
    <path id="Trazado_104937" data-name="Trazado 104937" d="M201.606,160.322a1.2,1.2,0,0,0-1.2,1.2v1.283a1.2,1.2,0,1,0,2.4,0v-1.283A1.2,1.2,0,0,0,201.606,160.322Z" transform="translate(-121.192 -134.656)"/>
    <path id="Trazado_104938" data-name="Trazado 104938" d="M297.8,160.322a1.2,1.2,0,0,0-1.2,1.2v1.283a1.2,1.2,0,1,0,2.4,0v-1.283A1.2,1.2,0,0,0,297.8,160.322Z" transform="translate(-201.986 -134.656)"/>
    <path id="Trazado_104939" data-name="Trazado 104939" d="M234.2,218.49a1.2,1.2,0,1,0-1.686-1.709,5.292,5.292,0,0,1-6.013,0,1.2,1.2,0,1,0-1.687,1.709,7.574,7.574,0,0,0,9.386,0Z" transform="translate(-141.391 -181.786)"/>
    <path id="Trazado_104940" data-name="Trazado 104940" d="M196.156,136.274H193.59a1.2,1.2,0,1,0,0,2.4h2.567a1.2,1.2,0,0,0,0-2.4Z" transform="translate(-114.46 -114.458)"/>
    <path id="Trazado_104941" data-name="Trazado 104941" d="M289.783,138.675h2.567a1.2,1.2,0,1,0,0-2.4h-2.567a1.2,1.2,0,0,0,0,2.4Z" transform="translate(-195.253 -114.458)"/>
    <path id="Trazado_104942" data-name="Trazado 104942" d="M113.828,57.19l-8.654-2.661a2.753,2.753,0,0,0-1.525-2.63L98.3,49.224V45.408A17.91,17.91,0,0,0,105.824,33.2h.714a4.549,4.549,0,0,0,4.569-3.959,4.4,4.4,0,0,0-2.544-4.454V11.467a8.911,8.911,0,0,0-8.9-8.9h-.2A15.137,15.137,0,0,0,90.6,0,30.611,30.611,0,0,0,75.664,3.372a52.072,52.072,0,0,1-7.459,2.879,1.2,1.2,0,0,0-.771,1.615,10.894,10.894,0,0,0,1.957,2.846c-.6.736-1.729,2.617-1.729,6.316v7.814A4.379,4.379,0,0,0,69.505,33.2h.9a17.9,17.9,0,0,0,7.528,12.209v3.814L72.577,51.9a2.753,2.753,0,0,0-1.525,2.63L62.4,57.19A8.856,8.856,0,0,0,56.113,65.7V80.765a1.2,1.2,0,1,0,2.4,0V65.7A6.466,6.466,0,0,1,63.1,59.486l9-2.768,1.589,2.119-1.805,1.805a3.762,3.762,0,0,0-.706,4.349l3.437,6.874H71.348V70.5a1.2,1.2,0,0,0-2.4,0v1.366H63.73a1.2,1.2,0,0,0-1.2,1.2v7.7a1.2,1.2,0,0,0,1.2,1.2H76.564a1.2,1.2,0,0,0,1.2-1.2V78.152L79.339,81.3a1.2,1.2,0,0,0,2.148-1.074L73.331,63.916a1.364,1.364,0,0,1,.256-1.577L76.129,59.8a1.2,1.2,0,0,0,.112-1.569L73.521,54.6a.371.371,0,0,1,.131-.554l4.729-2.365,3.339,11.446a1.2,1.2,0,1,0,2.305-.672l-.526-1.8a14.049,14.049,0,0,0,9.23,0L88.113,76.477l-2.591-8.884a1.2,1.2,0,1,0-2.305.672L86.961,81.1a1.2,1.2,0,0,0,2.305,0l8.58-29.418,4.729,2.365a.371.371,0,0,1,.131.554l-2.72,3.627a1.2,1.2,0,0,0,.111,1.57l2.542,2.542a1.364,1.364,0,0,1,.256,1.577L94.739,80.228A1.2,1.2,0,1,0,96.887,81.3l8.156-16.312a3.763,3.763,0,0,0-.706-4.349l-1.805-1.805,1.589-2.118,9,2.768a6.466,6.466,0,0,1,4.589,6.212V80.765a1.2,1.2,0,0,0,2.4,0V65.7A8.856,8.856,0,0,0,113.828,57.19ZM75.363,79.565H64.931v-5.3h4.015v.083a1.2,1.2,0,1,0,2.4,0v-.083h4.015v5.3ZM76.656,5.559A28.281,28.281,0,0,1,90.6,2.4c4.43,0,8.388,1.854,9.208,4.312a1.2,1.2,0,0,0,2.278-.759,5.665,5.665,0,0,0-.245-.61,6.51,6.51,0,0,1,4.322,6.123V24.383H104.8a1.367,1.367,0,0,1-1.366-1.366V21.733c0-5.566-4.03-9.66-4.2-9.832a1.2,1.2,0,0,0-1.211-.3c-6.665,2.1-16.063,3.879-22.982.378A12.917,12.917,0,0,1,70.356,8.1,59.055,59.055,0,0,0,76.656,5.559ZM95.9,49.795,93.6,57.657a11.649,11.649,0,0,1-10.978,0l-2.294-7.864V46.816a17.857,17.857,0,0,0,15.565,0Zm-7.782-3.6A15.5,15.5,0,0,1,72.631,30.717a1.2,1.2,0,1,0-2.4,0V30.8h-.724a2.008,2.008,0,0,1-2-2.219,2.13,2.13,0,0,1,2.18-1.8H71.43A3.772,3.772,0,0,0,75.2,23.017V18.485a1.2,1.2,0,0,0-2.4,0v4.532a1.367,1.367,0,0,1-1.366,1.366H70.065V17.028a8.093,8.093,0,0,1,1.1-4.676,16.5,16.5,0,0,0,2.6,1.676,22.414,22.414,0,0,0,9.626,2.334A45.442,45.442,0,0,0,98,14.126a12.653,12.653,0,0,1,3.034,7.607v1.283a3.772,3.772,0,0,0,3.767,3.767h1.925a2.008,2.008,0,0,1,2,2.219,2.13,2.13,0,0,1-2.18,1.8H106v-.07a1.2,1.2,0,0,0-1.2-1.2h0a1.2,1.2,0,0,0-1.2,1.2A15.5,15.5,0,0,1,88.113,46.2Z" transform="translate(0 0)"/>
    <path id="Trazado_104943" data-name="Trazado 104943" d="M368.344,436.079h-2.008v-2.008a1.2,1.2,0,1,0-2.4,0v2.008h-2.008a1.2,1.2,0,0,0,0,2.4h2.008v2.008a1.2,1.2,0,1,0,2.4,0v-2.008h2.008a1.2,1.2,0,0,0,0-2.4Z" transform="translate(-255.848 -363.573)"/>
  </g>
</svg>
