<svg id="Grupo_58578" data-name="Grupo 58578" xmlns="http://www.w3.org/2000/svg" width="94" height="94" viewBox="0 0 94 94">
  <rect id="Rectángulo_5248" data-name="Rectángulo 5248" width="94" height="94" fill="none"/>
  <g id="ley" transform="translate(4.333 -5.828)">
    <g id="Grupo_58569" data-name="Grupo 58569" transform="translate(18.537 64.048)">
      <g id="Grupo_58564" data-name="Grupo 58564" transform="translate(0 4.545)">
        <path id="Trazado_104893" data-name="Trazado 104893" d="M163.959,360.113a14.468,14.468,0,0,0,3.473,9.528H115.078a1.656,1.656,0,0,1-1.352-.692,16.866,16.866,0,0,1,0-17.673,1.657,1.657,0,0,1,1.352-.692h52.354A14.469,14.469,0,0,0,163.959,360.113Z" transform="translate(-111.226 -350.585)" fill="#f98473"/>
        <path id="Trazado_104894" data-name="Trazado 104894" d="M127.2,350.587l-14.764,15.992a16.73,16.73,0,0,1-1.208-6.463,15.121,15.121,0,0,1,2.5-8.837,1.654,1.654,0,0,1,1.352-.692Z" transform="translate(-111.229 -350.587)" fill="#d84d38"/>
        <path id="Trazado_104895" data-name="Trazado 104895" d="M198.524,360.113A14.468,14.468,0,0,0,202,369.641H148.846s-3.055-3.094-3.055-9.528,3.055-9.528,3.055-9.528H202A14.469,14.469,0,0,0,198.524,360.113Z" transform="translate(-140.03 -350.585)" fill="#e0d3ce"/>
        <g id="Grupo_58563" data-name="Grupo 58563" transform="translate(5.761 0)">
          <path id="Trazado_104896" data-name="Trazado 104896" d="M156,350.587l-10.157,11c-.035-.47-.055-.962-.055-1.473,0-6.435,3.055-9.528,3.055-9.528Z" transform="translate(-145.79 -350.587)" fill="#cdbfbb"/>
          <path id="Trazado_104897" data-name="Trazado 104897" d="M430.7,360.12a14.466,14.466,0,0,0,3.473,9.527h-6.3a14.8,14.8,0,0,1,0-19.055h6.3A14.462,14.462,0,0,0,430.7,360.12Z" transform="translate(-377.963 -350.591)" fill="#cdbfbb"/>
        </g>
      </g>
      <g id="Grupo_58568" data-name="Grupo 58568" transform="translate(7.172)">
        <g id="Grupo_58566" data-name="Grupo 58566" transform="translate(0.001)">
          <path id="Trazado_104898" data-name="Trazado 104898" d="M212.633,326.084a2.766,2.766,0,0,1-2.765,2.765H157.025a2.766,2.766,0,0,1,0-5.532h52.842A2.766,2.766,0,0,1,212.633,326.084Z" transform="translate(-154.26 -323.317)" fill="#f98473"/>
          <g id="Grupo_58565" data-name="Grupo 58565">
            <path id="Trazado_104899" data-name="Trazado 104899" d="M167.255,323.317l-5.105,5.532h-5.125a2.766,2.766,0,0,1,0-5.532Z" transform="translate(-154.26 -323.317)" fill="#d84d38"/>
            <path id="Trazado_104900" data-name="Trazado 104900" d="M463.844,326.086a2.768,2.768,0,0,1-2.767,2.767h-5.364a2.766,2.766,0,0,0,0-5.532h5.364A2.766,2.766,0,0,1,463.844,326.086Z" transform="translate(-405.47 -323.32)" fill="#d84d38"/>
          </g>
        </g>
        <g id="Grupo_58567" data-name="Grupo 58567" transform="translate(0 22.614)">
          <path id="Trazado_104901" data-name="Trazado 104901" d="M209.865,464.527H157.023a2.766,2.766,0,1,1,0-5.531h52.842a2.766,2.766,0,1,1,0,5.531Z" transform="translate(-154.257 -458.996)" fill="#f98473"/>
          <path id="Trazado_104902" data-name="Trazado 104902" d="M463.844,461.765a2.764,2.764,0,0,1-2.767,2.765h-5.364a2.765,2.765,0,0,0,0-5.53h5.364A2.766,2.766,0,0,1,463.844,461.765Z" transform="translate(-405.47 -458.999)" fill="#d84d38"/>
        </g>
      </g>
    </g>
    <g id="Grupo_58577" data-name="Grupo 58577" transform="translate(-0.001 12.193)">
      <g id="Grupo_58572" data-name="Grupo 58572" transform="translate(1.25 33.032)">
        <g id="Grupo_58570" data-name="Grupo 58570" transform="translate(0 10.579)">
          <path id="Trazado_104903" data-name="Trazado 104903" d="M43.908,278.322l-4.465-4.465L9.049,301.915a4.813,4.813,0,1,0,6.8,6.8Z" transform="translate(-7.5 -273.857)" fill="#873f30"/>
          <path id="Trazado_104904" data-name="Trazado 104904" d="M16.9,315.723a4.815,4.815,0,0,1-6.8,0A4.766,4.766,0,0,1,8.918,313.8a4.806,4.806,0,0,0,4.884-1.17c.046-.046.092-.1.137-.143L42,282.1l3.092,3.092L17.031,315.583C16.986,315.63,16.941,315.678,16.9,315.723Z" transform="translate(-8.682 -280.723)" fill="#6c3328"/>
        </g>
        <path id="Trazado_104905" data-name="Trazado 104905" d="M200.917,210.382l-10.281,12.264,4.2,4.2L207.1,216.565Z" transform="translate(-160.113 -210.382)" fill="#873f30"/>
        <path id="Trazado_104906" data-name="Trazado 104906" d="M209.189,210.382l-3.322,3.963,1,1a1.879,1.879,0,0,1,0,2.657l-6.3,6.3,2.546,2.546,12.264-10.281Z" transform="translate(-168.385 -210.382)" fill="#6c3328"/>
        <g id="Grupo_58571" data-name="Grupo 58571" transform="translate(27.121 9.753)">
          <path id="Trazado_104907" data-name="Trazado 104907" d="M175.183,278.128l-4.077-4.077a3.018,3.018,0,0,1,4.268-4.268l4.077,4.077a3.018,3.018,0,1,1-4.268,4.268Z" transform="translate(-170.222 -268.899)" fill="#ba5d4f"/>
          <path id="Trazado_104908" data-name="Trazado 104908" d="M188.8,287.482a3.018,3.018,0,0,1-4.268,0l-3.09-3.09a3.018,3.018,0,0,0,4.268-4.268l3.09,3.09A3.017,3.017,0,0,1,188.8,287.482Z" transform="translate(-179.571 -278.252)" fill="#a34f41"/>
        </g>
      </g>
      <g id="Grupo_58573" data-name="Grupo 58573" transform="translate(33.169 5.001)">
        <path id="Trazado_104909" data-name="Trazado 104909" d="M0,0H12.8V20.1H0Z" transform="translate(14.212 0) rotate(45)" fill="#ba5d4f"/>
        <path id="Trazado_104910" data-name="Trazado 104910" d="M0,0H12.8V20.1H0Z" transform="translate(28.882 43.107) rotate(-135)" fill="#a34f41"/>
      </g>
      <g id="Grupo_58576" data-name="Grupo 58576" transform="translate(0 0)">
        <path id="Trazado_104911" data-name="Trazado 104911" d="M177.689,40.777l-.314-.315a3.053,3.053,0,0,1,0-4.318L192.93,20.588a3.053,3.053,0,0,1,4.318,0l.315.315a3.053,3.053,0,0,1,0,4.318L182.007,40.777A3.054,3.054,0,0,1,177.689,40.777Z" transform="translate(-147.066 -18.444)" fill="#873f30"/>
        <path id="Trazado_104912" data-name="Trazado 104912" d="M349.138,212.226l.315.315a3.053,3.053,0,0,0,4.318,0l15.556-15.556a3.053,3.053,0,0,0,0-4.318l-.314-.315a3.053,3.053,0,0,0-4.318,0l-15.556,15.556A3.054,3.054,0,0,0,349.138,212.226Z" transform="translate(-290.202 -161.579)" fill="#6c3328"/>
        <g id="Grupo_58575" data-name="Grupo 58575">
          <path id="Trazado_104913" data-name="Trazado 104913" d="M0,0H14.379V30.36H0Z" transform="translate(60.363 10.729) rotate(45)" fill="#fcd770"/>
          <path id="Trazado_104914" data-name="Trazado 104914" d="M0,0H30.36V7.278H0Z" transform="translate(43.913 37.226) rotate(-45)" fill="#feba1b"/>
          <path id="Trazado_104915" data-name="Trazado 104915" d="M246.789,68.054,244.3,67.036a2.29,2.29,0,0,0-2.486.5L224.323,85.026a2.29,2.29,0,0,0-.5,2.486L224.841,90a1.527,1.527,0,0,0,2.493.5l19.957-19.957a1.527,1.527,0,0,0-.5-2.493Z" transform="translate(-186.376 -57.754)" fill="#873f30"/>
          <path id="Trazado_104916" data-name="Trazado 104916" d="M311.318,132.585l1.018,2.491a2.29,2.29,0,0,1-.5,2.486L294.346,155.05a2.29,2.29,0,0,1-2.486.5l-2.491-1.018a1.527,1.527,0,0,1-.5-2.493l19.957-19.957A1.527,1.527,0,0,1,311.318,132.585Z" transform="translate(-240.349 -111.728)" fill="#6c3328"/>
          <g id="Grupo_58574" data-name="Grupo 58574">
            <path id="Trazado_104917" data-name="Trazado 104917" d="M81.317,85.411h-.93a12.928,12.928,0,0,1-1.077-2.052,1.25,1.25,0,1,0-2.31.956c.155.373.327.738.509,1.1H28.475a4,4,0,0,0-1.09.151,14.531,14.531,0,0,1-1.837-7.442c0-.545.024-1.082.071-1.609h23.95a1.25,1.25,0,0,0,0-2.5h-22.9L29.61,70.83H77.5a15.6,15.6,0,0,0-1.2,3.182H59.869a1.25,1.25,0,0,0,0,2.5H75.863c-.049.508-.077,1.021-.08,1.538a1.25,1.25,0,0,0,1.245,1.255h.005a1.25,1.25,0,0,0,1.25-1.245,13.375,13.375,0,0,1,2.1-7.231h.932a4.016,4.016,0,1,0,0-8.031H65.692L80.008,48.482a4.3,4.3,0,0,0,0-6.086l-.315-.315a4.3,4.3,0,0,0-5.865-.2l-2.213-2.213.753-.753a3.532,3.532,0,0,0,.774-3.843l-1.018-2.491a2.771,2.771,0,0,0-2.011-1.669l-1.739-1.739a1.25,1.25,0,0,0-1.768,1.768l.855.855-19.7,19.7L41.969,45.7,61.67,26l.767.767A1.25,1.25,0,1,0,64.2,25l-1.65-1.65a2.771,2.771,0,0,0-1.669-2.011h0l-2.491-1.018a3.533,3.533,0,0,0-3.843.774l-.753.753-2.213-2.213a4.3,4.3,0,0,0-.2-5.864l-.315-.315a4.3,4.3,0,0,0-6.086,0L29.424,29.01a4.3,4.3,0,0,0,0,6.086l.314.315a4.3,4.3,0,0,0,5.865.2l2.213,2.213-.754.754a3.532,3.532,0,0,0-.774,3.843l1.018,2.491a2.77,2.77,0,0,0,1.983,1.662l-6.268,7.477a4.27,4.27,0,0,0-5.641,5.415l-2.843,2.624a1.25,1.25,0,0,0,1.7,1.837L28.86,61.5l3.1,3.1L8.68,89.816a3.563,3.563,0,1,1-5.035-5.035L21.9,67.926a1.25,1.25,0,1,0-1.7-1.837L1.95,82.944A6.063,6.063,0,0,0,6.058,93.462h.125a6.011,6.011,0,0,0,4.334-1.949L18.009,83.4a14.407,14.407,0,0,0,2.01,4.285A2.911,2.911,0,0,0,22.389,88.9H24.5a4.009,4.009,0,0,0,3.98,4.544H81.317a4.016,4.016,0,1,0,0-8.031Zm1.516-18.6a1.517,1.517,0,0,1-1.516,1.516h-49.4L34,66.079a4.272,4.272,0,0,0,4.264-.781H81.317a1.517,1.517,0,0,1,1.516,1.516ZM45.122,52.388l-7.238,6.068-2.878-2.878,6.068-7.238ZM39.669,62.8a4.293,4.293,0,0,0-.261-2.358l7.476-6.268a2.771,2.771,0,0,0,1.662,1.983l2.491,1.018A3.533,3.533,0,0,0,54.88,56.4l.754-.754,2.213,2.213a4.311,4.311,0,0,0-.5,4.94H39.669ZM76.651,43.321a1.792,1.792,0,0,1,1.275.528l.315.315a1.8,1.8,0,0,1,0,2.55L62.684,62.27a1.8,1.8,0,0,1-2.55,0l-.315-.315a1.805,1.805,0,0,1,0-2.55L75.376,43.849a1.791,1.791,0,0,1,1.275-.528Zm-4.6.315L59.606,56.083l-2.2-2.2L69.848,41.431ZM49.4,53.389,69.359,33.432a.263.263,0,0,1,.191-.082.305.305,0,0,1,.059.006.266.266,0,0,1,.2.167l1.018,2.491a1.037,1.037,0,0,1-.227,1.129L53.112,54.632a1.038,1.038,0,0,1-1.129.227l-2.491-1.018a.277.277,0,0,1-.091-.452ZM32.781,34.171a1.791,1.791,0,0,1-1.275-.528l-.315-.315a1.8,1.8,0,0,1,0-2.55L46.748,15.222a1.8,1.8,0,0,1,2.55,0l.315.315a1.8,1.8,0,0,1,0,2.55L34.057,33.643A1.793,1.793,0,0,1,32.781,34.171Zm4.6-.315L49.826,21.409l2.2,2.2L39.584,36.06Zm1.451,6.493L56.319,22.86a1.038,1.038,0,0,1,1.129-.227l2.491,1.018a.277.277,0,0,1,.091.452L40.073,44.06a.276.276,0,0,1-.452-.091L38.6,41.478A1.038,1.038,0,0,1,38.83,40.349ZM29.62,58a1.768,1.768,0,0,1,3.018-1.25l4.077,4.077a1.768,1.768,0,0,1-2.5,2.5l-4.077-4.077A1.757,1.757,0,0,1,29.62,58ZM22.056,86.232a12.611,12.611,0,0,1-2-5.052l3-3.246c0,.062,0,.124,0,.186A17.344,17.344,0,0,0,24.987,86.4h-2.6A.407.407,0,0,1,22.056,86.232Zm59.261,4.71H28.475a1.516,1.516,0,0,1,0-3.031H81.317a1.516,1.516,0,0,1,0,3.031Z" transform="translate(0.001 -12.193)"/>
            <path id="Trazado_104918" data-name="Trazado 104918" d="M203.577,417.166a1.25,1.25,0,0,0,0,2.5H232.7a1.25,1.25,0,0,0,0-2.5Z" transform="translate(-168.605 -349.669)"/>
          </g>
        </g>
      </g>
    </g>
  </g>
</svg>
