<svg id="Grupo_58473" data-name="Grupo 58473" xmlns="http://www.w3.org/2000/svg" width="94" height="94" viewBox="0 0 94 94">
  <rect id="Rectángulo_5248" data-name="Rectángulo 5248" width="94" height="94" fill="none"/>
  <g id="anxiety" transform="translate(9.492 9.499)">
    <path id="Trazado_104717" data-name="Trazado 104717" d="M137.847,33.348,122.383,11.255a8.791,8.791,0,0,0-14.411,0L92.509,33.348a8.79,8.79,0,0,0,7.288,13.7h30.762a8.79,8.79,0,0,0,7.288-13.7Z" transform="translate(-77.67 -6.401)" fill="#f98473"/>
    <path id="Trazado_104718" data-name="Trazado 104718" d="M259.413,61.438,243.974,39.38a4.394,4.394,0,0,0-6.289-.964l12.7,29.845h5.368a4.4,4.4,0,0,0,3.664-6.823Z" transform="translate(-202.861 -32.007)" fill="#fe851b"/>
    <path id="Trazado_104719" data-name="Trazado 104719" d="M155.191,69.206a4.366,4.366,0,0,0-.731-2.429L139.021,44.719a4.406,4.406,0,0,0-.921-.964,4.409,4.409,0,0,0-.921.964L121.739,66.777A4.4,4.4,0,0,0,125.4,73.6H150.8A4.4,4.4,0,0,0,155.191,69.206Z" transform="translate(-103.275 -37.346)" fill="#feba1b"/>
    <path id="Trazado_104720" data-name="Trazado 104720" d="M286.008,422.706,294.8,434.69h4.395l4.395-11.984Z" transform="translate(-244.106 -360.786)" fill="#92e9f7"/>
    <path id="Trazado_104721" data-name="Trazado 104721" d="M134.886,382.516H106.008l4.395,17.871h10.673l6.905-6.893,6.905,6.893h6.278V382.516Z" transform="translate(-90.473 -326.484)" fill="#aafaf5"/>
    <path id="Trazado_104722" data-name="Trazado 104722" d="M17.542,387.536l-6.765,3.948a6.594,6.594,0,0,0-3.27,5.694v7.494H26.331Z" transform="translate(-6.401 -330.768)" fill="#00357b"/>
    <path id="Trazado_104723" data-name="Trazado 104723" d="M456.583,399.541l-4.395-2.565s3.27,15.753,3.27,15.753h4.395v-7.494A6.6,6.6,0,0,0,456.583,399.541Z" transform="translate(-385.943 -338.825)" fill="#002454"/>
    <path id="Trazado_104724" data-name="Trazado 104724" d="M387.167,388.92l-2.37-1.384-8.789,17.136h14.429V394.613A6.59,6.59,0,0,0,387.167,388.92Z" transform="translate(-320.922 -330.768)" fill="#00357b"/>
    <path id="Trazado_104725" data-name="Trazado 104725" d="M320.4,307.516h-4.395l4.395,19.361c.054.032.11.063.166.092a2.9,2.9,0,0,0,4.229-2.58V311.911A4.394,4.394,0,0,0,320.4,307.516Z" transform="translate(-269.711 -262.47)" fill="#aafaf5"/>
    <path id="Trazado_104726" data-name="Trazado 104726" d="M162.375,307.516H140.4a4.394,4.394,0,0,0-4.395,4.395v12.479a2.9,2.9,0,0,0,5.262,1.688l5.411-7.575h13.811l5.411,7.575a2.892,2.892,0,0,0,.867.8V311.911A4.394,4.394,0,0,0,162.375,307.516Z" transform="translate(-116.078 -262.47)" fill="#defffd"/>
    <path id="Trazado_104727" data-name="Trazado 104727" d="M84.8,374.782l-6.152-4.614a6.593,6.593,0,0,1-2.637-5.273v-7.248l8.789-5.13Z" transform="translate(-64.867 -300.878)" fill="#00357b"/>
    <path id="Trazado_104728" data-name="Trazado 104728" d="M384.8,357.646v7.248a6.593,6.593,0,0,1-2.637,5.273l-6.152,4.614V352.516Z" transform="translate(-320.922 -300.878)" fill="#00357b"/>
    <path id="Trazado_104729" data-name="Trazado 104729" d="M219.248,339.3a4.269,4.269,0,0,0-6.949,0l-3.431,4.8h13.811Z" transform="translate(-178.265 -288.075)" fill="#fe851b"/>
    <path id="Trazado_104730" data-name="Trazado 104730" d="M219.248,368.112a10.423,10.423,0,0,0-6.949,0l-3.431,1.6,4.708,6.592,2.2,2.2,2.2-2.2,4.708-6.592Z" transform="translate(-178.265 -313.681)" fill="#f4c14a"/>
    <path id="Trazado_104731" data-name="Trazado 104731" d="M217.971,427.516l4.708,11.279H208.868l4.708-11.279Z" transform="translate(-178.265 -364.892)" fill="#f4c14a"/>
    <circle id="Elipse_5300" data-name="Elipse 5300" cx="2.197" cy="2.197" r="2.197" transform="translate(35.311 27.466)" fill="#00357b"/>
    <path id="Trazado_104732" data-name="Trazado 104732" d="M243.205,78.73a2.2,2.2,0,0,0-2.2,2.2v7.144a2.2,2.2,0,0,0,4.395,0V80.927A2.2,2.2,0,0,0,243.205,78.73Z" transform="translate(-205.697 -67.197)" fill="#00357b"/>
    <path id="Trazado_104733" data-name="Trazado 104733" d="M71.194,315.837l-15.009-8.76V305.51a5.5,5.5,0,0,0-5.493-5.493H24.324a5.5,5.5,0,0,0-5.493,5.493v1.566l-15.009,8.76a7.717,7.717,0,0,0-3.814,6.642v7.494a1.1,1.1,0,0,0,1.1,1.1h72.8a1.1,1.1,0,0,0,1.1-1.1v-7.494a7.717,7.717,0,0,0-3.814-6.642ZM2.205,328.874v-6.4a5.512,5.512,0,0,1,2.724-4.744l5.113-2.984v5.335a7.727,7.727,0,0,0,3.076,6.152l3.516,2.637Zm16.626-1.1-4.395-3.3a5.519,5.519,0,0,1-2.2-4.395v-6.617l6.592-3.847Zm2.2,1.1v-7.316a4,4,0,0,0,5.058-1.244l4.516-6.322,3.459,4.843-4.191,10.04ZM31.952,312.1l2.975-4.165a3.171,3.171,0,0,1,5.161,0l2.975,4.165L39.14,317.6H35.876Zm.3,16.772,3.791-9.082h2.931l3.791,9.082Zm21.736,0H45.145l-4.191-10.04,3.459-4.843,4.516,6.322a4,4,0,0,0,5.058,1.244Zm0-10.885a1.8,1.8,0,0,1-3.27,1.048l-8.841-12.378a5.368,5.368,0,0,0-8.737,0L24.3,319.037a1.8,1.8,0,0,1-3.27-1.048V305.51a3.3,3.3,0,0,1,3.3-3.3H50.691a3.3,3.3,0,0,1,3.3,3.3v12.479Zm2.2-8.369,6.592,3.847v6.617a5.519,5.519,0,0,1-2.2,4.395l-4.395,3.3Zm16.626,19.254H58.382l3.516-2.637a7.727,7.727,0,0,0,3.076-6.152v-5.335l5.113,2.984a5.512,5.512,0,0,1,2.724,4.744Z" transform="translate(0 -256.069)"/>
    <path id="Trazado_104734" data-name="Trazado 104734" d="M93.4,41.748h30.762a9.889,9.889,0,0,0,8.2-15.417l-.01-.015L116.883,4.223a9.889,9.889,0,0,0-16.211,0L85.208,26.316l-.01.015a9.889,9.889,0,0,0,8.2,15.417ZM87.014,27.569,102.472,5.483a7.692,7.692,0,0,1,12.61,0l15.458,22.085a7.692,7.692,0,0,1-6.383,11.982H93.4a7.692,7.692,0,0,1-6.383-11.982Z" transform="translate(-71.269)"/>
    <path id="Trazado_104735" data-name="Trazado 104735" d="M119,62.959h30.762a5.495,5.495,0,0,0,4.578-8.531l-.015-.021L138.887,32.349a5.5,5.5,0,0,0-9.01,0l-6.46,9.229a1.1,1.1,0,1,0,1.8,1.26l6.46-9.229a3.3,3.3,0,0,1,5.41,0l15.431,22.047a3.3,3.3,0,0,1-2.755,5.106H119a3.3,3.3,0,0,1-2.756-5.106l6.452-9.218a1.1,1.1,0,0,0-1.8-1.26l-6.46,9.229-.014.021A5.495,5.495,0,0,0,119,62.959Z" transform="translate(-96.874 -25.605)"/>
    <path id="Trazado_104736" data-name="Trazado 104736" d="M236.8,186.592a3.3,3.3,0,1,0-3.3-3.3A3.3,3.3,0,0,0,236.8,186.592Zm0-4.395a1.1,1.1,0,1,1-1.1,1.1A1.1,1.1,0,0,1,236.8,182.2Z" transform="translate(-199.296 -153.633)"/>
    <path id="Trazado_104737" data-name="Trazado 104737" d="M236.8,84.966a3.3,3.3,0,0,0,3.3-3.3V74.526a3.3,3.3,0,1,0-6.592,0V81.67A3.3,3.3,0,0,0,236.8,84.966Zm-1.1-10.44a1.1,1.1,0,0,1,2.2,0V81.67a1.1,1.1,0,0,1-2.2,0Z" transform="translate(-199.296 -60.796)"/>
  </g>
</svg>
