<svg id="Grupo_58384" data-name="Grupo 58384" xmlns="http://www.w3.org/2000/svg" width="94" height="94" viewBox="0 0 94 94">
  <rect id="Rectángulo_5248" data-name="Rectángulo 5248" width="94" height="94" fill="none"/>
  <g id="area-de-fumadores" transform="translate(16.889 3.446)">
    <g id="Grupo_58386" data-name="Grupo 58386" transform="translate(18.135 11.368)">
      <g id="Grupo_58385" data-name="Grupo 58385" transform="translate(0)">
        <path id="Trazado_104585" data-name="Trazado 104585" d="M194.364,106.974V71.182a4.322,4.322,0,1,0-8.643,0v35.792Z" transform="translate(-185.721 -66.86)" fill="#e6b7b1"/>
      </g>
    </g>
    <g id="Grupo_58388" data-name="Grupo 58388" transform="translate(20.795 11.368)">
      <g id="Grupo_58387" data-name="Grupo 58387">
        <path id="Trazado_104586" data-name="Trazado 104586" d="M203.028,66.86a4.307,4.307,0,0,0-1.662.332,4.322,4.322,0,0,1,2.66,3.99V93.487a2.874,2.874,0,0,0,2.874,2.874.449.449,0,0,0,.449-.449V71.182A4.321,4.321,0,0,0,203.028,66.86Z" transform="translate(-201.366 -66.86)" fill="#dca39b"/>
      </g>
    </g>
    <g id="Grupo_58389" data-name="Grupo 58389" transform="translate(11.001 21.656)">
      <path id="Trazado_104587" data-name="Trazado 104587" d="M154.511,133.413H144.43a.67.67,0,0,1-.67-.67v-4.7a.67.67,0,0,1,.67-.67h10.081Z" transform="translate(-143.76 -127.372)" fill="#feba1b"/>
    </g>
    <g id="Grupo_58391" data-name="Grupo 58391" transform="translate(1.278 47.688)">
      <g id="Grupo_58390" data-name="Grupo 58390" transform="translate(0)">
        <path id="Trazado_104588" data-name="Trazado 104588" d="M110.1,290.621l-1.9,13.142-7.92-4.636a18.012,18.012,0,0,1-5.393-4.848L86.927,283.5a1.793,1.793,0,0,1,1.264-2.849l1.359-.136a7.075,7.075,0,0,1,4.18.877Z" transform="translate(-86.574 -280.48)" fill="#e6b7b1"/>
      </g>
    </g>
    <g id="Grupo_58393" data-name="Grupo 58393" transform="translate(1.278 47.688)">
      <g id="Grupo_58392" data-name="Grupo 58392" transform="translate(0)">
        <path id="Trazado_104589" data-name="Trazado 104589" d="M87.07,283.693l.5-.051a7.075,7.075,0,0,1,4.18.876l17.786,9.965.56-3.864-16.37-9.229a7.072,7.072,0,0,0-4.18-.876l-1.359.136a1.793,1.793,0,0,0-1.264,2.849Z" transform="translate(-86.574 -280.479)" fill="#dca39b"/>
      </g>
    </g>
    <g id="Grupo_58395" data-name="Grupo 58395" transform="translate(18.135 42.918)">
      <g id="Grupo_58394" data-name="Grupo 58394" transform="translate(0)">
        <path id="Trazado_104590" data-name="Trazado 104590" d="M192.058,252.428a6.337,6.337,0,0,0-6.337,6.337v12.667a11.543,11.543,0,0,0,3.078,7.847l.007.007a2.637,2.637,0,0,1,.7,1.793v13.032a1.2,1.2,0,0,0,1.2,1.2h24.6a1.2,1.2,0,0,0,1.2-1.2V280.819a1.9,1.9,0,0,1,.532-1.325,11.458,11.458,0,0,0,3.256-8.016V254.355a1.927,1.927,0,0,0-1.927-1.927Z" transform="translate(-185.721 -252.428)" fill="#e6b7b1"/>
      </g>
    </g>
    <g id="Grupo_58397" data-name="Grupo 58397" transform="translate(44.039 33.988)">
      <g id="Grupo_58396" data-name="Grupo 58396">
        <path id="Trazado_104591" data-name="Trazado 104591" d="M346.721,215.42V204.226a4.322,4.322,0,1,0-8.643,0V215.42a4.322,4.322,0,1,0,8.643,0Z" transform="translate(-338.078 -199.904)" fill="#e6b7b1"/>
      </g>
    </g>
    <g id="Grupo_58398" data-name="Grupo 58398" transform="translate(46.696 33.988)">
      <path id="Trazado_104592" data-name="Trazado 104592" d="M355.369,199.9a4.309,4.309,0,0,0-1.665.333,4.323,4.323,0,0,1,2.657,3.989V215.42a4.322,4.322,0,0,1-2.657,3.989,4.323,4.323,0,0,0,5.986-3.989V204.225A4.322,4.322,0,0,0,355.369,199.9Z" transform="translate(-353.704 -199.904)" fill="#dca39b"/>
    </g>
    <g id="Grupo_58400" data-name="Grupo 58400" transform="translate(35.421 33.988)">
      <g id="Grupo_58399" data-name="Grupo 58399">
        <path id="Trazado_104593" data-name="Trazado 104593" d="M296.035,215.42V204.226a4.322,4.322,0,0,0-8.643,0V215.42a4.322,4.322,0,0,0,8.643,0Z" transform="translate(-287.392 -199.904)" fill="#e6b7b1"/>
      </g>
    </g>
    <g id="Grupo_58401" data-name="Grupo 58401" transform="translate(38.078 33.988)">
      <path id="Trazado_104594" data-name="Trazado 104594" d="M304.683,199.9a4.309,4.309,0,0,0-1.665.333,4.323,4.323,0,0,1,2.657,3.989V215.42a4.322,4.322,0,0,1-2.657,3.989A4.323,4.323,0,0,0,309,215.42V204.225A4.322,4.322,0,0,0,304.683,199.9Z" transform="translate(-303.018 -199.904)" fill="#dca39b"/>
    </g>
    <g id="Grupo_58402" data-name="Grupo 58402" transform="translate(20.979 21.656)">
      <path id="Trazado_104595" data-name="Trazado 104595" d="M238.484,127.371H202.447v6.041h36.037a.67.67,0,0,0,.67-.67v-4.7A.67.67,0,0,0,238.484,127.371Z" transform="translate(-202.447 -127.371)" fill="#f1f4f6"/>
    </g>
    <g id="Grupo_58403" data-name="Grupo 58403" transform="translate(20.979 21.656)">
      <path id="Trazado_104596" data-name="Trazado 104596" d="M238.484,127.371h-2.532v2.265a.8.8,0,0,1-.8.8H202.447v2.977h36.037a.67.67,0,0,0,.67-.67v-4.7A.67.67,0,0,0,238.484,127.371Z" transform="translate(-202.447 -127.371)" fill="#dfeaef"/>
    </g>
    <g id="Grupo_58404" data-name="Grupo 58404" transform="translate(55.632)">
      <path id="Trazado_104597" data-name="Trazado 104597" d="M409.581,18.268a1.275,1.275,0,0,1-1.275-1.275,2.548,2.548,0,0,0-.751-1.837,5.137,5.137,0,0,1,0-6.807,2.621,2.621,0,0,0,0-3.673,5.055,5.055,0,0,1-1.289-3.4,1.275,1.275,0,1,1,2.55,0,2.547,2.547,0,0,0,.751,1.836,5.137,5.137,0,0,1,0,6.807,2.621,2.621,0,0,0,0,3.673,5.056,5.056,0,0,1,1.289,3.4,1.275,1.275,0,0,1-1.275,1.275Z" transform="translate(-406.266 0.002)" fill="#f1f4f6"/>
    </g>
    <g id="Grupo_58405" data-name="Grupo 58405" transform="translate(49.632 5.24)">
      <path id="Trazado_104598" data-name="Trazado 104598" d="M374.29,43.846a1.275,1.275,0,0,1-1.275-1.275,2.548,2.548,0,0,0-.751-1.837,5.137,5.137,0,0,1,0-6.807,2.547,2.547,0,0,0,.751-1.836,1.275,1.275,0,1,1,2.55,0,5.056,5.056,0,0,1-1.289,3.4,2.621,2.621,0,0,0,0,3.673,5.056,5.056,0,0,1,1.289,3.4A1.275,1.275,0,0,1,374.29,43.846Z" transform="translate(-370.975 -30.816)" fill="#f1f4f6"/>
    </g>
    <g id="Grupo_58406" data-name="Grupo 58406" transform="translate(37.89 49.504)">
      <path id="Trazado_104599" data-name="Trazado 104599" d="M303.8,294.373a1.892,1.892,0,0,1-1.891-1.892v-.764a.554.554,0,0,1,.555-.555h2.674a.554.554,0,0,1,.555.555v.764A1.891,1.891,0,0,1,303.8,294.373Z" transform="translate(-301.913 -291.163)" fill="#fbe2dd"/>
    </g>
    <g id="Grupo_58407" data-name="Grupo 58407" transform="translate(46.469 49.504)">
      <path id="Trazado_104600" data-name="Trazado 104600" d="M354.263,294.373a1.892,1.892,0,0,1-1.892-1.892v-.764a.554.554,0,0,1,.555-.555H355.6a.555.555,0,0,1,.555.555v.764A1.891,1.891,0,0,1,354.263,294.373Z" transform="translate(-352.371 -291.163)" fill="#fbe2dd"/>
    </g>
    <g id="Grupo_58408" data-name="Grupo 58408" transform="translate(38.03 49.504)">
      <path id="Trazado_104601" data-name="Trazado 104601" d="M305.823,291.164h-.485v.279a1.89,1.89,0,0,1-2.6,1.752,1.891,1.891,0,0,0,3.643-.712v-.764A.554.554,0,0,0,305.823,291.164Z" transform="translate(-302.734 -291.164)" fill="#f1cbc6"/>
    </g>
    <g id="Grupo_58409" data-name="Grupo 58409" transform="translate(46.609 49.504)">
      <path id="Trazado_104602" data-name="Trazado 104602" d="M356.282,291.164H355.8v.279a1.89,1.89,0,0,1-2.6,1.752,1.891,1.891,0,0,0,3.643-.712v-.764A.555.555,0,0,0,356.282,291.164Z" transform="translate(-353.193 -291.164)" fill="#f1cbc6"/>
    </g>
    <g id="Grupo_58411" data-name="Grupo 58411" transform="translate(26.778 9.38)">
      <g id="Grupo_58410" data-name="Grupo 58410">
        <path id="Trazado_104603" data-name="Trazado 104603" d="M245.2,89.7V59.49a4.322,4.322,0,0,0-8.643,0V89.695H245.2Z" transform="translate(-236.556 -55.168)" fill="#e6b7b1"/>
      </g>
    </g>
    <g id="Grupo_58413" data-name="Grupo 58413" transform="translate(29.438 9.38)">
      <g id="Grupo_58412" data-name="Grupo 58412">
        <path id="Trazado_104604" data-name="Trazado 104604" d="M253.864,55.168a4.307,4.307,0,0,0-1.662.332,4.322,4.322,0,0,1,2.66,3.99V84.441a2.874,2.874,0,0,0,2.874,2.874.449.449,0,0,0,.449-.449V59.49A4.322,4.322,0,0,0,253.864,55.168Z" transform="translate(-252.202 -55.168)" fill="#dca39b"/>
      </g>
    </g>
    <g id="Grupo_58414" data-name="Grupo 58414" transform="translate(11.001 24.72)">
      <path id="Trazado_104605" data-name="Trazado 104605" d="M143.76,145.392V147.7a.67.67,0,0,0,.67.67h10.081v-2.977Z" transform="translate(-143.76 -145.392)" fill="#fe851b"/>
    </g>
    <g id="Grupo_58415" data-name="Grupo 58415" transform="translate(55.632)">
      <path id="Trazado_104606" data-name="Trazado 104606" d="M409.581,18.268a1.275,1.275,0,0,1-1.275-1.275,2.548,2.548,0,0,0-.751-1.837,5.137,5.137,0,0,1,0-6.807,2.621,2.621,0,0,0,0-3.673,5.055,5.055,0,0,1-1.289-3.4,1.275,1.275,0,1,1,2.55,0,2.547,2.547,0,0,0,.751,1.836,5.137,5.137,0,0,1,0,6.807,2.621,2.621,0,0,0,0,3.673,5.056,5.056,0,0,1,1.289,3.4,1.275,1.275,0,0,1-1.275,1.275Z" transform="translate(-406.266 0.002)"/>
    </g>
    <g id="Grupo_58416" data-name="Grupo 58416" transform="translate(49.632 5.24)">
      <path id="Trazado_104607" data-name="Trazado 104607" d="M374.29,43.846a1.275,1.275,0,0,1-1.275-1.275,2.548,2.548,0,0,0-.751-1.837,5.137,5.137,0,0,1,0-6.807,2.547,2.547,0,0,0,.751-1.836,1.275,1.275,0,1,1,2.55,0,5.056,5.056,0,0,1-1.289,3.4,2.621,2.621,0,0,0,0,3.673,5.056,5.056,0,0,1,1.289,3.4A1.275,1.275,0,0,1,374.29,43.846Z" transform="translate(-370.975 -30.816)"/>
    </g>
    <g id="Grupo_58417" data-name="Grupo 58417" transform="translate(0 8.105)">
      <path id="Trazado_104608" data-name="Trazado 104608" d="M116.584,311.121H102.257V298.166a3.9,3.9,0,0,0-.66-2.17,1.277,1.277,0,0,0-.416-.393l-6.5-3.8a16.64,16.64,0,0,1-5.011-4.5l-7.956-10.779a.518.518,0,0,1,.365-.823l1.359-.137a5.767,5.767,0,0,1,3.427.719l9.7,5.47a1.275,1.275,0,0,0,1.9-1.111v-4.783a1.275,1.275,0,1,0-2.55,0v2.6l-7.8-4.4a8.312,8.312,0,0,0-4.934-1.035l-1.359.137a3.068,3.068,0,0,0-2.162,4.875l7.956,10.779A19.179,19.179,0,0,0,93.394,294l6.2,3.63a1.342,1.342,0,0,1,.112.536V311.2a2.475,2.475,0,0,0,2.473,2.473h14.4a1.275,1.275,0,1,0,0-2.55Z" transform="translate(-79.059 -234.67)"/>
      <path id="Trazado_104609" data-name="Trazado 104609" d="M183.69,59.944H163.23V53.383a5.674,5.674,0,0,0-5.518-5.715,5.6,5.6,0,0,0-5.165,3.266,5.573,5.573,0,0,0-3.713-1.276,5.675,5.675,0,0,0-5.441,5.714v4.572H138.2a1.945,1.945,0,0,0-1.946,1.946v4.7a1.945,1.945,0,0,0,1.946,1.946h5.189V82.892a1.31,1.31,0,0,0,1.236,1.328,1.275,1.275,0,0,0,1.314-1.275V68.535h6.093V80.2a1.31,1.31,0,0,0,1.236,1.328,1.275,1.275,0,0,0,1.314-1.275V53.339a3.1,3.1,0,0,1,2.929-3.119,3.05,3.05,0,0,1,3.164,3.044v35.7a5.663,5.663,0,0,0,5.492,5.7,5.587,5.587,0,0,0,4.414-2.028,5.585,5.585,0,0,0,7.356,1.123v8.037a9.987,9.987,0,0,1-2.906,6.906,3.156,3.156,0,0,0-.883,2.2v13.216h-4.047a1.311,1.311,0,0,0-1.328,1.236,1.275,1.275,0,0,0,1.275,1.314h4.178A2.473,2.473,0,0,0,176.7,124.2V110.9a.628.628,0,0,1,.171-.436,12.7,12.7,0,0,0,3.617-8.9V77.873a5.594,5.594,0,0,0-9.905-3.567,5.585,5.585,0,0,0-7.355-1.124V68.535h20.46a1.87,1.87,0,0,0,1.87-1.87V61.814a1.87,1.87,0,0,0-1.87-1.87Zm-36.68,6.041h-8.2V62.494h8.2Zm5.026,0h-2.476V62.494h2.476Zm0-6.041h-6.093V55.252a3.046,3.046,0,1,1,6.093,0Zm19.827,17.615a3.046,3.046,0,0,1,6.077.314V89.067a3.046,3.046,0,0,1-4.193,2.821,3.052,3.052,0,0,1-1.884-2.507c.006-.1.009-.208.009-.314V77.873C171.873,77.767,171.87,77.663,171.864,77.559Zm-5.587-2.733a3.051,3.051,0,0,1,3.03,2.732c-.006.1-.009.208-.009.314V89.067c0,.105,0,.21.009.314a3.052,3.052,0,0,1-1.792,2.467,2.7,2.7,0,0,1-2.309.068,3.049,3.049,0,0,1-1.976-2.849V77.873a3.05,3.05,0,0,1,3.046-3.046ZM182.9,65.985H163.23V62.494H182.9Z" transform="translate(-126.534 -47.668)"/>
    </g>
  </g>
</svg>
